<svg xmlns="http://www.w3.org/2000/svg" viewBox="0 0 523.6 508.5" xmlns:v="https://vecta.io/nano"><g fill="#110802"><path d="M96.3 378.4c-.7-.3-.7-1.1-.5-1.8 1.7-5.2 3.9-10.2 6.6-15 5.8-10.7 12.6-20.8 19.3-31 6-8.9 12-17.8 18.8-26.1 9.3-13.2 18.8-26.5 29.1-39 12.9-15.8 24.5-32.5 38.3-47.5 5.6-6.4 11.8-12.3 17.6-18.5 4-4.8 8.2-9.4 12.6-13.7 7.4-7.9 15.6-15.1 23.5-22.5 15.6-14.7 31.9-28.5 48.8-41.6 16-13.4 32.4-26.2 49-38.8L389 62.4c16.6-11.1 34.1-20.8 51.3-31 16.8-9.9 34.1-18.9 51.9-26.8 3-1.3 5.9-3 9-4.3.5-.4 1.3-.6 1.7 0 .5 1-.6 1.6-1.4 1.9l-18.1 8.5c-14.1 6.8-28 14-41.5 22-17.2 10.2-34.6 19.9-51.2 31l-30.4 21.1c-15 11.5-30 22.9-44.4 35.1-18.7 14.5-36.9 29.7-54 45.9-12.4 11.4-24.7 22.9-35.6 35.8-15.6 15.4-29.9 32-42.8 49.8-7.1 9.2-14.6 17.8-21.6 27l-12 16.1c-3.7 5-6.9 10.4-10.9 15.2-8.4 11-15.9 22.6-23.5 34.2-6 9.5-12.1 19-16.3 29.5 2.8-4.2 5.9-8.2 8.8-12.4 5.5-8.3 10.3-17 16.4-24.8 4.7-6.9 10-13.3 15.2-19.8 4.9-6.3 9.3-12.9 14.4-18.9 3.9-5.5 8.1-10.7 12.5-15.8 4.4-5.8 8.7-11.8 13.6-17.3 10.4-14.1 22.6-26.7 34.6-39.4 15.8-17.6 31.2-35.6 47.9-52.4 9-8.9 18.5-17.1 28-25.5 5-5 10.3-9.6 15.9-14 5.5-4.5 11.2-8.9 17-13 11.3-8.7 22.3-18.1 33.8-26.5 18.7-14 38.7-26.1 58.9-37.8 16.6-9.8 33.2-19.3 50.6-27.5 12.9-6.5 25.9-12.6 39.3-18 4.1-1.6 8.3-3.1 12.4-4.6 1.3-.5 2.6-1 3.9-1.4.5-.2 1.1 0 1.3.5s0 1.1-.5 1.3c-.1 0-.2.1-.2.1-6.8 2.6-13.7 4.9-20.4 7.7-14 5.7-27.6 12.5-41.2 19.3-15.1 7.2-29.4 15.7-43.8 24.2-21.4 12.3-42.6 25.4-62.3 40.3-9.2 6.9-18.1 14.2-27 21.4-8 6-15.9 11.7-23.6 18.1-4.8 3.6-8.9 8-13.3 12-8.5 7.5-17.1 14.9-25.2 22.8-8.6 8.3-16.5 17.4-24.8 25.9l-27.2 30.5c-4.9 5.1-9.6 10.4-14.4 15.6-3.2 3.1-6.1 6.5-8.9 10-4.8 5.6-9 11.7-13.9 17.1-5.1 6.7-10.1 13.5-15.6 19.8-5.6 7.9-12 15.3-17.5 23.2-7.3 9.3-14.6 18.4-21.4 28-6.7 9.9-12.7 20.3-19.9 29.8-1.5 2.1-2.8 4.4-4.7 6.1-.6.4-1.1.5-1.6.4z"/><path d="M68.1 508.5c-3.2-1-3.9-7-4.5-10-1.6-8.9-1-17.9-.5-26.8.8-13.6 2.7-27.1 5.6-40.3 2.9-12.7 6.6-25.4 12.1-37.2 2.1-4.5 4.5-8.9 6.6-13.4 2.8-5.6 5.7-11.4 11.1-15 .6-.5 1.3-.9 2.1-1.1 1.4 0 1.6 2.2 0 2-6.5 4-9.6 11.3-12.9 17.9-4.8 9.4-9.4 19-12.2 29.1h0 0c-5.7 17.8-8.8 36.3-10.3 54.9-.4 10.8-2.5 28.3 3 37.8 1.3-3 1.5-6.3 2.2-9.5 1-4 2-8.1 3.4-12 5.4-13.7 9.6-27.8 14.6-41.6 4.4-11.6 9.3-23.1 11.9-35.3 2.6-12.8 5-25.8 3.9-38.9-.1-.7-.1-1.3-.1-2a.94.94 0 0 1 1-1 .94.94 0 0 1 1 1c.1.4.1.7.1 1.1 1.2 15.7-1.8 31.4-5.5 46.6-3.6 13-9.5 25.2-13.5 38-2.5 6.9-4.6 13.8-7 20.7-1.8 5.1-4 10.1-5.5 15.2-1.2 4-2.2 8.1-3 12.3-.6 2.2-.7 7.5-3.6 7.5zm-50.6-93.6c-1.4-.5-1.6-2.1-.9-3.3 1.9-4 4.2-7.7 6.9-11.1 8.7-10.6 19.3-19.6 30.3-27.7 8.6-6.6 17.6-12.5 27-17.8 3.9-2.2 8-3.8 12.3-5 3.6-1.1 7.1-2.6 10.9-2.9 2.3-.1 4.5.3 6.7 1 3.2.6-2.7 5.1-3.6 6-6.5 5.2-13.7 9.6-20.2 14.7-10.6 7.1-21.5 13.6-31.9 21-5.2 3.5-10.2 7.4-15.2 11.1-4 3-8.5 5.4-12.6 8.2-1.9 1.2-3.7 2.6-5.4 4.1-1.3.9-2.8 2.1-4.3 1.7zm.7-1.9c2.4-1 4-3.2 6.2-4.5 4.6-3.2 9.6-5.8 14-9.1 7.8-5.9 15.7-11.5 23.8-16.9 5.5-3.4 10.7-7.1 16.1-10.4 4.3-2.6 8.5-5.4 12.4-8.5 6-4.6 12.8-8.2 18.1-13.8-4.7-1.6-9.4.3-13.8 1.8-12.9 3.5-24 11.6-34.8 19-9.7 7.2-19.6 14.3-27.8 23.2-5.7 5.5-11.2 11.8-14.2 19.2h0zM4.6 351.6c-5.1-5.1 13.1-14 16.9-15.7 14.6-5.6 29.2-11.5 44.6-14.5 9.9-1.8 20.1-3.3 30.2-2.7 7.9 0 15.8.4 23.5 2.4 1.8.6 8.7 1.6 8.1 3.8-.2.4-.6.7-1.1.6-.1.2-.3.4-.5.5-2.7 1.2-5.8 2.2-8.4 3.3-6.8 3-13.8 5.4-21 7.2-13.5 3-27.4 3.6-41 5.8-9.7 1.8-19.6 3-29.2 5.6-3.7.9-7.4 1.9-11 2.9-3.5.9-7.7 2.8-11.1.8zm4.3-1.3c7.2-1.4 14.1-3.8 21.2-5.4 13.6-2.7 27.2-5 41-6.7 8.5-.8 17-2 25.4-3.8 9.7-2.3 18.8-6.5 28.1-10-9.6-3.1-19.6-3.8-29.5-3.8-20.4-.7-40.6 4.9-59.6 11.9-7.2 3.2-14.9 5.2-21.5 9.6-3 2.1-7.2 3.9-8.3 7.7.9.8 2.2.6 3.2.5zm-7.5-27.5c-3-1.5-.3-3.7 1.3-5.1 4.7-3.9 10.3-6.6 15.8-9 7.9-4 16.6-6.1 25-8.8 15.3-4.1 31.1-6 46.8-7.8 14-1.1 28.1-2.4 42-.7 5.1.7 10.7.6 15.1 3.3a.94.94 0 0 1 1 1c0 .3-.1.7-.4.9-5.2 2.6-11 4-16.6 5.6a205.29 205.29 0 0 1-31.2 6.3l-29.3 2.6c-7.6.9-15.3 1.2-22.8 2.4-7.5 1-14.8 3-22.2 4.5-5.5 1.1-10.8 2.9-16.2 4.3-2.6.5-5.7 1.8-8.3.5zm3.3-1.5c5.8-.9 11.4-3 17.1-4.4 12.7-2.9 25.3-5.8 38.2-6.9l40.1-3.6a212.44 212.44 0 0 0 45.2-10.7c-4.7-1.7-9.6-1.9-14.5-2.5-6.1-.7-12.2-.9-18.3-.6-10.1.5-20.3 1-30.3 2.3-10.9 1.5-21.8 2.8-32.5 5.4-6.8 1.5-13.5 3.9-20.2 5.9-5 1.7-9.8 4-14.6 6.2-4.6 2.3-9.2 4.7-12.7 8.4.7.5 1.6.6 2.5.5zM24.1 289c-5.1-4.5 23.2-16.1 26.7-17.7 9.8-4.7 20.3-7.3 30.9-9.5 5.1-1.2 10.3-2 15.6-2.3 9.2-1.4 18.6-.5 27.8.1 12.1.9 24.4 1.8 35.8 6.1 2.1.8 4.5 1.1 6.4 2.4.6 0 1 .5.9 1.1 0 .3-.2.6-.4.7-2.2 1.1-4.5 2-6.8 2.7-13.8 4.1-28.3 2.7-42.4 2.9-8.3-.3-16.4.9-24.6 2-13.2 2.2-26.5 4.1-39.6 6.8-7.3 1.5-14.5 2.9-21.9 4.1a44.29 44.29 0 0 1-7.2.9c-.4 0-.8-.1-1.2-.3zm1.6-1.7c11.2-1.1 22.2-3.8 33.3-5.9 15.7-2.7 31.4-5.7 47.3-7.4 19.4-2.1 40.1 2.7 58.6-4.9-4.7-1.4-9.3-3.1-14-4.3-7-1.3-14.1-2.2-21.3-2.8-9.2-.5-18.5-1.6-27.6-.9-7.9.8-15.7 1.5-23.4 3.6-10.9 1.9-21.3 5.8-31.2 10.4-7.6 3.5-15.6 6.5-21.7 12.2h0zM22 257.5c-6.3-.9 4.9-10.1 6.6-11.6 13.8-11.2 30.9-17.6 47.9-22.4 6.2-1.5 12.5-3 18.8-3.9l14.2-1.4c16.1-1.6 32.6.7 47.2 7.9 5.6 2.3 11.5 4.2 16.9 7 5.3 1.9 10.6 4.6 13.2 9.9.4.1.7.3.8.7.1.3 0 .6-.1.8.4.4.4 1 0 1.4s-1 .4-1.4 0c-.2-.1-.3-.3-.3-.6-5.3 2.1-11 1.3-16.4 0-5-1.1-10.1-2.4-15.2-3.3-13.8-2.3-27.9-3.3-41.9-2.9-7 .2-14.1.2-21.1.7-12 1.8-24.2 3.5-35.8 7-6.6 1.9-13.2 4.1-19.5 6.8-4.4 1.8-9 4-13.9 3.9zm1.6-2.1c5.6-.7 10.6-3.5 15.8-5.4 6.9-2.7 14-4.9 21.3-6.7 10-2.7 20.3-4 30.5-5.6 10.3-.6 20.7-.8 31-.8 7 0 13.9.5 20.8 1.5 6.8.6 13.6 1.7 20.3 3.3 7 1.4 14.5 4.3 21.6 1.7-2.5-4.4-7.1-6.6-11.7-8.3-3.9-1.9-7.9-3.5-12-5-4-1.3-7.7-3.3-11.6-4.8-8.3-3-17-5.1-25.8-5.3-22.6-.4-45.1 3.7-66.1 12-12.6 5-27.3 12.4-35.4 23.5h.1c.5 0 .9 0 1.4-.1h-.2zm177.1-34c-15.2-.8-30.1-5.5-44.8-9-4-1-7.9-2-11.9-3.2-3.4-1.2-7.1-2.6-10.7-3-6.1-.9-12.3-1-18.4-1.4-10-.8-20-.7-29.9.5-3.4.1-6.8.4-10.2.2-.7-.1-1.7-.3-2-1.1-.2-1.9 3-3.1 4.3-4 11-5 23.3-6.4 35.2-7.2 8.8-.5 17.5-.9 26.3-.1 10.1.5 20.1 2.1 29.9 4.7 6.9 2 13.4 5 20.1 7.7 5.3 2.5 10.1 6 15 9.4a86.61 86.61 0 0 1 4.7 3.8c.4.3.6.9.5 1.4v-.1c0 2.1-6.4 1.3-8.1 1.4zm3.9-2.1l1.3-.1c-4.9-3.9-10.2-7.5-15.6-10.6-6-3-12.4-5.2-18.6-7.7-15.8-4.9-32.5-6.4-49-6.1-14 .6-28.4 1.2-41.7 6.2-1.8.6-3.5 1.5-5.1 2.6 8.6 0 17.2-1.4 25.9-1.4 10.6.4 21.3.6 31.8 1.9 5.2.6 9.9 3 15 4.2 6.7 1.9 13.5 3.4 20.3 5.2 11.7 2.6 23.6 6.1 35.7 5.8zm17.4-17.6c-10.1-.1-19.6-3.7-29.2-6.5-6.1-1.7-12.1-3.7-18-6.1-6.6-2.3-13.1-5-19.4-8.1l-20.1-7.2c-7-1.9-14.2-3-21.4-3.5-2.7-.1-10.6.6-7.6-4 .6-.6 1.4-1 2.3-1.2 2.3-.7 4.7-1.4 7.1-1.8 5.1-.8 10.2-1.2 15.3-1.1 4.9.2 9.8-.1 14.6.7 4.1.8 8.1 2.3 12.3 2.9 7.4 1.9 14.9 3 22 5.8 7.3 2.6 14.7 4.9 21.3 9.2 4.6 2.6 9.5 4.8 13.5 8.4 3.8 3.3 8.6 6 11.2 10.4.4.1.7.4.8.8.2 1.9-3.5 1.2-4.7 1.3zm1.8-2.1c-3.9-4.4-8.7-7.5-13.1-11.1-4.8-3.2-10-5.6-14.9-8.5-5.3-3-11.2-4.4-16.9-6.6-6.4-2.6-13.1-3.5-19.8-5.2-4.9-.8-9.6-2.4-14.4-3.4-4.5-.6-9-.4-13.5-.6-4.2 0-8.4.2-12.5.7-2.5.3-5 .8-7.4 1.5-1.2.4-2.7.4-3.6 1.4 2.2.6 4.4.3 6.7.5 6.3.4 12.5 1.3 18.6 2.8 6.7 1.5 13 4.7 19.5 6.7 5.9 1.9 11.1 5.2 16.9 7.1 9.1 3.6 18.4 6.9 27.9 9.5 8.6 2.5 17.3 5.6 26.5 5.2h0z"/><path d="M247.2 175.3c-11.4.3-21.6-5-31.7-9.6-5.4-2.5-10.6-5.6-16.3-7.5-4.9-1.9-9.4-4.4-14.4-5.9-7.5-2.2-15.1-3.7-22.6-5.4-3.9-1.1-7.8-2.4-11.6-3.7-2.4-.8-4.6-2-7.1-2.4-1.4-.3-5-1-2.9-2.9 12.3-5.6 30.6-3.1 43.7-1.2 7.5.9 14.6 3.2 21.8 5.3 6.6 2 12.9 4.6 19 7.7 5.3 3 10.2 6.5 14.8 10.5 3.1 3.2 6.9 5.5 9.7 9 1 1.2 4.2 5.1 1.7 5.8-1 .8-2.9.1-4.1.3zm.8-2.1h2.1c-3.1-5.5-8.6-8.6-13-13-4.2-3.1-8.2-6.4-12.8-8.8-8.2-4.2-16.8-7.4-25.8-9.7-14.6-4.3-40.6-7.8-55-3.2 7 1.9 13.8 5.1 20.9 6.7 10.1 2.3 20.5 4 29.8 8.6 4.3 2 8.8 3.4 13.1 5.5 5.5 3 11.1 5.5 16.8 8.1 7.6 3.4 15.6 6.1 23.9 5.8h0zm21.6-22c-5.4-.4-10.5-2.4-15.7-4-9.8-3-18.8-8.2-28.6-11.3-9.9-2.7-19.6-6.1-29.7-7.9-8.5-1-17-2.2-25.5-2.7-6.6-.1-13.1.6-19.7.8-2.8 0-5.4.9-8.2.2-.9-.2-1.5-1-1.4-2 .1-.5.4-.9.9-1.2 1-.7 2-1.3 3.1-1.7 13.9-6.2 29.4-6.8 44.4-6.3 10.3.6 20.6 1.6 30.5 4.3 7.1 1.8 13.9 4.4 20.8 6.7 3.5 1.1 7 2.4 10.4 3.9 5.2 2.4 10.4 4.9 15.4 7.8s9.4 6.3 12 11.5c.5.2.8.7.7 1.2-.2.5-.7.8-1.2.7-.2 0-.3-.1-.5-.3-2.5.4-5.1.5-7.7.3zm5.5-2l1-.1c-3.6-6.3-10.4-9.6-16.7-12.7-5.6-2.9-11.3-5.8-17.3-7.6-8.6-2.8-17.1-6.1-25.9-8-9.2-2.2-18.8-3-28.2-3.5-15-.3-31 .2-44.5 7.4 11.9-.4 23.9-2.2 35.8-.5l17 2c8.5 1.5 16.6 4.3 24.9 6.5 13.1 3.4 24.8 10.6 37.8 14.1 5.3 1.7 10.7 3.1 16.3 2.4h-.2zm24.6-21.3c-10.4 0-20.6-2.4-30.5-5.4-6.3-1.8-12.7-3.3-18.8-5.7-10.5-3.3-20.4-8.3-30.5-12.5-6.4-2.2-12.5-4.8-18.8-7.1-16.8-5.8-34.8-5.3-52.2-3.8-1.9 0-4 .1-5.7-.9-.9-.7-1.2-1.9-.8-3s1.7-1.2 2.7-1.5c38-9.2 77.8-1.4 113.9 11.8 10 3.5 20.2 6.8 29.7 11.5 6.6 3.3 13.1 7.4 16.9 13.9.5-.2 1 .1 1.2.5.8 2.5-5.6 2.2-7.1 2.2zm3.4-2.1l.6-.1c-5.5-8.6-15.2-12.6-24.2-16.4a577.74 577.74 0 0 0-25.1-9c-34.9-12.5-73.6-19.4-110.1-10-.3 1.1 2.7.9 3.4 1 4.6-.1 9.1-.8 13.7-.9 10-.3 20.1-.2 29.9 1.9 8.1 1.5 15.7 5 23.4 7.9 9.9 3.2 18.9 8.3 28.6 11.8 8.5 3.3 17.1 6 25.9 8.3 11 3.3 22.4 5.9 34 5.3l-.1.2zm17.2-14.4c-7.1.2-14-1.1-20.8-2.8-6.3-2-12.1-5.4-18.1-8-16.7-8.1-33-17.5-51.1-22.2-9.3-3-18.8-5.3-28.3-7.7-6.6-1.6-13.2-2.9-19.6-5.2-4.8-1.8-10.2-1.4-14.8-3.7-2-1.4-.9-3 1.3-3.2 14.9-2.7 30.1-1.1 45 1 9.2 1.2 18 4.1 26.9 6.7 6.9 2.1 13.9 4.1 20.7 6.7 6.3 2.5 12.8 4.5 19 7.3 4.6 2.2 9.1 4.4 13.5 6.8 7.9 4 16 7.6 23.2 12.7 3.9 2.4 7.5 5.9 8.3 10.6-.2 1.9-3.8.8-5.2 1zm-.4-2.1l2.4.1h.9c-1.6-5.1-6.5-7.6-10.6-10.3-3.3-2.1-6.6-4-10.1-5.6-7.8-3.7-15.4-7.9-23.2-11.6-19.1-7.8-38.7-14.2-58.7-19.1-16.7-3-34.2-5.1-51.1-2.3 3.7 1.3 7.6 1.3 11.3 2.5 4.1 1.1 8 2.7 12.1 3.6 12.4 2.9 24.8 6 37 9.7 6.5 2 13.1 3.7 19.3 6.7 11.8 5.1 23.2 11.3 34.8 16.8 5.1 2.2 10 5.1 15.2 6.8 6.9 1.5 13.8 2.9 20.7 2.7h0zm23.2-15.2c-6.2-.5-12.3-1.8-18.3-3.7-7.7-2.7-15-6.5-22.3-10l-17.7-9.1c-6.2-3.1-12.7-5.7-19.4-7.7-11.5-4.2-23.6-6.4-35.3-10.2-2.5-1.3-13.4-2.7-11.3-6.5 5.7-5.5 21.8-3.8 29.4-2.8a125.58 125.58 0 0 1 24.2 5.1c9.3 3.1 18.2 7.2 27.2 11.1 8.7 4 17.3 8.3 25.8 12.9 6.2 3.3 12.4 7 17 12.4 1.7 2.1 3.9 4.1 4.6 6.8.2.2.4.5.4.8 0 1.9-3 .8-4.3.9zm-1.1-2.3l2.5.3h.5c-4.9-7.8-12.6-13-20.7-17.1-7.4-3.9-14.8-7.7-22.3-11.2-17.2-7.9-34.7-15.7-53.8-17.4-7.9-1-20.2-2.4-27.2 1.6 2.6 1.7 5.8 1.8 8.6 3.1 7.9 2.6 16 4.5 24 6.7 9.1 2.5 18 5.5 26.8 9.1 10.1 4.8 19.9 10.3 29.9 15.1 4.1 1.7 7.9 3.9 12.1 5.4 6.3 2.2 12.9 3.8 19.6 4.4zM126.2 455.3c-2.8-1.1-2.6-6.5-3.2-9.1-.6-4.8-.9-9.3-1.5-14-1.3-8.2-3.2-16.3-4.7-24.5-1.5-7.4-2.6-15.1-4.5-22.4-1.6-6-2.3-12.2-2.1-18.4.1-2 .5-13.4 3.5-11.8 9.8 9.3 15.9 22.1 18.3 35.3 2 9.1 3 18.4 3 27.8.3 7.1-.2 14.2-1.4 21.2-.6 4-2.5 15.7-7.4 15.9zm.4-2c3.6-3.7 4-9.3 5-14.1 1.4-8.4 1.8-17 1.2-25.5-.2-8.5-1.4-17-3.4-25.3-2.3-11.5-7.9-22.1-16-30.6-1.7 5.8-1.3 12-.9 18 1.1 8.6 3.9 16.7 5 25.2 1.8 10.6 4.3 21 6 31.6.6 4.7.9 9.5 1.6 14.2.5 2.1.5 4.5 1.5 6.5h0zm24.7-19c-3-1-3.1-7.9-3.9-10.6-1.9-8.5-4.1-16.9-6.6-25.2-5-17.2-12.1-34.4-11.6-52.6.5-6-.3-12.5 2.1-18.1-.1-.5.3-1.1.8-1.1.2 0 .5 0 .7.1.9.6 1.8 1.4 2.6 2.2 4.6 5.3 7.1 11.9 9.1 18.5 1.9 5.5 3.3 11.2 4.3 16.9 2.1 11.8 3.1 23.8 5.1 35.6 1.1 5.3 1.6 10.7 1.3 16.2 0 4.4.3 8.9-.9 13.2-.6 1.6-1 4.8-3 4.9zm.1-2.4c2.2-5 1.8-10.5 1.8-15.8.6-9.6-2.1-19-3.1-28.5-1.8-14.1-3.3-28.4-8.2-41.9-2-6-4.4-12.2-9.1-16.5-.9 3.4-1.3 6.9-1.3 10.4-.4 6.7-.5 13.4.8 19.9 1.7 12 6.1 23.3 9.4 34.8 2.5 7.7 4.5 15.8 6.5 23.6 1.2 4.6 1.4 9.6 3.2 14zm34.4 9.7c-2.2-6.3-4.5-12.8-6.3-19.2-2.6-9.5-4.9-19.1-7.2-28.7-2.1-8.7-5.3-17-7.9-25.5-3.5-11.9-7.5-23.7-10.5-35.8a65.87 65.87 0 0 1-2.7-17.6c-.2-4 0-8.1.4-12.1.1-.7.1-1.5.7-1.9 1.2-2.1 4.6 2 5.7 2.9 2.1 1.9 3.5 4.3 5.1 6.6 13.9 21.7 17.6 47.9 22.4 72.7 1.6 10.9 3.6 21.9 4.5 32.9 0 5.2-.5 10.5-.9 15.6-.3 1.9.2 12.6-3.3 10.1zm-5.2-22.9c1.7 6.6 4 12.9 6.1 19.3.6-7.3 1.3-14.7 1.5-22-1.1-12.3-3.3-24.5-5.2-36.7-3.2-16.1-5.8-32.4-11.6-47.7-2.3-6.8-5.4-13.4-9.2-19.5-2.4-3.6-4.9-7.2-8.5-9.8-2.9 20.1 5.1 39.2 10.5 58.1 2.4 8.5 5.4 16.8 8.1 25.3 3.1 10.9 5.3 22.1 8.3 33z"/><path d="M199.8 408.3c-2.5-2.1-1.6-16.3-1.9-20.3-.3-12.2-1.5-24.4-3.5-36.5-2.4-12-5.8-23.8-10.1-35.2l-8.8-19.7c-2.3-5.3-4.4-10.7-4-16.6 0-1.8.2-3.7.7-5.5a.78.78 0 0 1 .4-.4c.8-2.8 5.9 1.2 7.3 2 9.1 5.9 14.6 15.9 17.5 26.2 2 6.1 3.5 12.3 4.4 18.5a319.93 319.93 0 0 1 4.8 47.8c-.2 9.1 1 18.5-1.3 27.4-.7 2.3-2.4 14-5.5 12.3zm.8-2.8a81.89 81.89 0 0 0 3.9-16.8c.4-3.9.1-7.8.1-11.8.2-12.3-.9-24.7-2-36.9-1.6-11.8-3.1-23.9-6.7-35.2-3.1-12.2-10-24.6-22-29.6-2.2 10 2.6 19.1 6.8 27.9 3 7 6.1 13.9 8.5 21.2 4.4 13.5 7.9 27.4 9.2 41.6.4 6.4 1.2 12.6 1.4 18.9.3 6.8 0 13.9.8 20.7h0zm15.2-28.4c-.9-.9-.8-2.3-.8-3.4l.5-6.6c.7-6.4.7-12.9.1-19.3-1.8-15.8-4-31.6-8.4-46.9-2.6-9.3-6.5-18.2-10.3-27-2.4-4.9-4.4-10.1-4.9-15.6-.2-3-.9-6.4.1-9.2.2-1.5 2.2-.9 3.2-.9 3.6-.1 6.6 2.3 9.2 4.5 7.8 7 12.4 16.7 15.8 26.5 2.8 7.1 4.6 14.5 5.5 22.1 1.3 10.6 1 21.4.9 32-.1 7.9-.3 15.9-1.8 23.7-.9 5.1-3 9.6-4.8 14.3-.7 1.8-1.4 7.8-4.3 5.8zm1.2-2.4c1.7-5.6 4.4-10.9 5.7-16.6 1.4-6.1 1.7-12.5 2-18.8.2-14.1.8-28.4-1.5-42.4-1.1-7.1-3.4-13.9-6-20.6-2.5-6.5-5.5-12.9-10.1-18.2-2.7-3.4-5.9-6.5-10-8-1.1-.1-2.2-.2-3.3-.2h0c-.1.1-.1.2-.2.2-.7 8.7 1.9 17 5.8 24.7 3.1 7.6 6.5 15.1 8.9 23 4.8 15.8 7.2 32.2 9.1 48.6 1.3 9.5.1 18.9-.4 28.3h0zm18.6-45.1c-1.2-.7-.8-2.2-.9-3.4l.1-9.7c0-10.4-.7-20.8-3.1-31h0v.1c-1.6-7-3.6-14-6-20.8-1.6-5-2.6-10.1-4.6-14.9h0v.1c-1.5-3.4-2.7-6.8-3.6-10.4-.7-3.6-1.1-7.2-1.8-10.8-.3-1.3-.4-2.7-.4-4 .6-2.1 3.6-.6 4.9-.1 14.8 7.5 22.5 24.3 26.7 39.6 2.3 8.7 2.7 17.6 2.3 26.6-.2 9.2-2.5 18.1-5.9 26.6-1.1 3-3.5 13.3-7.7 12.1zm.2-31.2c1.1 9.7.9 19.4.8 29.2 3.8-4.6 4.5-11 6.8-16.4 2.5-6.7 3.5-13.8 3.8-20.9 0-4.6.2-9.2-.1-13.7-.7-5.9-1.9-11.6-3.8-17.3-3-8.6-6.8-16.8-12.8-23.7-3.7-4.1-7.9-8.2-13.3-9.7.7 4.8 1.5 9.7 2.4 14.4 1 3.5 2.3 6.8 3.7 10.2 1.7 4.2 2.6 8.7 3.9 13 2.5 7.2 4.6 14.4 6.3 21.8v-.1c1.1 4.3 1.9 8.7 2.3 13.2h0zm22 41.3c-1.5-3.8-1.3-8.2-1.4-12.2 0-4.4-.1-8.8-.3-13.2-.3-10.1-1-20.2-1.9-30.3-.6-6.1-1.9-12.2-2.9-18.2-2.2-11.6-5.3-23.1-9.3-34.2-2.4-5.2-4.4-10.7-6-16.2-.9-3.6-2.5-7.4-1.8-11a.97.97 0 0 1 .1-1.4c.2-.2.4-.2.7-.2 1.7.3 3.4.7 5 1.4 2.5 1 4.9 2.3 7 3.9 11.3 7.7 15.6 17.8 18.5 30.7 5.4 18.9 6.4 38.8 4.6 58.3-.5 8.6-1.4 17.3-3.7 25.6-1.1 4.2-2.5 8.4-4.1 12.5-.7 1.7-2.2 7.7-4.5 4.5zm1.4-1.7c5.5-13.2 8.5-27.2 9-41.4 1.5-17.5.9-35.5-3.4-52.6-2-7.1-3.2-14.6-6.8-21.1-4.8-8.2-12.6-15.4-21.9-17.9 0 .1-.1.2-.2.3 0 4.3 1.6 8.4 2.8 12.4 1.4 5.1 3.6 9.6 5.5 14.5a253.17 253.17 0 0 1 7.3 25.4c1.9 8.6 3.4 17.3 4.5 26 .8 8.7 1.3 17.4 1.8 26.1l.5 17.6a47.86 47.86 0 0 0 .9 10.7h0zm24.5-31c-.7-.8-1.1-1.7-1.2-2.8-.5-2.6-.7-5.3-.6-8l-.1-16.3c-.3-11.3-1.5-22.5-3.7-33.5-2.5-10.7-5.1-21.5-9.1-31.7-3.2-9.8-9.2-18.5-11.6-28.6-.5-1.8-1.4-9.2 1.6-8.1 1-2.3 3.8 1.1 4.8 2 2.3 2.1 4.9 4.1 7 6.4 4.9 6.3 9.5 13.3 11.9 21 4 13 5.2 26.8 6.1 40.3.6 11.1 2 22.2 1.1 33.3-.5 5.6-1.8 11-2.4 16.5-.6 2.2-.5 11.1-3.8 9.5zm.8-3c.8-3.9 1.1-8 1.7-11.9.9-4.8 1.6-9.6 1.9-14.5.3-11.4-1-22.7-1.6-34-1-13.7-2.4-27.7-7.6-40.6-3-5.6-6.2-11.3-10.5-16.1-2-2-4.2-3.8-6.3-5.7-.8-.9-1.7-1.6-2.7-2.1-.1.2-.2.4-.4.6-1.2 8 4.5 17.4 7.8 24.4 2.9 6.7 5.5 13.6 7.8 20.6 3.7 12.9 7.1 26.1 8.2 39.4.9 8.2 1.2 16.5 1.1 24.7 0 5.1-.3 10.2.6 15.2zm26.1-25c-1.1-2.2-.9-5-1.1-7.4-.1-5.3-.3-10.7-.8-16-1.4-10.4-3.4-20.6-6-30.8v.1h0c-1.8-7.8-4.7-15.2-6.9-22.9s-4.6-15.4-7.5-22.9c-2.8-7.4-5.9-14.9-5.9-22.9-.1-.5.2-.9.7-1.1.4-3.4 7.6 3.2 8.9 4 9.6 7.6 15.6 18.3 19.2 29.9 3.2 9.2 5.3 18.8 6.2 28.6 1.2 18.2 4 37.7-2.3 55.2-.9 1.8-1.8 8.2-4.5 6.2zm1.2-2.8c7-16.6 5.2-35 4-52.5-.8-13.1-3.5-26.1-8.2-38.4-2.8-7.3-6.4-14.2-11.9-19.7-3.5-3.3-7.1-6.9-11.4-9.1 0 7.2 2.7 14 5.2 20.7 3 7.5 5.3 15.3 7.7 23 2.1 7.6 5 15 6.9 22.7 2.2 8.7 4.1 17.4 5.5 26.3 1.9 8.8 1.4 18 2.2 27h0zm26-17.7c-3.3-.4-4-22.3-4.4-26-.7-11.1-2.4-22.1-4.9-32.9-3.4-12.2-7.3-24.4-11.9-36.2-3.9-10-8.7-20.6-7.7-31.6a.97.97 0 0 1-.1-1.4c.2-.3.6-.4 1-.4 3.7 1 7.1 2.9 10 5.5 15.5 15.4 17.2 38.6 19.2 59.3 1 14.4 1.4 28.9 2 43.3 0 4.4-.4 8.8-.6 13.2-.5 1.8-.5 7.2-2.6 7.2zm-.9-8.3c.2.9.3 1.8.5 2.8l.3 1.8c1.1-9.8 1.2-19.7.4-29.6l-1-24.1c-1.5-17.7-2.7-41.1-12.7-56-3.3-5.4-7.7-10.6-13.9-12.7-.5 10.9 4.2 21.1 8.1 31 3 7.7 5.6 15.4 8 23.3 4.3 12.5 6.6 25.7 8.1 38.9.9 8.3.9 16.5 2.2 24.6h0zm30-19.9c-1.1-.2-1.3-1.5-1.5-2.4-.8-3.5-1.4-7-1.9-10.5-1.7-11.1-4.6-22-8.6-32.6a1121.61 1121.61 0 0 0-20-46.5c-1.1-3.1-2.4-6-3.9-8.9-1.3-2-5.3-10.2-2.7-11.7.1-3.9 7.1 3.5 8.1 4.4a142.5 142.5 0 0 1 11 13.4c14.1 18.1 20.4 40.7 23.2 63.1.5 4.8.6 9.6.3 14.4-.4 4.9-1.8 9.7-2.4 14.6-.2 1.1-.2 2.8-1.6 2.7zm-3-21.2c1.1 5.4 1.9 10.9 3 16.4.6-5 2.2-10 2.2-15 .5-11.6-2.1-23.2-4.7-34.4v.1c-3.4-14.2-9.8-27.6-18.6-39.3-4.8-6.5-9.8-13.2-16.4-17.9-.2 3.4 1.5 6.6 3.1 9.5 1.3 2.3 2.4 4.7 3.3 7.2l18 41.8c4.6 10 8 20.7 10.1 31.6z"/><path d="M392 202.2c-1.8-1.1-1.9-3.6-2.5-5.4l-1.5-6.4c-2.3-10.1-5.8-19.9-10.4-29.2-6.8-16.8-16.2-32.5-24.2-48.8-1.6-4.2-2.3-8.7-2-13.1.1-.9.1-2.1 1-2.4.4-.1.8 0 1.1.4.4.6-.2 1.2-.2 1.8.3 0 .5 0 .7.2 1.6 1.2 3.3 2.4 5 3.4 5.6 3.5 9.7 8.7 13.3 14.1 8 12.2 11.8 26.2 15.5 40.2l4.1 16.4c1 4.4 2.8 8.6 3.1 13.1 0 3.4 1.9 15.9-3 15.7zm.5-2.4c1-2.2.9-4.5.8-6.9-.2-3.3.1-6.7-.8-10-2.3-8.1-4.2-16.3-6.3-24.3-4.1-15.7-8.5-31.8-18.5-44.8-1.9-2.6-4-4.9-6.5-7-2.5-2-5.4-3.6-8-5.6-.3 8.1 4.1 14.8 7.8 21.7 3.5 6.3 6.5 12.8 9.9 19.2 3.4 6 5.9 12.5 8.7 18.8a142.51 142.51 0 0 1 7.7 19c2.1 6.6 3.1 13.4 5.2 19.9h0zm13.3-15.1c-.8-1.9-.2-4.1-.2-6.1.3-4.6.4-9.2.4-13.8-.2-15.9-3.1-31.7-8.5-46.7-3.5-9.8-9.3-18.5-14.9-27.2l-3.8-5.5c-.7-1.1-2.1-2.1-2.2-3.4 0-.2.2-.4.3-.6.1-1.4 1.7-.9 2.6-.7 7.9 1.8 13.5 8.8 17.9 15.2 6.4 9.1 11 19.3 13.5 30.1 2.1 11.4 2.9 23 2.2 34.5-.2 5.5-.1 11.2-1.7 16.4-.6 1.7-3.5 10.5-5.6 7.8zm1.5-3c3.7-6.7 3.5-14.4 3.7-21.9a161.91 161.91 0 0 0-.3-19.7c-.6-4.9-1.1-9.8-2.1-14.6-2.4-8.8-5.6-17.5-10.8-25.1-4.7-7.1-10.1-15.4-18.8-17.7 7.1 9.4 13.2 19.4 18.3 30 9.2 21.7 11.8 45.7 10 69h0zm15.6-2.9c-1.6-.4-1.6-2.3-1.5-3.7l.7-8.8c.5-6.1 1.3-12.2 1.6-18.3.1-5.2-.1-10.3-.3-15.5-1.1-11.3-3.2-22.5-6.4-33.4-1.5-5.6-2.6-11.5-5.3-16.7-3.1-5.3-5.2-11.4-4.4-17.6.1-.9 0-2.3 1.1-2.6 1-2.3 6.1 3 7.1 4 7.6 7.2 12.7 16.5 14.8 26.7 2.4 10.1 3.6 20.5 3.5 30.8-.1 14.8-.1 29.7-4.2 44.1-1.1 3.1-3.1 10.8-6.7 11zm.4-2.2c3.3-3.9 4.1-9.3 5.4-14.1 2.3-10.5 2.9-21.1 2.9-31.8.4-9.6-.1-19.2-1.7-28.7-1.3-7.5-2.8-15.1-6.4-21.8l.1.1C420 74 415.3 68 409.3 63.9c-1.5 8.9 2.8 14.3 6 21.9 2.7 8.3 4.7 16.7 6.7 25.1 1.1 6.1 2.3 12.3 3 18.5.6 6 .6 12 .6 18-.3 9.8-1.9 19.5-2.3 29.2zm17.3-4.4c-.7-.5-.4-1.4-.2-2l1-6.2c1.4-7.3 2.3-14.6 3-21.9 2-20.5.8-41.3-1.9-61.7-.8-4.7-.9-9.6-2.7-14.1-1.7-4.2-8-15.5-5.3-19.3.7-1.2 2-.1 2.9.2a26.73 26.73 0 0 1 7.7 5.6c4.7 4.7 7 11 9.3 17.1 4.2 11.4 5.6 23.5 5.9 35.5 0 6.8-.5 13.6-1.5 20.3-.8 11.6-3.1 23.2-8.5 33.6-1.2 2.3-7.1 14.3-9.7 12.9zm2.2-4.6l-.1.8c5.4-8 9.3-16.9 11.7-26.2 1.7-6.5 1.7-13.2 2.7-19.8 2.3-18.1 1.1-37.1-5.6-54.2-3-8.3-7.4-15.8-15.8-19.4.2 8.2 6.4 14.8 7.5 22.8 3.1 19.5 4.5 39.2 4 59-.7 12.3-2.1 24.7-4.4 37h0z"/></g><g fill="#308d8a"><path d="M188.2 416c-.2 7.3-.9 14.7-1.5 22-2.1-6.4-4.5-12.8-6.1-19.3-3-10.9-5.2-22.1-8.3-33l-8.1-25.3c-5.4-18.9-13.4-38-10.5-58.1 3.6 2.6 6.1 6.1 8.5 9.8 3.9 6.1 6.9 12.6 9.2 19.5 5.8 15.4 8.4 31.6 11.6 47.7 1.9 12.2 4.1 24.4 5.2 36.7zm-38.1-28.4c1 9.5 3.7 18.8 3.1 28.5 0 5.3.4 10.8-1.8 15.8-1.8-4.4-1.9-9.4-3.3-13.9-2-7.8-4-15.9-6.5-23.6-3.4-11.5-7.7-22.9-9.4-34.8-1.3-6.6-1.2-13.3-.8-19.9 0-3.5.4-7 1.3-10.4 4.8 4.3 7.1 10.6 9.1 16.5 4.9 13.4 6.5 27.7 8.3 41.8zm-17.2 26c.6 8.5.2 17.1-1.2 25.5-.9 4.9-1.4 10.4-5 14.1h0c-1.1-2-1.1-4.4-1.5-6.6l-1.6-14.2c-1.6-10.6-4.1-21-6-31.6-1.1-8.5-3.9-16.6-5-25.2-.4-5.9-.8-12.2.9-18 8.1 8.5 13.7 19.1 16 30.6 2 8.4 3.1 16.9 3.4 25.4zm-28.6-44.3c1 13-1.4 25.9-4 38.7-2.6 12.2-7.6 23.7-11.9 35.3-5 13.8-9.2 27.9-14.6 41.6-1.3 3.9-2.4 8-3.4 12-.7 3.2-1 6.5-2.2 9.5-5.5-9.5-3.4-27-3-37.8 1.6-18.5 4.6-37.1 10.3-54.9 2.8-10.1 7.5-19.7 12.2-29.1 3-6.2 6-13.1 11.8-17.2-1.4 3-2.6 6.1-3.7 9.3-.2.6-.2 1.5.5 1.8.5.1 1 0 1.4-.4 1.9-1.8 3.2-4 4.7-6.1.6-1 1.3-1.8 1.9-2.7zM95 351.4c4.4-1.4 9.1-3.4 13.8-1.8-5.2 5.5-12.1 9.2-18.1 13.8-4 3.1-8.1 6-12.4 8.6-5.4 3.3-10.7 7-16.1 10.4-8.1 5.4-15.9 11.1-23.8 16.9-4.5 3.3-9.5 5.9-14 9.1-2.2 1.3-3.8 3.5-6.2 4.5 3-7.4 8.5-13.7 14.2-19.3 8.2-8.9 18.1-16 27.8-23.2 10.8-7.4 21.9-15.5 34.8-19zm29.6-26.9c-9.3 3.5-18.3 7.7-28.1 10-8.4 1.7-16.9 3-25.4 3.8-13.7 1.7-27.4 4-41 6.7-7.2 1.6-14 4-21.2 5.4-1.1 0-2.4.3-3.2-.5 1.1-3.8 5.3-5.5 8.3-7.7 6.6-4.4 14.3-6.4 21.5-9.6 19-7 39.2-12.5 59.6-11.9 10 0 19.9.7 29.5 3.8zm6.1-31.2c4.9.6 9.8.7 14.5 2.5-14.7 5.2-29.8 8.8-45.3 10.7-13.4 1-26.7 2.5-40.1 3.6-13 1-25.5 4-38.2 6.8-5.7 1.4-11.2 3.5-17.1 4.4-.8.2-1.7 0-2.5-.4 3.5-3.7 8.1-6.1 12.7-8.4 4.8-2.2 9.6-4.5 14.6-6.2 6.7-2 13.4-4.4 20.2-5.9 10.7-2.6 21.6-3.9 32.5-5.4 10-1.4 20.2-1.8 30.3-2.3 6.2-.3 12.3-.1 18.4.6zm20.1-28.6c4.7 1.2 9.3 2.9 14 4.3-18.6 7.6-39.2 2.9-58.6 4.9-15.8 1.8-31.6 4.7-47.3 7.4-11.1 2.1-22 4.8-33.3 5.9 6.2-5.7 14.2-8.7 21.6-12.2 10-4.7 20.3-8.5 31.3-10.4 7.7-2.1 15.5-2.8 23.4-3.6 9.2-.7 18.5.4 27.6.9 7.1.6 14.2 1.5 21.3 2.8zm34.1-21.4c-7.1 2.6-14.6-.3-21.6-1.7-6.7-1.6-13.5-2.7-20.3-3.3-6.9-.8-13.8-1.6-20.8-1.4-10.3 0-20.7.2-31 .8-10.2 1.6-20.5 2.8-30.5 5.6-7.2 1.8-14.3 4.1-21.3 6.7-5.2 1.9-10.2 4.8-15.8 5.4-.4 0-.8.1-1.2.1h-.1c8.1-11.2 22.7-18.6 35.4-23.6 21-8.4 43.5-12.5 66.1-12.1 8.8.2 17.5 2.4 25.8 5.3 3.9 1.6 7.6 3.5 11.6 4.8 4.1 1.5 8.1 3.1 12 5 4.5 1.8 9.2 4 11.7 8.4zm21.1-24.1l-1.3.1c-12.1.3-24.1-3.2-35.9-5.8l-20.3-5.2c-5.1-1.2-9.7-3.6-15-4.2-10.5-1.3-21.2-1.5-31.8-1.9-8.7-.1-17.2 1.4-25.9 1.4 1.6-1.1 3.3-1.9 5.1-2.6 13.3-5 27.7-5.6 41.7-6.2 16.4-.4 33.2 1.1 49 6.1 6.2 2.5 12.6 4.7 18.6 7.7 5.6 3.2 10.9 6.7 15.8 10.6zm17.7-19.6c-9.1.4-17.8-2.7-26.4-5.1-9.4-2.6-18.7-6-27.9-9.5-5.8-1.9-11.1-5.2-16.9-7.1-6.6-2-12.8-5.2-19.5-6.7-6.1-1.5-12.3-2.4-18.6-2.8-2.2-.2-4.5.2-6.7-.5.8-1 2.4-1 3.6-1.4 2.4-.8 4.9-1.3 7.4-1.5 4.1-.5 8.3-.8 12.5-.7 4.5.2 9 0 13.5.6 4.8 1 9.5 2.6 14.4 3.4 6.6 1.7 13.3 2.7 19.8 5.2 5.6 2.2 11.6 3.7 16.9 6.6 4.9 2.9 10.2 5.3 14.9 8.5 4.4 3.5 9.2 6.6 13 11zm26.4-26.4H248c-8.4.3-16.4-2.4-23.9-5.9-5.7-2.6-11.3-5.1-16.8-8.1-4.3-2.1-8.8-3.4-13.1-5.5-9.3-4.6-19.8-6.3-29.8-8.6-7.1-1.6-13.9-4.8-20.9-6.7 14.5-4.6 40.4-1.1 55 3.2 8.9 2.2 17.6 5.5 25.8 9.7 4.6 2.5 8.7 5.7 12.8 8.8 4.4 4.5 9.9 7.6 13 13.1zm26-24.2l-1 .1h.1c-5.6.7-11-.7-16.3-2.4-13-3.5-24.7-10.8-37.8-14.1-8.3-2.2-16.5-5.1-24.9-6.6-5.6-.8-11.3-1.3-17-2-11.9-1.7-23.9.1-35.8.5 13.5-7.2 29.5-7.7 44.5-7.4 9.5.5 19 1.3 28.2 3.5 8.8 1.9 17.3 5.2 25.9 8 6.1 1.9 11.7 4.7 17.3 7.6 6.3 3.2 13.1 6.5 16.8 12.8zm27.6-23.3l-.5.1c-11.5.5-22.9-2.1-33.9-5.3-8.8-2.3-17.4-5-25.9-8.3-9.7-3.5-18.8-8.7-28.6-11.8-7.7-2.9-15.2-6.4-23.4-7.9-9.8-2.1-19.9-2.2-29.9-1.9-4.6 0-9.1.8-13.7.9-.7-.1-3.7.1-3.4-1 36.5-9.4 75.2-2.5 110.1 10a577.74 577.74 0 0 1 25.1 9c8.8 3.6 18.6 7.6 24.1 16.2zm19.6-16.3h-.9l-2.4-.1c-7 .2-13.8-1.2-20.5-2.9-5.2-1.7-10.2-4.6-15.2-6.8-11.6-5.5-23-11.7-34.8-16.8-6.2-2.9-12.8-4.6-19.3-6.7-12.2-3.8-24.6-6.8-37-9.7-4.1-.8-8.1-2.4-12.1-3.6-3.7-1.2-7.6-1.1-11.3-2.4 16.9-2.8 34.3-.7 51.1 2.3a406.65 406.65 0 0 1 58.7 19.2c7.8 3.7 15.4 7.8 23.2 11.6 3.5 1.7 6.9 3.6 10.1 5.6 3.9 2.7 8.8 5.2 10.4 10.3z"/><path d="M344.9 92.1h-.5l-2.4-.3c-6.7-.6-13.3-2.2-19.6-4.6-4.2-1.5-8-3.7-12.1-5.4-10.1-4.8-19.9-10.3-30-15.1-8.7-3.5-17.7-6.6-26.8-9.1-8-2.2-16.1-4.1-24-6.7-2.8-1.3-6.1-1.3-8.6-3.1 7-4 19.3-2.5 27.2-1.6 19 1.8 36.6 9.5 53.8 17.4 7.5 3.5 15 7.3 22.3 11.2 8.1 4.3 15.8 9.5 20.7 17.3zm102.4-62.5h16.4c-16.3 7.9-32 16.9-47.7 26.1-20.2 11.7-40.2 23.8-58.9 37.8l-4.4 3.2h-.3a1.21 1.21 0 0 0-.7.7h0c-9.6 7.3-18.9 15.1-28.5 22.5-4.5 3.2-9 6.6-13.4 10.1l-.3-.1c-.5-.1-1.1.2-1.2.8v.5l-2.1 1.7c-5.6 4.4-10.9 9-15.9 14-9.5 8.3-19 16.6-28 25.5-16.7 16.8-32.1 34.7-47.9 52.3L193 247.9c-.5.1-.9.5-1 1 0 .1-.1.2-.1.3-4.2 4.8-8.2 9.8-12.1 15-4.9 5.5-9.1 11.4-13.6 17.3-4.4 5.1-8.6 10.4-12.5 15.9-5.1 6-9.6 12.6-14.4 18.9-5.2 6.5-10.5 12.9-15.2 19.8-6.1 7.8-11 16.5-16.4 24.8l-8.8 12.4c4.2-10.5 10.3-20 16.3-29.5l12.3-18.6c.1-.1.2-.2.3-.4h0c3.5-5.1 7.1-10.2 10.9-15.2 4-4.8 7.3-10.1 10.9-15.2l12-16.1c6.9-9.2 14.5-17.8 21.6-27 7.6-10.5 15.8-20.6 24.4-30.3.7-.2 1.2-.6 1.2-1.1v.1-.3c5.6-6.2 11.3-12.2 17.2-18.1 10.8-12.9 23.2-24.4 35.6-35.8 5.3-5 10.8-10 16.3-14.8.5 0 1-.4 1-.9 11.9-10.4 24.2-20.4 36.7-30.2 14.4-12.2 29.5-23.6 44.4-35.1 10-7.2 20.4-13.9 30.4-21.1 16.6-11 34.1-20.8 51.2-31 2.1-1 3.9-2 5.7-3.1zm4.3 38.5c6.6 17.1 7.8 36.1 5.6 54.2-1 6.6-1 13.4-2.7 19.8-2.4 9.4-6.3 18.2-11.7 26.2l.1-.8c2.2-12.3 3.7-24.7 4.4-37.2.5-19.7-.9-39.5-4-58.9-1.1-8-7.3-14.6-7.5-22.8 8.4 3.7 12.8 11.2 15.8 19.5zM429.9 102c1.5 9.5 2.1 19.1 1.7 28.7 0 10.7-.5 21.3-2.9 31.8-1.2 4.8-2.1 10.2-5.4 14.1.4-9.8 2-19.4 2.3-29.2 0-6 0-12-.6-18-.8-6.2-1.9-12.3-3-18.5-2-8.4-4-16.9-6.7-25.2-3.2-7.6-7.5-13-6-21.9 6 4.1 10.7 10 14.2 16.3 3.6 6.8 5.1 14.4 6.4 21.9zm-19.1 38.1a161.91 161.91 0 0 1 .3 19.7c-.2 7.4-.1 15.1-3.7 21.9 1.7-23.3-.9-47.2-10-68.9-5.1-10.6-11.3-20.6-18.3-30 8.8 2.2 14.1 10.6 18.8 17.7 5.2 7.6 8.4 16.3 10.8 25.1 1 4.8 1.5 9.6 2.1 14.5zM393.3 193c.1 2.3.2 4.7-.8 6.9-2.1-6.5-3.1-13.3-5.2-19.8a142.51 142.51 0 0 0-7.7-19c-2.8-6.3-5.3-12.8-8.7-18.8-3.4-6.4-6.4-12.9-9.9-19.2-3.6-6.9-8.1-13.6-7.8-21.7 2.6 2 5.5 3.5 8 5.6 2.4 2.1 4.6 4.4 6.5 7 10 13 14.4 29.2 18.5 44.8l6.3 24.3c.9 3.1.6 6.5.8 9.9zm-28.9-17c2.6 11.3 5.2 22.8 4.7 34.4 0 5.1-1.6 10-2.2 15-1.1-5.4-1.8-10.9-3-16.4-2.1-11-5.5-21.6-10-31.9-5.7-14-12-27.9-18-41.8-.9-2.5-2-4.9-3.3-7.2-1.6-2.9-3.4-6.1-3.1-9.5 6.6 4.8 11.6 11.4 16.4 17.9 8.7 11.9 15 25.3 18.5 39.5zm-26.3 49.3c.8 9.8.7 19.7-.4 29.6l-.3-1.8c-.1-.9-.3-1.8-.5-2.8-1.3-8.1-1.4-16.3-2.2-24.5-1.5-13.1-3.7-26.3-8.1-38.9-2.4-7.9-5-15.6-8-23.3-3.8-9.9-8.6-20.2-8.1-31 6.2 2 10.6 7.2 13.9 12.7 9.9 14.9 11.2 38.3 12.7 56 .6 7.9.8 15.9 1 24zm-22.3-1.6c1.2 17.5 3 35.9-4 52.5-.8-9-.3-18.2-2.1-27.1-1.4-8.9-3.3-17.6-5.5-26.3-1.9-7.7-4.7-15.1-6.9-22.7-2.4-7.7-4.7-15.5-7.7-23-2.5-6.7-5.2-13.5-5.2-20.7 4.3 2.2 7.9 5.8 11.4 9.1 5.5 5.6 9.1 12.4 11.9 19.7 4.6 12.4 7.4 25.4 8.1 38.5zm-29.4 19.9c.7 11.3 2 22.6 1.7 34-.3 4.9-.9 9.7-1.9 14.5-.6 3.9-.9 8-1.7 11.9-.9-5-.6-10.1-.7-15.2.1-8.3-.2-16.5-1.1-24.7-1.1-13.3-4.5-26.5-8.2-39.4-2.2-7-4.8-13.9-7.8-20.6-3.3-7.1-9-16.4-7.8-24.4.2-.1.3-.3.4-.6 1 .6 1.9 1.3 2.7 2.1 2.1 1.9 4.3 3.7 6.3 5.7 4.2 4.8 7.5 10.5 10.4 16.1 5.3 12.9 6.7 26.8 7.7 40.6zm-21.6.3c4.3 17.1 4.9 35 3.4 52.6-.5 14.2-3.5 28.3-9 41.4a47.86 47.86 0 0 1-.9-10.7c.1-5.9-.3-11.7-.5-17.6l-1.8-26.1c-1.1-8.7-2.6-17.4-4.5-26-2-8.6-4.4-17.1-7.3-25.4-1.9-4.8-4.1-9.4-5.5-14.5-1.2-4.1-2.8-8.2-2.8-12.4.1-.1.1-.2.2-.3 9.3 2.4 17 9.7 21.9 17.9 3.6 6.5 4.8 14 6.8 21.1zm-17.7 32.6c.4 4.5.2 9.1.1 13.7-.3 7.1-1.2 14.2-3.8 20.9-2.3 5.4-3 11.8-6.8 16.4.1-9.7.3-19.5-.8-29.2-.4-4.5-1.2-8.9-2.2-13.2-1.7-7.3-3.9-14.6-6.3-21.7-1.3-4.3-2.2-8.8-3.9-13-1.4-3.3-2.6-6.7-3.7-10.2-.9-4.8-1.7-9.6-2.4-14.4 5.4 1.5 9.6 5.6 13.3 9.7 6 6.9 9.8 15.1 12.8 23.7 1.7 5.7 3 11.4 3.7 17.3zM223.2 297c2.3 14 1.6 28.3 1.5 42.4-.3 6.2-.6 12.6-2 18.8-1.3 5.7-4 11-5.7 16.6.5-9.4 1.7-18.8.4-28.2-1.9-16.4-4.3-32.8-9.1-48.6-2.4-7.9-5.7-15.4-8.9-23-3.9-7.6-6.5-16-5.8-24.7h0l.2-.2c1.1 0 2.2.1 3.2.2 4.1 1.5 7.3 4.6 10 8 4.6 5.3 7.7 11.7 10.1 18.2 2.7 6.6 5 13.4 6.1 20.5zm-20.6 43.1c1 12.2 2.2 24.6 2 36.9 0 3.9.4 7.8-.1 11.8-.7 5.7-2 11.4-3.9 16.8-.8-6.8-.5-13.9-.7-20.8-.1-6.3-1-12.6-1.4-18.9-1.3-14.1-4.8-28.1-9.2-41.6-2.4-7.2-5.5-14.1-8.5-21.2-4.2-8.8-9.1-17.8-6.8-27.9 12 5 18.9 17.5 22 29.6 3.5 11.4 5 23.4 6.6 35.3z"/></g><g fill="#110802"><path d="M416.2 54.8l-3.2 1.8-6.2 3.3c3.3-1.4 6.4-3.1 9.4-5.1zm47.6-25.2c.4.3.4.9.1 1.2-3.2 2.5-7.3 3.8-11 5.5-6.9 4.1-14.2 7.3-21 11.5l-10.6 6.6c-1.3 1.2-2.8 2.2-4.4 3-.3.1-.6.1-.8-.1-9.6 6.2-19.8 11.4-29.1 18.1-2 1.2-3.7 3.1-5.9 3.7A1.11 1.11 0 0 1 380 78v-.2c-18.9 11.5-34.6 27-52.2 40.2-6.1 5-12.4 9.6-18.3 14.9-5 4.2-10.6 7.9-15.5 12.2-4.1 3.7-8.5 6.9-12.8 10.3-4.8 5.3-10.7 9.3-16 14.1.2.7-.3 1.3-.7 1.8-1.6 2.1-3.6 3.9-5.4 5.8L240 197c-4 4-7.6 8.4-10.6 13.2-.5.8-1.3 2.1-2.3 1.4-2.9 3.6-6 7.1-8.8 10.8-.7.9-2.2 3.3-3.1 1.3-2.1 3-4.3 6-6.6 8.9-1 .9-3.5 5.1-4.7 2.9-2.9 4.3-6.7 8-9.8 12.1-3.7 5-7.5 10-11.5 14.7-.7.8-.8 1.9-1.4 2.8-.8 1.1-4.2 7.5-5.6 4.8-6.8 7.4-12.6 16.7-18.4 25.1-4.9 6.7-10.4 13.1-15.5 19.6-.9 1.1-1.8 2.3-2.5 3.5-.4.9-1.7 1.6-2.2.5-6 8.2-11.6 16.6-17.4 24.9-1.7 2.4-3.5 4.7-5.2 7.1-1.7 3.2-3.9 6.1-5.8 9-1.4 2.6-2.7 5.3-4.1 7.9-.7 1.3-1.4 2.6-2.2 3.9-.2.7-.9 1.4-1.6 1.3-.3-.1-.5-.2-.7-.5-.3-.5-.2-1 .1-1.5.7-1.1 1.5-2.2 2.1-3.4 1.9-2.9 2.9-6.3 4.9-9.2 4.1-7 9.2-13.4 13.6-20.2 4.2-5.5 7.1-11.8 11.1-17.5l25.5-32c5.5-8.6 12.3-16.2 18.8-24 6.3-7.5 12-15.5 18.5-22.8 1.6-1.8 3.2-3.5 4.7-5.3 2.8-4.1 5.4-8.3 8.9-11.9 4.4-5.2 9-10.2 13.7-15.2 2.3-2.6 4.8-5 6.9-7.7.2-.3.5-.5.9-.5l16.6-16.3c5.6-6.3 12-11.7 18.1-17.4 5.5-4.6 11.2-8.9 16.1-14.1 3.1-2.6 6.5-4.7 9.5-7.5 5.6-5 11.8-9.4 17.7-14.1 4.7-4 9.3-8 14.3-11.7 13.5-10.6 26.6-21.8 40.1-32.5 6.3-5 13.1-9.1 19.8-13.5 2.8-1.8 5.2-4.3 8-6.1a244.07 244.07 0 0 1 23.6-14c4.3-2.5 8.6-4.8 13.1-6.9 10.3-6.4 21.1-11.9 32.2-16.6a.89.89 0 0 1 .6-1c.4-.1.9-.2 1.3-.3.5-.1 1-.3 1.5.1.5 0 1.1.1 1.6.5z" fill-opacity=".25"/><path d="M311.1 131.6l-1.5 1.4-.9.7c-.4-.5-.6-1.1-.6-1.8.4-1 1.8-.7 3-.3zM102.9 369.7c.4-.7.9-1.3 1.5-1.9l-2.2 3.9c-.2.7-.9 1.4-1.6 1.3l2.3-3.3zM454.6 69.1c.7 3.5 7.6 29.6 2.7 29.1-.2-.1-.4-.2-.6-.4-1.1-2.1-1.4-4.6-2-6.9-1-4.3-1.6-8.6-3.7-12.5-1.6-3.7-3.8-6.9-7.5-8.8-.2-.1-.4 0-.5.2-.5.3-1 .2-1.4-.3-1.5-2.4-2.2-5.4-3.2-8.1-1.1-2.7-2-5.2-3.3-7.8-.8-1.8-3.1-6.9.4-6.7 1.2.4 2.3 1.2 3.4 1.8 2.2 1.4 4.6 2.6 6.8 4.2 1.5 1.5 2.7 3.2 3.8 5.1a32.95 32.95 0 0 1 5.1 11.1zm-21.8 39.7c-.1 1.8 1 9.7-1.8 9-1-.6-1.3-1.8-1.9-2.8-1-2.4-1.7-4.9-2.1-7.5-1.9-6-5.2-17.3-11.9-19.2-.6 0-1-.4-1-.9 0-.4.2-.7.5-.9a99.47 99.47 0 0 1-6.5-17.5c-1.1-4.3-1.3-9.9 4.1-4.5 4.7 3.8 9.7 7.8 12 13.5 4.1 9.8 8.1 20.1 8.6 30.8zm-24.8 9.1c.9 1.7 3.1 6.8.8 7.9-.5.1-1 0-1.4-.3-5.1-5.9-7.4-13.8-13.2-19.1-1.9-2.6-4.6-4.2-6.7-6.6-1.6-1.5-2.3-3.5-3.5-5.3-2.1-3.6-4.3-7.2-6-11-1.5-.7.1-3.6 1.3-1.9 6.7 2 13.8 9.8 17.2 15.8 2.1 3.7 4.4 7.2 6.4 10.9 1.5 3.2 3.2 6.5 5.1 9.6zm-69.3-34.4c1.1 1.1 9.5 9.2 5.2 9.4h.1c-.5-.1-.8-.4-.9-.9h-.3c-3.1.3-6.5-.5-9.6-1-2.8-.7-9.1-.9-10.3-3.7-6.4-1.7-12.5-4.7-18.5-7.5-1.6-.6-1-2.5.6-2 4.7 1 9.6 1.7 14.1 3.3.4.2.8.2 1.2.1 1.3-.8 2.1-2.3 2.1-3.8-.4-1.8-1.8-3.4-3-4.8-.5 0-.9-.4-.9-.9s.4-.9.9-.9c1.7 0 2.4 1.9 3.3 3.1.3-.1.6-.1.8 0 2.8 1.2 5.4 2.7 7.8 4.6 2.5 1.7 5.5 2.6 7.4 5zM321.4 105c1.1 1.1 4.7 5.2 1 5-11.6-.7-23.5-1.5-34.2-6.3-3.3-1.1-6-3.2-9-4.9-1.3-1-2.5-1.6-3.7-2.5-.3-.2-.6-.5-.6-.9 0-.6.5-1 1-.9.2 0 .4.1.6.2.6.2 1.2.2 1.8.3 3.7.9 7.5.8 11.2 1.2 4.7.5 10.6 2 13.6-2.8-.2-.5 0-1.1.5-1.3.2-.1.4-.1.6-.1.7.3 1.1 1.1.8 1.8-.1.1-.1.3-.2.4 2.9 1.8 6.1 2.7 9 4.5s5.1 4.3 7.6 6.3zm61.1 35.1c.4 1.6 3.9 9.7.4 8.6-6-5.2-8.3-13.6-14.5-18.5-3.7-2.7-7.5-5.5-10.4-9-1.4-2.4-3.1-4.7-3.6-7.4s-2.4-4.9-2.6-7.7a16.32 16.32 0 0 1 .3-4.4c-.5-.2-.7-.8-.5-1.3s.8-.7 1.3-.5c.6-.7 2-.3 2 .7 10 4.6 24.3 28.8 27.6 39.5zm-21.3 23.1c.6 1.7 5.1 10.4 1.2 9.7-.4-.3-.7-.7-.8-1.1-.9-2-1.5-4-2.3-6-2-4.9-4.7-9.4-8-13.5-1.6-2.2-11-15.1-13.5-12.2-.7 1.2-2 .3-2.2-.8-.7-2-2-3.9-2.4-6.1-1.2-3.6-2.8-7-3.6-10.8-.4-1.5-1.1-3-1-4.5 0-.3.2-.5.3-.7l.2-.2c1.8-.9 7 5.9 7.6 7 1.4 2.6 3.3 4.9 5.6 6.8 5.3 7.8 11 15.4 15.2 23.9 1.2 2.9 2.6 5.7 3.7 8.5zm-24.5 19.4c-.1 1.4 1 5.4-1.2 5-.9-.5-.9-1.8-1.3-2.6l-2.3-5.9c-2.1-4.8-7.2-16.2-13.2-16-.4.4-1 .3-1.4-.1-.2-.2-.3-.5-.2-.7-1.7-3.5-2.2-7.6-3.8-11.1-1-2.4-1.8-4.9-2.4-7.5-.3-2.9-.2-5.8-1.4-8.6-.1-.5-.4-.9-.7-1.3l.9-.7 1.5-1.4c.7.2 1.3.5 1.7.6 5.1 1.7 8.5 6.1 11.1 10.6 8.3 10.8 9.1 17.3 11.5 30.1.7 3.1 1.1 6.4 1.2 9.6zm-36.4-62.2c1 1.2 5.6 3.7 3.2 5.3-.3.5-.9.5-1.4.5-1.9.1-3.9.1-5.8 0-4.3-.3-8.8-.5-12.8-2-4.9-.6-9.7-1.8-14.5-2.9-2.2-.4-4.5-.8-6.7-1.5a1.1 1.1 0 0 1-.8-1.2v-.1c.2-.4.7-.7 1.1-.6 5.9.7 12.4.3 17.5-3 1.5-.8 3.1-1.9 3.8-3.6-1.1-1.8 2.3-2.2 2-.2 2.1.6 4 1.7 5.7 3 3.2 1.7 6.1 3.8 8.7 6.3zM317 223.9c.4.8.1 1.9-.9 1.9-.7-.1-1-.8-1-1.4-2.3-5.9-5.2-11.5-8-17.1-2.9-6.2-5.5-12.7-9.5-18.3-1.9-2.7-3.3-5.8-6.2-7.5-.3.5-.9.6-1.4.3l-.1-.1c-.4-.5-.5-1.1-.8-1.6-.4-.3-.6-.7-.6-1.2-1.7-5.5-3.5-11.1-4.3-16.9-.5-2.7-1.3-8.1 2.9-4.3 2.7 2.5 5.9 4.6 8.1 7.7 2.9 3.1 5.8 6 7.8 9.7 2.4 5.1 4.9 10.3 6.9 15.6 1.7 3.9 3.5 7.8 4.3 12 1.3 5.9 2.1 11.9 2.5 18l.3 3.2zm-40.6-76.4c1 .8 1.2 2.3-.4 2.4-.8 0-1.6 0-2.5-.1-9.8-1.1-19.3-4.1-28.5-7.5-2.4-.7-4.9-1.6-7.2-2.5-.7-.1-1.3-.8-.9-1.5.6-.9 1.8-.6 2.6-.5 2.3.5 4.6.9 7 1.1 2.2.2 5.1.9 6.9-.9 1.1-1.6.5-4-.8-5.2-.6-.5-1.5-.2-1.6-1.3 0-.5.4-1 .9-1 1.6.1 2.8 1.5 3.4 3 4.9 1.5 9.5 3.8 13.6 6.9 2.8 2.1 4.9 4.9 7.5 7.1zm-32 18.5c2.8 2.3 11.4 10.1 2.1 8.7-6.5-1.1-13.2-1.7-19.3-4.2-2.2-1-4.4-2.2-6.6-3.1-3.3-1.6-6.6-3.7-10.1-4.8l-3.9-1.2c-.5-.2-1.1-.3-1.4-.7-.3-.5-.1-1.1.4-1.4.1-.1.3-.1.4-.1 1.9.3 3.7.5 5.6.5 4.8.5 9.5.6 14.3.5 2.3-.3 4.7 0 6.7-1.2a.97.97 0 0 1 .1-1.4l.1-.1c-.7-1.8 2.1-2.4 1.9-.5.1.3.2.5.2.8v.5c3.4 2.3 6.5 4.9 9.5 7.7zm42 64c0 .8.1 1.9-.8 2.3-.5.2-1 0-1.3-.4-1.5-2.6-1.6-5.7-2.2-8.6-1.7-6.4-3.2-13.2-7.9-18.2-1.7-1.7-4.2-3.1-6.7-2.4-.5.1-.9.5-.8 1v.1c.2.5 0 1.1-.5 1.3-.3.1-.6.1-.8 0-.9-.6-.7-2.1-.3-2.9-2.4-2.7-3.6-6.2-4.7-9.6s-2.8-7.1-1.8-10.8c-.2-1.1-1-3.4.8-3.5.8.1 1.2.9 1.9 1.2 3.8 3.1 7 6.9 10.2 10.5 3.1 3 5 6.9 7.1 10.5 2 3.7 3.6 7.7 4.8 11.7 1.1 4.2 1.5 8.6 2.4 12.9.3 1.8.5 3.3.6 4.9zM225 199.2c.6 1.2-.7 1.9-1.7 1.7-5.1-.6-10.1-1.7-15-3.2-5.2-1-10.4-2.3-15.5-3.8-4.9-1.7-9.7-3.6-14.7-5.1-2.3-.9-5.3-.6-7.3-2.2-.6-1.1.6-1.7 1.6-1.5 1.1.1 2.3.1 3.4.1 8.2 0 16.7.9 24.8-1 .5-.2.9-.6 1.1-1.2 0-.3.1-.5.2-.7.8-1 2.2.1 1.6 1.2l8.4 4.7c3.5 2.2 6.8 4.8 9.9 7.6 1.1 1.2 2.5 2.1 3.2 3.4z" fill-opacity=".25"/><path d="M269.2 268c.2.9-.2 2.4-1.4 2-.3-.1-.5-.4-.7-.7l-1.5-4.2c-1.3-3.9-2.7-7.8-4.4-11.6-2.6-5.1-5.1-13.9-10.2-16.8-1.3-.6-2.6-1-4-1.3-.4.1-.4.8-.4 1.1.2.2.3.4.3.6 0 .1 0 .3-.1.4.9 2-1.6 2.8-2 .6-.6-3.2-2.1-6.2-3.3-9.1-1.6-4-2.8-8.1-4.1-12.1-1-3.2-1.9-6.5-2.5-9.9-.2-.5-.1-1.1.1-1.6.5-.4 1.1-.7 1.8-.7.3-.2.7-.3 1.1-.3 1.9.2 3.6 1.2 5.4 1.8 1.8.9 3.5 2 5.1 3.4 1.8 1.2 3.5 2.6 4.9 4.2 3.7 4 7 8.4 8.9 13.5.5.9 1.4 2.6-.2 2.9 3.5 10.5 5.2 21.6 6.6 32.6.4 1.8.5 3.5.6 5.2zm-63.6-50.4c1.7.9 1.6 2.9-.6 2.7-4.9-.6-10-.5-14.8-1.6-5.3-1.5-10.8-1.9-16.1-3.1-3.1-.4-6.1-1-9.2-1.3-1.1-.1-2.1-.3-3.2-.4-.7-.1-1.8-.3-1.7-1.2 0-.5.5-1 1.1-.9 1.3-.1 2.5-.3 3.8-.4 4.1-.2 8.4-.1 12.4-.4 3.6-.3 7-1.1 7.9-5a1 1 0 1 1 2 0c4.7 1.6 8.4 5.1 12.4 7.9 2.2.8 3.9 2.6 6 3.7zm41.4 53.6c0 .6-.5 1-1 1-.4 0-.7-.2-.9-.5-1.3-5.9-5.4-10.5-9.1-15-2.9-3.3-6.7-8.7-11.7-7.3.1.2.1.4.1.7 0 .6-.4 1.1-1 1.1h-.4c-.9.2-1.4-.8-1.2-1.5-1.8-4.2-3-8.7-3.7-13.2a37.62 37.62 0 0 1-1.2-6.7c-.1-.3.1-.7.3-.9-.2-.8-.2-1.6-.1-2.4-.1-.2-.2-.4-.2-.6a.94.94 0 0 1 1-1h.2c.9.3 1.7.8 2.4 1.4 3.9 3.2 8.2 5.9 11.6 9.6 1.6 1.4 2.9 3.1 3.9 5 .8 1.8 1.8 3.6 2.9 5.3a1.25 1.25 0 0 1 .3 1.6c1.6 1.8 2.2 4.3 2.9 6.4.9 2 1.7 4 2.3 6 1.3 3.6 2.1 7.3 2.6 11zm-24 19.1c.3 1.4.3 2.8-.1 4.1a1.08 1.08 0 0 1-1.4.2l-.3-.3c-1.2-6.8-4.1-13.2-8.2-18.7-1.9-2.7-4.3-4.9-7.1-6.5-2-1.3-4.5-1.9-6.9-1.6-1 .6-1.7 1.7-1.9 2.9-.2.5-.8.8-1.3.6-.2-.1-.4-.2-.5-.4-.2-.6-.1-1.2.2-1.7-1.5-2.8-3.8-18.9-.7-20.4.7-.2 1.4.3 2.1.6 1.4.8 2.7 1.7 4 2.6a52.98 52.98 0 0 1 16.1 20.5c2.2 6 4.9 11.8 6 18.1zm-41.7-51.9c1.3.8 6.7 4.5 4.1 6-3.9.9-7.8 1.2-11.8.8-3.6-.5-7.4-.1-11-1.3-1.6-.7-3.3-1.3-5-1.7-1.3-.5-2.6-1-4-1.2-.8-.2-1.7-.1-2.3-.6-.8-.9.4-1.8 1.3-1.9 3-.6 6.1-.4 8.9-1.8 2.3-.7 4.1-2.4 3.2-4.9-.5-.2-.8-.7-.7-1.3 0-.1.1-.1.1-.2.9-1.2 2.2 0 2.5 1.1 1.3.4 2.4 1.4 3.6 1.9 3.8 1.3 7.5 3.1 11.1 5.1zm-15.7 29.7c.5.2.8.7.7 1.3a1.21 1.21 0 0 1-.7.7l-3.6 1.4c-3.1 1.1-6.4 1.3-9.6 1.7-3 .4-6 1.2-9.1 1-.5 0-1 0-1.4-.4-6.3 1-12.6.9-19 1.5a.94.94 0 0 1-1-1c0-.3.1-.6.3-.7.5-.3 1.1-.5 1.8-.5 5.3-1.1 12-3.4 14.6-8.6.2-1 .5-2 1.1-2.8 1-.3 1.3.7 1.2 1.5 6.5.8 13 1.4 19.3 3.3 1.4.4 2.8.7 4.1 1.1.5-.1 1.1 0 1.3.5zm35.2 50.3c.2 1.5 2.1 7.4-1 6.2-2.4-3.2-2.6-7.7-5-11-2.5-5.3-4.5-11.1-9.4-14.8-1.9-1-4.6-2.6-6.8-2.1h0c.5.3.6.9.4 1.4-.3.5-.9.6-1.4.4-.2-.1-.3-.3-.4-.5-.3-.3-.4-.7-.5-1.1-.8-1-.7-2.3-.9-3.5-.6-1.7-1.1-3.5-1.4-5.2-1-2.9-1.6-6-1.8-9.1 0-1.6-1-6.3 1.9-5.6 8 4.8 13.8 12.6 18.7 20.3 4 7.6 6 16.2 7.6 24.6zm-19.7 42.7c.1.8.6 1.9-.3 2.5-.4.2-.9.2-1.2-.1-.7-.7-.6-1.8-.7-2.7-.7-5.3-3.9-9.9-5.8-14.8-1.2-3.3-2.9-6.4-5-9.1-3-4.6-6.1-9.5-12.4-8.1-.1.6-.6 1-1.2.9-.1 0-.3-.1-.4-.1-.6-.4-.8-1.2-1.1-1.9-.6-.3-.6-1.1-.6-1.7-.1-1.9.1-3.9-.1-5.8 0-5-1.3-10.1-.5-15.1.1-.4.3-.8.6-1.1-.3-2.6 1.4-2.9 2.9-1 3.9 1.2 6.2 4.4 7.7 8 1.3 2.7 4 5.2 4 8.2 3.2 5.6 5.7 11.5 7.4 17.7a89.91 89.91 0 0 1 3 10.1c1.3 4.7 2.8 9.4 3.7 14.1zm-35.2-65.8c.5.8-.2 1.5-1 1.7-2.2.8-4.4 1.3-6.7 1.6-1.3.6-2.7 1.1-4.1 1.6-4.6 1.4-9 3.3-13.8 4.3-1.1.4-4.4 1.3-3.6-.9-3.4.6-6.7 1.4-10 2.3-3.7.7-7.4 1.6-11 2.7-1 0-2-1.9-1.2-2.6 1.5-1.3 3.2-2.3 4.7-3.6 3.2-2.6 5.9-5.7 8.1-9.1-.6-1.3 1.4-2 1.9-.8.2-.3.6-.5 1-.4 6.7-.2 13.4.1 20.1.8 3.3.3 6.5.7 9.8.9.9.1 2 0 2.6.8 1.1.2 2.5-.2 3.2.7zM118 322.6c2.1.4 11.8.1 6.6 3.7-1.3.5-2.7.8-4.1 1l-4.9 1.4c-5 1.8-10.1 3.3-15.1 5.2-3.8 1.1-7.7 2-11.2 3.7-.7.5-1.6.9-2-.1-.1-.6.2-1.2.8-1.4.6-.5 1.2-.9 1.8-1.3 4-3.2 8.1-7.3 8.7-12.6-.3-.1-.6-.4-.7-.8v-.3a.97.97 0 0 1-.1-1.4c.1-.2.4-.3.6-.4.6.1 1.1.4 1.4.9 6.2.3 12.1 1.9 18.2 2.4zm30.1 38c1.6 5.4 2.3 11 2.1 16.6-.2 1.4.6 5.9-1.5 5.6-.7-.2-.9-1-1.1-1.5-1.7-3.5-2.5-7.4-3.8-11-1.7-4.5-6.6-20-11.9-20.3-.3.5-.9.7-1.3.4-.3-.2-.5-.5-.5-.8.4-3.4.6-6.8.6-10.2.1-3.5.4-7 1-10.5 0-.6.6-1.1 1.2-1.1a1.08 1.08 0 0 1 .7.3c4.8 5 7.5 11.4 10.2 17.7 1.9 4.7 3.3 9.7 4.3 14.8zM133 407.2c.3 1.1.6 3.3-1.2 2.7-.7-.4-.7-1.2-.9-1.9a37.75 37.75 0 0 0-1.3-5.6c-1.7-6-4.3-11.7-7.8-16.8-2.6-3.1-5.7-5.8-9-8.1-1.8-.1-1.4-2.6-1.4-3.9.1-2.1-.1-4.2-.4-6.3 0-3.2-1-7.2 1.2-9.9.7-.7 1.9-.7 2.6 0 1.9 1.5 2.8 3.7 4 5.7 2.2 3.3 4.2 6.7 5.7 10.4 2.3 5.3 4.2 10.8 5.7 16.4 1.2 5.6 1.3 11.6 2.8 17.3zm-27.2-39c.3 2.8-.6 5.7-.7 8.5-1.1 11-1.5 22.1-4.2 32.9-1.4 5.1-3.1 10.1-4.5 15.2-2.4 6.6-4.8 13.3-6.9 20-1.9 5.5-3.2 11-5.6 16.2-.7 1.2-1.5 5.4-3.3 3.5-.5-1.5-.1-3.2.1-4.7l.9-5.5c1.2-9.2 2.5-18.4 5.1-27.3l6.3-22.9c2.2-8.6 5.5-17.3 5.6-26.2-.2.2-.5.4-.7.6-.1.5-.6.8-1.1.7-.4-.1-.7-.4-.8-.9 0-.6.3-1.2.8-1.5.5-.5 1.1-.9 1.8-1l1.8-2.7c.7.1 1.4-.6 1.6-1.3.8-1.3 1.5-2.6 2.2-3.9.6-.4 1.1-.4 1.6.3zm3.8-20.3c1.3 1.6-.4 3.3-1.7 4.1-4.4 3-9.4 5.2-13.3 8.9-1.2 1.1-3 1.8-4.1 3-1 1.1-2.3 1.9-3.2 3 .1.5-.2 1-.7 1.2-.3.1-.6.1-.8 0a23.52 23.52 0 0 1-3 3.3c-.2.2-.5.3-.8.3-.5-.1-.9-.7-.7-1.2.1-.2.2-.4.4-.6 2.6-2.6 4.9-5.5 6.9-8.6 2-3.5 3.7-7 5.6-10.5.5-1.3 1.7-2.1 3-2.1 2.4-.4 4.6-1.1 7-1.1 1.7-.3 4-1.3 5.4.3z" fill-opacity=".25"/><path d="M169 366.4a124.42 124.42 0 0 1-3.3-17c-1.3-7.9-3.7-15.5-4.8-23.4-.1-.5.3-1 .8-1s.9.3 1 .7c.9 6.6 2.8 13 4.1 19.5 1.4 6.9 1.9 13.9 4 20.6.2.5-.1 1-.6 1.2s-1-.1-1.2-.6zm-91.5 77.3c-.5-.1-.8-.6-.7-1.1.7-3.4 1.2-6.8 1.9-10.1 1.4-5.9 3.1-11.7 5.2-17.3 1.4-4.2 3.8-8.3 4.6-12.7.1-.5.5-.9 1.1-.8.4.1.8.4.8.9-.5 4.1-2.7 7.8-4.1 11.7-1.7 4.4-3.1 8.9-4.4 13.2-1.2 4.2-1.9 8.5-2.7 12.7-.5 1 0 3.7-1.7 3.5zm128.6-169.3c-1.1-4-2.7-7.8-4.1-11.6-.1-.5.2-1 .7-1.2.5-.1 1 .1 1.1.6.8 2 1.4 4.2 2.2 6.1.7 1.8 1.3 3.7 1.8 5.6.2.5-.1 1-.6 1.2-.4.2-1-.1-1.1-.7 0 .1 0 .1 0 0zm11.4 43.8c-1.2-6.5-2.4-13.1-3.1-19.7-.8-5.2-1.7-10.6-4.7-15.1-.3-.5-.1-1 .3-1.3.4-.2 1-.1 1.2.3 4.9 7.5 4.7 16.8 6.2 25.3l1.8 10.1c.1.5-.3 1-.8 1-.3.2-.8-.1-.9-.6zm-24.3 1.7c-1-4.1-2.5-8-4.6-11.6-1-1.1.4-2.6 1.4-1.4 1 1.6 6.7 12.9 4.4 13.6-.5.1-1.1-.2-1.2-.6zM57.2 237c-.6-1.6 2.8-2.1 3.9-2.7l3.9-1.4c.5-.1 1 .1 1.2.6.1.5-.1 1-.6 1.2l-5.2 1.9c-1.1.2-2.5 1.6-3.2.4zm28.3-6c-3.8-2.8 10-4.1 11.4-4 .5 0 1 .4 1 .9s-.4 1-.9 1h0c-3.6 0-7.1.6-10.5 1.9-.2.2-.6.3-1 .2zm68.9 3.3c-13.8-3.7-27.8-7.1-42.2-6.6-.5 0-1-.4-1-.9s.4-1 .9-1c8.7-.4 17.2 1.1 25.8 2.4l16.9 4.3c.5.1.8.6.7 1.1s-.6.8-1.1.7zm-98 42.7c-.9-3.1 15.9-4.5 18.5-5.3 2.4-.5 4.9-1 7.4-1.4.5-.1 1 .2 1.1.7s-.2 1-.7 1.1h-.1c-8.1 1.8-16.5 2.3-24.4 5-.1.5-.7.8-1.2.6-.2-.1-.5-.3-.6-.7zm52.7-9.1c-.1-.5.3-1 .8-1.1 4.7-.4 9.3-.5 14-.1.5 0 .9.5.8 1s-.5.9-1 .9c-1.4-.1-2.8-.1-4.1-.2-2.8-.1-5.5-.1-8.3.1-.7.1-1.9.5-2.2-.6zm.5 30.3c0-.5.4-1 .9-1 4.1-.2 8.2 0 12.2-.2.5 0 .9.3 1 .8.1.8-.6 1.2-1.3 1.1-1.8.1-3.7.1-5.5.1-2.1 0-4.3 0-6.4.1-.4 0-.9-.4-.9-.9zM54 304.7c-.1-.5.3-1 .8-1.1l6.1-1c.5-.1 1 .3 1.1.8s-.3 1-.8 1.1l-6.1 1c-.5.1-1-.3-1.1-.8zm14.7-2.1c.1-.5.7-.8 1.2-.7.3.1.6.3.7.6-.1.5-.7.8-1.2.7-.4 0-.6-.3-.7-.6zm6.9 26.3c-.8-3.4 23.7-3.9 26.8-3.9l5.6-.1c.5 0 1 .4 1 .9s-.4 1-.9 1c-8.4-.1-16.9.4-25.2 1.4-2 .3-4 .8-6 1.4-.6.1-1.1-.2-1.3-.7zM252 231c-1.1-2.7-1.3-5.9-3.1-8.3-.3-.4-.3-1 .1-1.3.8-.6 1.5.2 1.9.9 1.4 2.5 1.9 5.4 2.8 8.1.1.5-.2 1-.7 1.1-.4.2-.8-.1-1-.5zm6.8 39.1c-.7-4.4-.5-9-1.7-13.4-.2-.7-.4-1.6.4-1.9 1.6-.4 1.5 2.9 1.9 3.9.8 3.7.5 7.3 1.2 11-.1.5-.6.9-1.1.8-.3 0-.5-.2-.7-.4zm-21.3 5.6c-2.2-7-2.5-14.7-5.7-21.4l-.1-.1c-2.3-1 .9-3.9 2.4.6 2.1 5 2.8 10.3 3.9 15.5.4 1.6.9 3.2 1.3 4.9.1.5-.1 1-.6 1.2-.5.1-1-.2-1.2-.7zm36.3-70.7c-1.7-5.9-4.8-10.9-8-16-.2-.5 0-1 .4-1.3.4-.2.9-.1 1.2.3 2.6 4.5 5.7 8.8 7.3 13.8.2 1.1 1.8 3.2.3 3.9-.5 0-1-.2-1.2-.7zm36.7 16.6c-.3-4.1-.6-8.1-1.9-12-.8-2.5-2.1-4.8-2.9-7.1-.2-.5.1-1 .6-1.2s1 .1 1.2.5c1.5 3.8 3.4 7.4 4 11.4.5 2.8.8 5.5.9 8.3 0 .5-.4 1-.9 1s-1-.4-1-.9h0 0zm14.6-63.5l-3.3-8.9c-.8-1.4-1.5-2.9-2.1-4.4a.88.88 0 0 1 .5-1.2c1.6-.6 1.7 2.2 2.5 3.1 1.9 3.4 2.8 7.3 4.3 10.9.1.5-.2 1-.7 1.2-.5 0-1-.3-1.2-.7zm4.2 15.2c-.3-2.1-.8-4.3-1.5-6.3a.88.88 0 0 1 .5-1.2c.5-.2 1 0 1.2.4.7 2.2 1.3 4.5 1.6 6.8.1.5-.3 1-.8 1.1-.4.1-.9-.3-1-.8zm2 15.7l-.1-5.1c-.1-.5.3-1 .8-1.1s1 .3 1.1.8v.2l.1 5.1c0 .5-.4 1-.9 1-.6 0-1-.4-1-.9zm-120.5-36.7c-6.2-2.3-12.9-3.2-18.8-6.1-.4-.3-.6-.8-.4-1.3.6-1 1.6-.2 2.4.2 5.7 2.3 11.7 3.3 17.4 5.4.5.2.7.8.4 1.3-.1.4-.6.6-1 .5zm16.8 8.7c-1.3-.8-8.1-3.5-6.9-5.3a.95.95 0 0 1 1.3-.2c1.3 1.1 2.8 2 4.3 2.8.9.6 3.1.9 2.6 2.4-.3.4-.8.5-1.3.3zm-48.2 20c-3.5-1-6.9-2-10.3-3.3a.88.88 0 0 1-.5-1.2.88.88 0 0 1 1.2-.5c2 .7 4 1.5 6 2.1l4.1 1.2c.5.1.8.6.7 1.1s-.7.7-1.2.6h0zm17.2 7.6c-.7-.7-2.6-1.3-1.9-2.6 1-1.1 2.1.5 3 1 .4.3.5.9.2 1.4a.95.95 0 0 1-1.3.2h0zm53.8-78.4l-9-3.8c-1.5-.6-3-1.4-4.5-2.2-.4-.3-.6-.8-.4-1.3 1-1.4 2.9.8 4.2 1.2 3.5 1.3 6.9 3 10.3 4.3.5.2.7.8.5 1.2-.1.5-.6.7-1.1.6zm19.2 6.3l-3.8-1.1c-.8-.1-1.9 0-1.8-1.1.4-2 5 .2 6.3.4a.88.88 0 0 1 .5 1.2c-.2.5-.7.8-1.2.6zm82.7 40.9c-1.3-3.7-2.9-7.3-4.7-10.8-.4-.6-1.1-1.6-.2-2.1.4-.3 1-.2 1.3.3 1.1 1.9 2 4 3 6s1.8 4 2.4 6.1c.2.5-.1 1-.5 1.2-.5.2-1-.1-1.2-.5 0-.1 0-.2-.1-.2h0zm8.6 23.4l-2.9-8.6c-.1-.5.1-1 .6-1.2s1 .1 1.2.6l2.9 8.6c.1.5-.2 1-.7 1.2-.5.1-1-.1-1.1-.6zm-65.4-84.6c-6.5-3.7-13.3-7-20.2-9.9a.88.88 0 0 1-.5-1.2.88.88 0 0 1 1.2-.5c5.7 2.4 11.3 5 16.7 8 1.5.5 2.9 1.3 4.1 2.3.9.7-.4 2.1-1.3 1.3zM250.7 77c-.9-.7-3.9-1-3.4-2.5.7-1.6 3.2.5 4.3.8.5.2.6.8.4 1.3s-.8.6-1.3.4zm-34-9.2c-6.7-2-13.6-3.4-20.5-4.8-.5-.1-.8-.6-.7-1.1s.6-.8 1.1-.7c6.9 1.4 13.7 2.8 20.5 4.7.5.1.8.6.7 1.1-.1.7-.6 1-1.1.8zm54.4-10.1c-3.9-1.4-7.9-2.3-12-2.7l-5.2-.9c-.5-.1-.8-.6-.7-1.1s.6-.8 1.1-.7c5.9 1.1 11.8 1.5 17.5 3.7a.88.88 0 0 1 .5 1.2c-.2.5-.7.6-1.2.5h0zm47.3 21.7c-5.6-3.2-11-7-17.1-9-.5-.1-.8-.6-.7-1.1s.6-.8 1.1-.7c6.4 2 12 6 17.8 9.3a.95.95 0 0 1 .2 1.3c-.4.4-.9.5-1.3.2zm51.7 52.4l-4.1-10.4c-.2-.5 0-1 .5-1.3s1 0 1.3.5h0l.7 1.8 3.5 8.9c.1.5-.2 1-.7 1.2-.5 0-1-.3-1.2-.7zm10.6 23.9l-2.5-6.7-1.4-3.4c-.2-.5 0-1 .5-1.3.5-.2 1 0 1.3.5l2 5.1 1.9 5.2c.1.5-.2 1-.7 1.2-.5.1-1-.2-1.1-.6h0zm68.6-69.6c-.5-4.4-1.2-8.7-1.9-13-.2-1.2-.4-2.5-.7-3.7-.1-.5.2-1 .8-1.1.5-.1 1 .3 1.1.8 1.1 5.5 2 11.1 2.6 16.7 0 .5-.3 1-.9 1-.5 0-.9-.3-1-.7zm2.3 31.7c0-4.4-.2-8.8-.2-13.1 0-.8-.2-2.1.9-2.2.5 0 1 .4 1 .9l.2 14.4c-.1.5-.7.9-1.2.7a1.21 1.21 0 0 1-.7-.7zM227.8 204c-.4-.3-.4-.9-.1-1.3l2.7-3c2.2-2.7 4.3-5.5 6.7-8 1.8-2 3.7-4.1 5.3-6.1.3-.4.9-.4 1.3-.1.3.3.4.8.2 1.2-3.7 4.6-8 8.8-11.5 13.6l-3.3 3.8c-.4.3-.9.2-1.3-.1zM40.6 392.7c-1.1-1.3 2.4-2.9 3.2-3.8l4.3-3.3 6.6-4.6c.5-.2 1 0 1.3.4.2.4.1.9-.3 1.2L48 388l-6.2 4.9c-.3.2-.9.2-1.2-.2zm84.8 7c-1.4-7.3-4.2-14.2-5.4-21.6 0-.5.4-1 .9-1s1 .4 1 .9c1.4 7.2 4 14.1 5.4 21.3.1.5-.3 1-.8 1-.6.2-1-.1-1.1-.6zm1.5 24.4c0-4.4-.5-8.7-.8-13 .1-1.2-.9-4.5.8-4.6.5 0 .9.4 1 .9.1 5.6 1 11.1 1 16.7 0 .5-.4 1-.9 1-.6 0-1.1-.4-1.1-1h0zm11-68.1c0-1.9-.3-3.8-.9-5.6-.1-.8-.7-1.6-.4-2.4.3-.5.9-.6 1.4-.2.1.1.3.2.3.4.3 1.5 2.8 8.5.5 8.8-.5-.1-.9-.5-.9-1z"/></g></svg>