<svg xmlns="http://www.w3.org/2000/svg" viewBox="0 0 390 538.6" xmlns:v="https://vecta.io/nano"><g fill="#110802"><path d="M122.7 381.3c-3.9-1.4 1.8-15.7 2.3-19.1l5.5-18.9c3.5-9.1 7.9-17.9 11.8-26.8 8.6-18.2 19.1-35.3 29.1-52.7l26.7-44.3c8.5-14.8 18.3-28.6 27.4-43l21.8-34.1c5-8.1 10.4-15.8 16.3-23.3l21.2-27.3c5.6-6 10.8-12.4 16.3-18.5 8-9.2 15.4-18.8 23.9-27.6 8.8-9.3 18.5-17.2 27.5-26.1.4-.4.9-.8 1.4-1.2.4-.4 1-.4 1.4 0 .2.2.3.4.3.7 0 .5-.3.9-.8 1-4.2 4.2-8.6 8.3-13.1 12.1a317.63 317.63 0 0 0-18.5 18.2c-8.9 9.9-17.1 20.4-26 30.3-4.2 5.3-9.1 10.1-13.5 15.4l-14.2 18.3c-19 24.1-34.1 50.8-51 76.3-15.3 22.6-28.8 46.4-42.9 69.7-10.5 17.9-21.2 35.8-30.4 54.4-4.6 10.5-9.9 20.6-13.6 31.3-2.6 10.5-6.7 20.7-8.3 31.4 2.8-7.3 5.7-14.5 8.1-21.9 3.1-6.7 5.7-13.6 8.9-20.4 3.6-7.9 7.7-15.6 11.9-23.2 3.8-7.1 7.4-14.4 11.7-21.2 7.7-12.4 15.1-24.9 24-36.4 2.9-4 5-8.4 7.7-12.5 3.8-6.1 8-12 12.1-18 16.9-24 29.7-50.6 47.9-73.6 17.9-21.9 33.3-45.6 51.5-67.3 6-7 11.6-14.3 18-21l32-33.2c6.5-6.5 13.5-12.5 20.3-18.6 3.6-3.4 7.1-6.8 11-9.9.5-.2 1.1 0 1.3.5.1.3.1.7-.1.9-2.4 2-4.8 4.2-7.1 6.4-7.2 6.9-15 13.3-22.1 20.2-8.4 8-16.2 16.5-24.3 24.9-9 9.1-17.6 18.7-25.6 28.7-17 20-31.6 41.7-47.7 62.4-9.6 11.8-18.4 24.1-26.3 37-8.4 14.3-16.9 28.6-26.3 42.3-4.1 6.1-8.4 12-12.3 18.2-3.1 4.6-5.4 9.6-8.8 14.1-8.3 10.7-15.1 22.4-22.3 33.8-5.6 8.9-10.2 18.3-15.3 27.5-7.4 13.3-13.5 27.4-19.2 41.5-2 6.5-4.8 12.7-7.1 19.1-.3 1-.8 2-1.4 3-.2.4-.7.6-1.1.5z"/><path d="M64.8 538.5c-2.1-1-1.3-13.7-1.4-16.3.5-17.4 4.4-34.4 7.8-51.4 2.8-13.1 6.2-25.9 10.3-38.6 3.8-11.3 7.8-22.9 14.3-32.9 7-10.9 14.4-22.9 26.8-28.2 1.2-1.5 2.7.9 1 1.7-4.2 1.9-8 4.5-11.2 7.7-3.8 3.5-6.7 7.8-9.7 12-5.5 8-10.6 16.1-13.9 25.2-7.6 20.1-13.5 40.9-17.4 62-3.9 17.8-7.1 36-5.9 54.4.9-4 2.1-8 3.5-11.9 1.9-4.3 3.9-8.5 5.6-12.8 8.4-22.1 19-43.3 29.8-64.3 7.7-15.6 16.4-30.8 21.8-47.4 2.4-7.6 5.6-15.3 4.8-23.3-.1-1.5-2.7-3.7-.8-4.8.6-.1 1.2.2 1.3.8v.1c.8 1.5 1.6 3 1.6 4.8-.1 6.4-1.3 12.6-3.7 18.5-1.3 4.3-2.7 8.6-4.5 12.7-3.7 10-8.6 19.4-13.5 28.8l-12 23.6c-5.3 11-11 21.8-15.6 33.2-2.8 6.5-5.5 13.1-8.1 19.7-2 4.9-4.7 9.7-6.3 14.8-1 3.2-1.6 6.4-2.6 9.6-.3.8-.6 2.7-2 2.3z"/><path d="M130.4 372.7c-1-.4-4-1.7-3.2-3.1.9-1.1 2.1.4 2.9.8.5.5 1.4.3 1.8.8.8 1.1-.5 1.9-1.5 1.5zm8.9 129.1c-1.2-2.8-.4-5.8-.2-8.7l1.3-9.4c1.1-7.2 1.8-14.7 3.1-21.8 1.4-12.2 2-24.4 1.9-36.7-.1-7.5-1.1-15.2-1.8-22.6-.9-9.1-2.7-18-5.5-26.7-2.5-7.4-7.2-14.4-6-22.5.1-.7.3-1.6 1.1-1.5 1.6-3.1 5.7-2.8 8.4-1.1 2.2 1.1 3.7 3.2 5.2 5 6.9 8.7 7 20.2 8.9 30.6 2 12.3 1.5 24.9.8 37.3-.6 13-1.7 26.1-4.3 38.9-1.6 8.7-2.1 17.6-4.2 26.2a65.06 65.06 0 0 1-3.6 10.5c-.8 2.2-2.8 6.7-5.1 2.5zm2-.6h0c1.8-3.9 3.3-8 4.4-12.1 1.7-6.3 2.2-13.1 3.2-19.5 1.4-9.1 3.3-17.9 4.2-27 1.1-15.5 2.4-31.1 1.6-46.7-.6-6.8-1.9-13.5-2.9-20.3-1-6.4-2.5-13.1-6.6-18.2-2.2-2.8-5.6-6.9-9.5-5.4-.8.5-1 1.8-1.9 2.1-.5 5.1 1.1 10 3.3 14.5 1.8 4.1 3.3 8.4 4.4 12.8 3.4 13.1 4.6 26.7 5.5 40.1.3 7.8.2 15.6-.3 23.4-.2 6.9-.9 13.8-2 20.6l-3.4 25.3c-.4 2.3-.6 4.7-.7 7 0 1.1.2 2.3.7 3.4zM31.5 476.3c-7.1-2.5 2.4-25.5 4.3-30.7 6-15 13.5-29.4 22.5-42.8 9.4-14.5 18.5-29.6 31.8-40.9 7.1-6 15.5-10.1 24.6-12 4.6-.4 9.3-1.2 13.8-.1a1.08 1.08 0 0 1 1.4.2c.2.2.2.5.2.8-.1.5 0 1.2-.4 1.6-.7 3.3-3.2 5.9-5.6 8.2-2.4 1.8-5.1 3.1-7.7 4.7-8.2 4.5-15.9 9.7-23 15.7-7.9 6.3-15.1 13.4-21.4 21.3-4.3 5.2-7.4 11.1-10.9 16.8-6.3 10.3-12 20.9-17.2 31.8-2.8 6.4-5.8 12.7-8.2 19.3-1 1.7-2 6.4-4.2 6.1zm.1-2.1c2.7-5 4.4-10.7 6.8-15.8 4.9-11.3 10.5-22.3 16.8-33 4.2-7 8.1-14.2 12.7-20.9 3.8-5.2 8.1-10.1 12.7-14.7 8.9-8.7 18.7-16.5 29.2-23.1a301.66 301.66 0 0 0 10.8-6.3c2.1-1.1 3.9-2.8 5.2-4.8 1-1.2 1.7-2.6 2-4.1-29.6-3.6-49.4 23-63.3 45.4-11.7 17.2-22.2 35.4-29 55.2-1.8 5.5-6.4 16.9-3.9 22.1zm-15.4-54.4c-2.3-1.5 1.7-8 2.6-10 6.8-12.3 16.3-22.8 26-33 15.9-16.7 34.4-30.5 54.9-41 7.4-4.4 31.1-13.9 37.9-7 2.2.6-.2 3.7-1 4.7-3.1 3.5-7.9 4.7-12.1 6.3-4.8 1.5-9.5 3.3-14.3 4.8-14.7 5.2-27.5 14.4-40.2 23.2-8.2 5.9-15.9 12.3-23.2 19.2-4.8 4.3-9.3 9-13.5 13.9-3.2 3.8-5.9 7.7-9.1 11.5-1.8 1.9-5.3 8.2-8 7.4zm1.5-2.6c7-7.8 12.7-16.8 20.1-24.3 16.1-16.4 34.5-30.1 54.1-41.9 8.8-5.3 18.5-8.5 28.2-11.7l7.3-2.5c3.4-1.4 7.4-2.8 9-6.4-4.1-4.1-15.6-.7-20.6.7-7.2 2.1-13.7 5.7-20.2 9.2-20.5 11.3-39 26-54.5 43.5-9.2 10.1-18.6 20.6-23.4 33.4zm151.9 42.1c-.5-.8-.8-1.6-.9-2.5-.2-5.3-.5-10.6-.4-15.9 0-17.1.5-34.7-4.3-51.3-3-10.8-6.6-21.5-12.2-31.3-3-5.5-7.2-10.5-9-16.7-.6-2.3-1.6-4.7-1.2-7.1h0 0c.9-4.1 4.3-4.6 7.9-4 2.9-.1 5.1 1.8 7.4 3.3 1.9 1.4 3 3.5 4.3 5.4a69.09 69.09 0 0 1 6.9 11.7c3.2 7.3 4.3 15.2 6.1 22.8 2.8 11.9 3.3 24.2 3.5 36.3.1 7.7-.2 15.4-1 23.1-.2 5.1-.9 10.2-2.2 15.1-.7 2.3-1.7 13-4.9 11.1zm0-48.4c1.3 15 .1 30.1 1 45.2 1.4-4.9 2.4-9.9 3.4-14.9 1.2-9.8 1.7-19.8 1.8-29.7-.2-12.6-.6-25.3-3.5-37.6-1.7-7.1-2.7-14.3-5.4-21-2-4.5-4.4-8.7-7.3-12.7a16.14 16.14 0 0 0-6.6-6.6c-.8-.6-1.8-1-2.8-1.1-2 0-4.9-.9-6.1 1.2-.3.6-.2 1.4-.7 1.9 1 9.4 7.6 16.4 11.7 24.5 3.6 6.6 6 13.8 8.4 20.9 3.3 9.7 5.4 19.8 6.1 29.9h0zM.4 376.2c-1.9-2 2.5-7 3.4-9 3.2-5.2 7.4-9.8 11.5-14.4 2.9-3.6 6.3-6.8 10-9.5a231.9 231.9 0 0 1 27.5-18.5c8.4-4.5 17-8.5 25.8-12 10.2-4 21-6.3 31.6-9.1 7.6-1.8 15.4-2.8 23.2-2.8 4.6.1 9.3-.3 13.7 1.2.5.2 1.1.4 1.6.6.4 0 .8.3.9.6.8.8.8 2.4-.7 2.1-5.7 8.3-17.1 8.3-26 10.3-8.3 1.6-16.5 3.3-24.7 5.4-12.9 3.6-25.3 8.5-37.1 14.8-16.2 9.6-32 20-47.5 30.7-3.4 2.6-6.7 5.4-9.9 8.4-.8.8-2.1 2.2-3.3 1.2zm3.2-4.7c-.4.7-.9 1.5-1.3 2.2 8.4-8 18.1-14.3 27.8-20.6 13-8.3 25.6-17.2 39.6-23.7 12.5-5.4 25.4-10.1 38.8-12.7 5.9-1.3 11.8-2.6 17.7-3.6 7.3-1.6 16.6-2.1 21-8.9-5.1-1.9-10.7-1.3-16-1.4-10.2.2-20.2 2.4-30 5.1-22.7 5.4-44.2 15-63.3 28.4-5.8 4.1-11.7 8.2-17 13-6.1 7-12.8 13.8-17.3 22.2zm7.3-50.1c-4.7-3.2 14.9-14.1 17.4-16.1 12.3-7.7 25.7-13.7 39.2-18.9 18.3-6.5 37.4-11.5 56.9-11.7 8 .2 16.1 0 24 1.5 4.5.8 8.9 2 13.2 3.4.8.3 1.8.7 1.9 1.6 0 .5-.4 1-.9 1h-.1c-3.8 3-8.9 3.4-13.4 4.4l-17.4 3.4-36.6 6.1c-10.2 1.5-20.5 2.9-30.6 5.4s-20 5-29.4 9.1c-5.5 2.5-11 5.1-16.4 7.8-1.9.9-3.8 2-5.8 2.8-.5.3-1.3.4-2 .2zm1.7-2.2c8.5-4.1 16.9-8.4 25.6-12.1 7-2.4 14-4.7 21.1-6.4 19.3-5 39.3-6.9 58.8-10.5 8.8-1.4 17.7-2.9 26.4-4.7 5.4-1.3 11.3-1.4 16.1-4.3-9.1-2.9-18.7-4.4-28.3-4.4-22.9-1.1-45.6 4.6-66.8 12.5-18.8 7.6-37.7 16.4-52.9 29.9zm19.6-43c-.6.1-1.2-.3-1.3-1-.1-.4.1-.8.3-1 1.5-1.8 3.2-3.3 5.2-4.4 8.6-4.9 18.1-7.8 27.7-10.2 11.7-3 23.6-5.3 35.6-6.7 12.1-1.1 24.3-1.3 36.5-.6 7.6.6 15.3.9 23 1.8 5.2.6 10.6 1.3 15.1 4.1.5-.3 1.1-.1 1.4.4.1.2.1.4.1.6-.1.7-.4 1.3-.8 1.8-4.7 5.1-12.3 5.4-18.8 5.8-7.3.3-14.5.6-21.8.3-13-.6-26-1.7-39.1-1.4-14.5.4-28.5 3.5-42.7 6.4-4.1.8-8.1 1.7-12.2 2.6-2.8.5-5.4 1.5-8.2 1.5zm1.9-2.1c23.3-5 46.9-11.4 71-10.4 16 .2 32 2.3 48.1 1.2 6.8-.5 14.8 0 20-5.1-5.2-3.2-11.6-3.4-17.5-4.2-9.3-.7-18.6-1.5-27.9-1.8-19.5-.5-38.9 1.6-57.9 6.2-7.6 1.7-15.2 3.9-22.5 6.6-4.7 2.2-9.8 3.9-13.3 7.5zm29.4-24.2h-7c-1.2.1-3.7-.1-2.8-1.9 5-2.8 10.6-4.6 16-6.8 16.7-6.6 33.6-13.2 51.2-16.9 16-2.7 32.6-5.1 48.8-2.5 7.5 1.6 14.9 3.6 22.1 6.1a.97.97 0 0 1 1.4.1c.3.3.3.7.1 1.1.2.6-.1 1.2-.6 1.4-.1 0-.3.1-.4.1-8 10-25.5 6.6-36.9 7.6-10.7 0-21.4.9-32 2.8l-36 6.1c-8.1.8-15.8 2.5-23.9 2.8zm-1.9-1.9c7.5.2 14.8-1.8 22.3-2.4 18.9-2.5 37.5-6.9 56.5-8.9 7.9-.5 15.9-.5 23.8-.7 8.6-.2 20.4.8 26.4-6.4-7.3-2.2-14.5-4.6-22-5.9-9.6-1.4-19.5-1-29.1 0-9.7 1.2-19.4 2.4-28.8 5.2-17.7 5.4-35.2 11.8-52.2 19.1h3.1zm8.9-27.1c-5.8-2.1 15.3-9.9 17-10.7 6.7-2.4 13.6-4.5 20.5-6.2 22.7-4.7 45.8-10.7 69.1-7.6 7.3.6 14.7 1.6 21.4 4.9 2.8 1.4 6.1 2.7 7.8 5.5.9-.4 1.7.8 1.1 1.5-4.3 5.9-12.6 4.7-19 4.9-6.2-.1-12.4-.4-18.6-.7-12.6-.5-25.3-1.8-37.9-.4l-26.7 3.2c-7.9 1.2-15.7 3.2-23.7 4.1-3.6.4-7.3 1.4-11 1.5zm9.5-5.4c-2.1.9-4.1 2-6 3.1 4.2-.7 8.5-1.1 12.7-1.8 6.1-1 12.1-2.4 18.2-3.3 13.3-1.5 26.5-3.8 39.9-3.9 11.1.3 22.2 1.1 33.3 1.4 6.5-.1 22.4 2.3 26.8-2.6-2.1-3.9-11.3-6.8-15.5-8.1-11.3-2-22.9-3.1-34.4-2.2-10.4.7-20.7 2.7-30.9 4.9-15.1 2.7-30.1 6-44.1 12.5zm128.2-26.4c-4.6.1-9.1-1.2-13.6-2-9.8-1.7-19.6-3.5-29.4-4.8-22.5-2.9-46.1-3.7-67.8 3.5-6.1 2.3-6.4-2.4-1.4-4.9 6.6-3.4 14.1-4.5 21.2-6.5 6-1 11.7-1.6 17.7-2.4 16.6-1.4 33.2-2.1 49.8-.3 9.7.7 19.1 3.2 27.9 7.4 2.4 1.2 4.7 2.7 6.8 4.4.7.4 1.2 1.1 1.4 1.9 1.5.4.8 1.9-.3 2.3-3.9 1.8-8.2 1.3-12.3 1.4zm3.2-2c2.5.2 5-.1 7.4-.9 0-.5-.3-.9-.7-1.1-3.4-2.7-7.2-4.8-11.3-6.3-8.4-3.5-17.4-4.8-26.4-5.4-9.5-.8-19.1-1-28.7-.5-7.7.7-15.4.8-23 2-5.4.8-10.8 1.1-16 2.8a79.46 79.46 0 0 0-9.3 2.4c-3 1.1-6.5 1.9-8.8 4.3 23.9-7.9 49.7-7.3 74.4-3.6 8.8 1.1 17.4 2.9 26.2 4.4 5.4 1 10.7 2.2 16.2 1.9h0zm14.2-20.6c-12.1-1.9-23.9-5.9-35.7-8.6-9.1-1.8-18.4-2-27.7-1.9-7-.1-14.1.1-21.1-.2-5.9-.7-11.8-.5-17.7-1-7-.6-14-1.8-21.1-2.1-2.3-.3-11.8 2.8-8.9-2 1-1.2 2.4-2.1 3.8-2.6a89.91 89.91 0 0 1 10.1-3c10.3-2.7 20.9-3.6 31.5-4.6 9-.9 18-2.1 27-1.6 21.3 1.6 45.8 2.6 63.4 16.2 2.7 2.3 6.2 4.5 6.6 8.3 0 .4-.2.7-.6.9-2.1 3-6.4 2.4-9.6 2.2zm5-1.9c1.2-.2 2.3-.7 3.1-1.5-.6-2.9-3.5-4.4-5.5-6.2-6.6-5.1-14.3-8.8-22.5-10.6-10.5-2.9-21.3-4-32.2-4.8-8.6-.9-17.2-.8-25.8.2-12.9 1.4-25.8 2-38.4 5-4.8 1.3-9.9 2-14 4.8 11.4-1.9 22.8 1.6 34.2 1.8 4.5 0 9.1.5 13.6.8l33.7.3c11.2.6 22 4 32.8 6.8 6.9 1.4 13.9 3.7 21 3.4h0zm8.3-18.1c-18.9-1.3-36.3-9.4-54.5-14-11.2-3.4-22.8-4.8-34.3-6.1-11.6-1.6-23.3-2.9-35-3.8-2.3-.1-4.5 0-6.8.4-1.2.2-2.5.6-3.6 0-.5-.4-.7-1-.6-1.6.4-2 2.6-2.8 4.3-3.5 12.6-4.4 26.1-5.2 39.4-5.7a207.85 207.85 0 0 1 27.3 1.2c12.4 1.7 24.5 4.9 36.4 8.6 9.7 3.5 33.2 9.6 38.2 18.3 1.8 1.7-1.9 2.6-2.9 3.3l-2.6 1.8a10.54 10.54 0 0 1-5.3 1.1zm1.5-2.1c2.9-.1 4.7-2.8 7.3-3.6-6.1-8.1-28.6-13.9-38.6-17.5-11.1-3.5-22.5-6.2-34.1-7.9-11-1.3-22-1.6-33-1-8.2.5-16.2 1-24.1 2.9-3.8 1.1-8.2 1.6-11.4 3.9 6.8-1.4 13.9-.2 20.7.5 5.8.4 11.6 1.2 17.4 1.8 13.3 1.9 26.8 2.8 39.7 6.8 18.8 4.7 36.7 13.5 56.1 14.1h0zm12.8-25.5c-7.3-.6-14.3-3.1-21.2-5.5l-16.7-5.7c-16.5-5.7-33.2-10.6-50.2-14.8-8.4-2.1-16.9-3.8-25.4-5.3-5.8-1.2-11.7-1.9-17.6-2.2-1.7-.1-3.5-1.6-2.4-3.4 2.2-4 19.6-3.2 24.3-3.3 30.7 0 60.4 8.6 89.6 17.3 12.3 3.7 25 6.7 32.3 18.3.3.6.6 1.2.8 1.8.1.5-.3 1-.9 1.1-.2 0-.4 0-.6-.1-.4.9-1.6.8-2.5 1.1-3 .8-6.3 1-9.5.7zm5.6-2c1.9-.2 3.8-.5 5.6-1-5.3-9.1-15.6-13.3-25.3-15.9-6.8-2-13.4-4.2-20.3-6-22.8-6.4-46-12.4-69.8-13-6.3-.1-12.7-.4-19 .1-2.3.3-4.7.6-7 1.1-.7.1-1.3.5-1.6 1.1 2.3.9 5.5.3 8 .7 7 1.1 14 2.3 20.9 3.7 18.9 3.9 37.6 8.9 55.9 15l25.4 8.5c8.8 3 17.9 6.5 27.3 5.8l-.1-.1zm20.4-24.2c-8.7-1-16.8-4.8-24.9-7.8-9.2-3.2-18.2-6.9-27.4-10.2-8.9-3.3-17.9-6.1-27.1-8.3-8.9-1.8-18-2.2-27.1-2.8-8.4-.9-16.9-1.4-25.3-2.2-5.5-.1-28.1-2.3-11.9-8.1 14.3-4.6 29.8-3.7 44.6-2.8 23.9.6 47.1 6.7 69.6 14.1 9.5 3.3 19.2 6.4 27.7 11.8 4.2 2.8 11.4 6.9 11.7 12.4 1 1.8-2.2 2.5-3.3 3.1-2 .8-4.3 1.1-6.6.8zm2.6-2c1.9-.3 3.8-.9 5.5-1.8-.7-4.7-6.5-7.8-10-10.3-11.5-7.3-24.8-11-37.7-15.1-19.8-6.3-40.3-10.6-61.1-11.1-13.7-.8-33.9-1.9-46.2 4.6 6.3 2.4 13 2.1 19.6 2.8l24.8 2.1c11 .5 22.1 1.6 32.7 4.9 15.4 4.4 30.2 10.7 45.3 16.1 8.7 3 17.5 7.6 27.1 7.8h0zm-86.9 372.2c-.9-.8-.6-2.1-.7-3.1-.2-5.7 0-11.3-.2-17-1.9-18.1-3.1-36.4-7.4-54.2-3.5-14.7-9-28.7-15.5-42.2-2.7-5.8-5.6-11.6-8.6-17.3-2.4-4.3-4.9-8.6-6.5-13.3-.9-2.6-1.2-5.4-.7-8.1.2-.5.3-1 .3-1.5.1-.5.6-.9 1.2-.8.1 0 .2.1.3.1 5.9 1.2 9.9 6.4 13.7 10.7 6.1 7.1 11 15.2 14.3 23.9 4 9.5 6.4 19.5 9.1 29.4 4.6 17.7 7.6 36 7.5 54.3.1 6.9.1 13.7-1.1 20.5-.5 5.5-1.6 10.9-3.3 16.1-.4 1.3-.9 3.4-2.4 2.5zm.4-26.7c1.1 7 .5 14.2.8 21.3 3.2-11.8 3.7-24.1 3.5-36.3-.2-18.5-3.6-36.9-8.4-54.6-4.4-17.3-9.9-35.1-21.9-48.8-3.4-4-6.9-8.4-12-10.1-1.6 8 4.7 15.7 8 22.6 5.3 10.3 10.3 20.8 14.7 31.5 5.2 12.9 9.1 26.4 11.4 40.2 1.9 11.4 2.6 22.9 3.9 34.2z"/><path d="M211.1 422.4c-.7-.2-1.2-.8-1.4-1.5-.5-1.8-.9-3.7-1.1-5.6-1.1-5.8-1.4-11.6-2.2-17.4-1.4-10-2.4-20.1-4.6-30.1-1.4-5.9-3.4-11.6-5.4-17.3-2.2-6.5-5.4-12.5-8.6-18.5-2.6-5.6-5.9-11.1-8.9-16.4-4.8-9.4-12.7-18.4-12.3-29.5-.1-1.8 2.4-1.1 3.5-1.2 4.2.3 8.2 1.8 11.7 4.2 22 14.1 31.1 56.9 33.5 81.6.9 8.4 1 16.8 1.2 25.2.3 4.1.3 8.2-.1 12.2-.4 2.8-1 5.6-1.9 8.3-.6 1.9-1 6.1-3.4 6zm.3-2.8c1.6-4.8 3.1-9.9 3.3-14.9 0-5.6-.4-11.2-.4-16.8-.2-20.4-3.6-40.7-10-60.1-5-15.8-16.5-40.4-35.6-40.8.2 8.6 5.5 15.8 9.6 23 6.8 12.2 13.8 24.2 19.2 37.1 3.5 9.6 6.7 19.3 8.2 29.5 1.3 7.5 2 15.1 3.1 22.7.4 6.8 1.3 13.6 2.6 20.3h0zM238 384c-2.8-1.3-2.5-7.6-3.1-10.4-.9-6.7-2.2-13.4-4-19.9-4.5-16.9-12.5-32.6-22.5-46.9-5.4-7.6-11.3-14.8-16.9-22.3-4.8-5.4-10.8-10.8-11.5-18.4-.2-.9.1-2.1 1.2-2 6.1-3.8 12.5 4.6 16.9 8 16.3 12 27.2 30 34.4 48.6 4.3 11.1 6.4 22.9 7.6 34.7.6 5.2 1.7 10.5 1.6 15.8-.3 2.8.2 12.9-3.7 12.8zm.3-2.5c3-9.8.3-19.9-.7-29.8-2.4-24-11.8-46.7-27.1-65.3-4.4-5.3-9.9-9.7-15.2-14-3.4-2.8-8.7-9.3-13.3-6.4.9 8.1 8 13.1 12.6 19.1 7.5 10.3 15.9 19.9 22.2 31 7.9 12.7 13.7 26.6 17.2 41.1 1.1 4.9 2 9.9 2.7 14.9.6 3.2.6 6.4 1.6 9.4h0zm10.8-27.1c-2-6-2.6-12.4-4-18.6-2.9-12.5-6.4-25-11.8-36.7-4.8-11.3-10.7-22-17.8-32-3-4.2-5.9-8.4-8.6-12.7-3.6-5.2-6.9-11.1-7.1-17.6a2.22 2.22 0 0 1 .3-1.6 1.07 1.07 0 0 1 1.4-.1c.3.3.4.8.2 1.2 0 8.7 6 15.6 10.3 22.6 6.2 8.7 12.3 17.6 17.2 27.2 6.1 11.6 10.9 23.8 14.4 36.4 3.2 10 4.4 20.4 7 30.6 1.7-6 2.4-12.2 2-18.4-1.4-8.8-3.2-17.5-5.3-26.1v.1c-2.4-11-6.9-21.3-11.4-31.6s-9.1-20.8-15.8-29.9c-4-5.7-9.5-10.7-16.3-12.4-.5-.1-1-.1-1.5-.1-.5.1-1-.4-1.1-.9 0-.4.2-.8.5-1 1.6-.7 3.5.1 5 .6 16.9 6.3 26.5 32.6 33.3 48.2 7.5 15.6 10.8 32.7 14 49.6.7 4.7.8 9.4.1 14.1-.2 2.2-1.5 14.5-5 9.1zm14.1-33.2c-1.6-1.3-2.2-3.5-2.9-5.4-1.2-3.9-2.2-7.9-3-11.9-1.7-6.5-3.7-13-6-19.3-6.1-14.7-14.9-27.9-21.8-42.2h0c-2.8-5-6-9.8-8.6-14.9-1.1-2.3-8.6-13.2-5.2-14.6 1-1.7 4.6.2 6 .6 7.2 3 12.3 9.2 17.4 14.9 13.9 15.9 21.3 36.2 26.3 56.3 1.6 6.7 3 13.6 2.9 20.6-.1 3.4-.5 6.8-.7 10.2-.2 2.5-1.1 8-4.4 5.7zm1.4-1.5c1.2-2.4.9-5.2 1.2-7.8 1.1-8.6-.2-17.2-2.2-25.6a166.96 166.96 0 0 0-14.9-40.5c-4-7-8.8-13.5-14.3-19.4-4.8-5.3-10.3-10.8-17.6-12.2 0 .1-.1.1-.1.2 1.6 6.1 5.7 11.2 8.4 16.8 4.6 7.2 8.4 14.7 12.3 22.3 5.3 9.5 10.8 19 15.2 29 3.5 9.2 6.3 18.7 8.3 28.4v-.1c1 3.2 1.3 6.7 3.7 8.9zm14.5-19.9c-3.4-1.3-3.3-10.5-4-13.8a186.7 186.7 0 0 0-3.2-16.9c-2-7.6-4.5-15.1-8.6-21.8-2.4-4.2-4.4-8.7-7.1-12.8-4.9-7.7-10.1-15.2-15.7-22.4-2.7-3.6-5.8-7.1-8.1-11-1.6-2.5-3.3-5.3-3.3-8.4.8-5.9 12.1 3.4 14.1 5.2 9.1 7.9 16.3 17.8 22.2 28.3 3.1 6.1 5.4 12.5 8.4 18.6 4 8.7 7.3 17.8 8.4 27.3.5 6.2 1.5 12.5-.1 18.6-.5 2-.8 4.1-1.2 6.1-.4 1.1-.3 3-1.8 3zm-.3-3.4c.6-4.2 1.9-8.3 2-12.5 0-4-.5-8.2-.8-12.1-.9-6.1-2.5-12.1-4.6-17.9l-11.1-25.1c-3-6.1-7.1-11.7-11.1-17.2-3.1-4.1-6.7-7.8-10.5-11.3-3.5-3.1-7.1-6.1-11.6-7.6 0 .2-.1.3-.2.4.8 4.8 4.4 8.9 7.1 12.7 3.6 4.5 7.2 9.3 10.7 13.9 5.8 8 11 16.5 15.6 25.3l-.1-.1c5.9 9.7 9.2 20.6 11.2 31.7 1.7 6.6 1.7 13.4 3.4 19.8h0zm17.5 7.8c-1.6.1-1.4-5.7-1.6-6.9-.2-7.6-.9-15.2-2.2-22.7-1.4-9-4.1-17.7-7.8-26-3.6-8.9-8-17.4-13.2-25.4l-14.8-21.1c-5.6-8-11.3-16.3-13.6-26-.4-1.8-2.7-7.2.1-7.1 6.2-5.4 20.4 11.4 24.5 15.8 4.7 5.7 8.9 11.9 12.4 18.5 5.6 9.8 10 20.3 13 31.1 4.4 12.8 7.2 26.2 8.3 39.7.2 6.7 1.3 13.6-.3 20.2-.9 3-2.1 6-3.5 8.9-.3.6-.7 1.1-1.3 1zm.6-4.1a37.14 37.14 0 0 0 2.7-7.7c.6-4 .3-8.1.2-12.1-.3-7.4-1.1-14.8-2.5-22.1-1.3-8.4-4-16.5-6.6-24.6-4.6-15.6-11.9-30.3-21.5-43.5-3.4-4.4-20-24.2-25.3-18.9 1.2 6.1 3.3 11.9 6.2 17.3 2.8 5 6.2 9.5 9.3 14.2l13.1 18.6c8.6 13.1 15.2 27.3 19.7 42.3 3.2 11.8 4.1 24.1 4.6 36.3 0 0 0 .1.1.2zm15.1-41.8c-3.5-1.4-4.2-5.8-5.5-8.8-3.3-8.1-4.8-16.8-8.1-25h0v.1c-5.5-15.1-13.5-29.2-22.5-42.5-3.9-5.6-7.7-11.4-11.9-16.9-3.2-4-6.2-8.5-6.5-13.8.1-1.3-.1-3.1 1-3.9-.4-2.4 3-1.1 4.2-.7 3.8 1.4 7.7 2.7 10.9 5.2 6.1 5.1 10.5 11.8 14.9 18.4 6.1 10 11 20.7 15.7 31.4 4.4 10.2 7.9 20.9 10.2 31.8.6 2.2 1.1 4.4 1.5 6.7.5 3.3 1.1 18.8-3.9 18zm.5-1.9c1.8-2.9 1.5-6.5 1.7-9.8.4-4.9-.8-9.8-2-14.4-3.3-15.4-9.5-29.9-16.3-44.1-4.3-9.2-9.5-17.9-15.5-26-2.8-3.6-5.8-7.2-9.6-9.7-3.3-1.8-6.8-3.2-10.5-4.2 0 .3-.2.6-.4.8-1.6 8.9 6.8 15.1 10.8 22 6.9 9.5 13.2 19.4 19 29.6 5.2 9.5 9.5 19.5 12.9 29.8 1.9 6 3.3 12.2 5.6 18.1 1.2 2.6 1.6 6.2 4.3 7.9zm9.8-13.6c-.2-.2-.4-.4-.4-.7l-1.3-5.8c-1.1-4.4-1.9-9-2.8-13.4-3.2-12.3-6.3-24.6-11.5-36.2-3.3-7.8-7.7-15.2-11.6-22.5-6.1-10.8-15-20.6-17.5-33-.3-2-.5-4-.3-6 .1-.9-.1-2.2.8-2.8-.5-3.1 4.1-.4 5.5 0 2.7 1.3 5.2 3.1 7.4 5.1 7.4 7 13.7 15.2 18.4 24.2 4.6 9.4 8.9 19.2 11.5 29.4 4.3 15.8 7.5 32.3 5.6 48.8-.6 1.9-1 14.7-3.8 12.9zm-1.2-13l1.6 7.4c0 .2.1.4.1.6 2-12.6 1.8-25.5-.5-38.1-1.6-8.4-3.7-16.7-6.3-24.9-5.1-14.6-11.5-29.1-22.1-40.5-4.4-4.6-8.7-9.3-14.9-11.2h0c0 .3-.2.7-.5.8-1.1 10.7 5.5 20.2 11 28.8 4 5.9 7.7 12.1 11 18.5 10.6 18.1 16.5 38.3 20.6 58.6h0zm21.9-10.6c-1-.1-1.2-1.1-1.4-1.9l-1.4-6.8c-1.4-8-3.2-15.9-5.6-23.7-4.3-15.7-11.8-30.1-18.7-44.7-2.8-5.6-5.9-10.9-8.7-16.4-2.9-5-6.4-9.5-9-14.7-2-3.6-4.8-8-2.9-12.1 0-1.7 2.1-2.8 3.6-2.9 5.2-.3 10.7 4.8 14.5 8 5.2 5.1 9.2 11.3 12.8 17.7 6.8 14 10.9 29.1 15.5 43.8 1.5 4.7 2.3 9.7 3.4 14.5 1.7 6.6 2.5 13.4 2.3 20.2-.1 4.4.9 18-4.4 19zm-3.2-20.8c1.4 6.1 2.4 12.2 3.7 18.3 2.5-4.8 1.8-10.4 1.9-15.7.2-7.1-.6-14.1-2.4-21-2.4-12.9-6.8-25.2-10.8-37.6-4.6-14.3-10.9-29-22.5-38.9-3.2-2-8.6-7.5-12.3-4.6v.1c.1.5-.1 1-.5 1.2-.9 3.9 1.7 7.4 3.4 10.7 2.6 5.1 6.3 9.5 9 14.6 4.3 8.1 8.8 16.1 12.5 24.5 7.6 15.3 14.4 31.4 18 48.4h0zm24.7-2.5c-3-.4-3.4-14.6-4.1-17.7-1.5-12.4-4.5-24.5-9.1-36.1-5-12.7-11.9-24.6-19-36.3L324.8 95c-1.9-2.4-3.6-4.9-5-7.6-1.1-2.2-7.8-16-2.4-14.8 4.2-2.8 7.2-2.3 11.6-.5 6.7 2.6 10.5 9.2 14 15.1 5.7 9.3 11.1 18.6 16.1 28.3 5.2 8.9 6.7 19.1 8.6 29.1 1.7 9.2 3 18.4 2.4 27.8.1 3.5-1.9 23.8-5.6 23.5zm.2-2.8c2.3-7.1 3.4-14.5 3.4-21.9.5-9.5-1-18.8-2.8-28.1-1.4-6.3-2.1-12.9-4.5-18.9-2-4.7-4.3-9.4-6.9-13.9-4.7-8.7-9.8-17.2-14.9-25.6-2.7-4.3-5.9-8.8-10.8-10.7-2.3-.9-4.7-1.8-7.1-1.2l-3.9 2.1c1.6 9.9 8.4 17.6 13.8 25.6 5.3 7.3 9.4 15.4 13.9 23.2 6.5 12 11.4 24.9 14.5 38.2 3 10.2 3 21 5.3 31.2zm14.6-38c-.7-.4-.8-1.4-.9-2.1-.8-4.3-1.2-8.7-1.6-13-1.1-9.1-3.6-17.9-7.3-26.2-5.6-11.4-12.6-21.9-19.1-32.8-5.2-7.6-11.7-14.5-14.7-23.3-.7-1.4-1.5-7.5 1-6.3.6-.8 1.5-1.3 2.4-1.6 1.9-.7 3.9-1.2 5.8-.4 6.4 2 11.1 6.9 15.6 11.6 5.7 6.5 9.4 14.4 12 22.6 2.4 7.4 4.2 15.1 6.2 22.6 2.3 10.8 3.9 21.8 4.7 32.9.1 4.4-.4 8.8-1.7 13-.4 1.1-.6 3.6-2.4 3zm.4-6.7l.3 2.5c2.8-9.7.7-19.5-.5-29.2s-3.7-19.3-6.3-28.7c-2-7.8-4.4-15.7-8.5-22.6v.1.1c-2.5-4.6-5.8-8.7-9.7-12.2-3-3.1-6.6-5.5-10.7-7-1.9-.8-4.4 0-6 1.1-.3.5-.9.7-1.4.5 0 9.9 11.1 20.3 16 28.6 6.1 10.8 13.3 20.9 18.5 32.2 3.3 7.5 5.6 15.4 6.8 23.5.7 3.7.9 7.3 1.5 11.1z"/></g><g fill="#308d8a"><path d="M336.9 36.7h12.4l-24.2 25.2c-6.3 6.7-12 14.1-18 21-10.3 12.2-19.7 25.2-29.2 38-.2.1-.4.3-.5.6-7.1 9.7-14.3 19.3-21.9 28.7-18.2 23.1-31.1 49.7-47.9 73.6-4.1 5.9-8.3 11.8-12.1 18-2.7 4.1-4.8 8.5-7.7 12.5-2.5 3.2-4.8 6.5-7.1 9.8-.4.2-.6.6-.7 1-4.4 6.5-8.5 13.1-12.6 19.8-.5.1-.9.6-.8 1.1v.1c-.9 1.5-1.9 3-2.8 4.5-4.3 6.9-7.9 14.1-11.7 21.2-4.2 7.6-8.3 15.3-11.9 23.2-2.5 5.5-4.8 11.1-7.2 16.6h0c-.8 0-1 .9-1.1 1.5-.1.4-.1.8-.1 1.2l-.5 1c-2.4 7.4-5.3 14.6-8.1 21.9 1.6-10.7 5.8-20.9 8.3-31.4 1.5-4.3 3.2-8.4 5-12.6.7-.8 2.3-2.9 1.8-4l6.8-14.7c5.5-11.2 11.6-22 17.8-32.8.3-.2.5-.5.5-.9l12.1-20.7 30.6-50.7c.4-.4.8-.9 1.2-1.4.2-.2.3-.5.2-.8l11-16.7 2.1-3.2c.5-.3.8-.8.9-1.3 15.7-24.1 30.2-49.1 48-71.8l14.2-18.3c1.5-1.8 3-3.5 4.5-5.2.5-.2.9-.7 1.1-1.2 2.7-3 5.4-5.9 7.9-9 8.9-9.9 17.1-20.4 26-30.3 4.4-4.5 9-9.1 13.7-13.5zm42.6 85c1.2 9.7 3.4 19.5.5 29.2l-.3-2.5c-.5-3.8-.8-7.5-1.3-11.3-1.2-8.1-3.5-16-6.8-23.5-5.2-11.3-12.4-21.5-18.5-32.2-4.9-8.3-16-18.7-16-28.6.5.2 1.1 0 1.4-.5 1.6-1.1 4.1-2 6-1.1 4.1 1.5 7.7 3.9 10.7 7 3.9 3.5 7.1 7.6 9.6 12.1 4 6.9 6.4 14.8 8.5 22.6 2.5 9.5 5 19 6.2 28.8zm-14.2 21.4c1.8 9.3 3.3 18.6 2.8 28.1 0 7.4-1.1 14.8-3.4 21.9-2.4-10.2-2.3-21-5.2-31.2-3.1-13.3-8-26.1-14.5-38.2-4.5-7.8-8.6-15.9-13.9-23.2-5.4-8-12.2-15.7-13.8-25.6l3.9-2.1c2.4-.6 4.8.3 7.1 1.2 4.9 1.9 8.1 6.3 10.8 10.7 5.1 8.5 10.2 16.9 14.9 25.6 2.5 4.5 4.8 9.1 6.9 13.9 2.3 6 3.1 12.6 4.4 18.9zM343 180c1.8 6.9 2.6 13.9 2.4 21-.1 5.2.7 10.8-1.9 15.6l-3.7-18.3c-3.5-17-10.4-33.1-18-48.6-3.7-8.4-8.2-16.4-12.5-24.5-2.7-5-6.4-9.5-9-14.6-1.7-3.2-4.4-6.8-3.4-10.7.4-.2.7-.7.5-1.2v-.1c3.8-2.9 9.2 2.6 12.3 4.6 11.6 10 17.9 24.7 22.5 38.9 4 12.7 8.4 25 10.8 37.9zm-20.5 19.7c2.3 12.6 2.4 25.5.5 38.1 0-.2-.1-.4-.1-.6-.5-2.5-1.1-4.9-1.6-7.4-4.1-20.3-10.1-40.5-20.5-58.6-3.3-6.4-6.9-12.6-11-18.5-5.5-8.6-12-18.1-11-28.8.3-.2.5-.5.5-.8h0c6.2 1.9 10.5 6.7 14.9 11.2 10.7 11.3 17.1 25.9 22.1 40.5 2.4 8.2 4.5 16.5 6.2 24.9zm-10.3 32.5c1.2 4.6 2.4 9.5 2 14.4-.3 3.2 0 6.9-1.7 9.8-2.7-1.7-3-5.3-4.3-7.9-2.3-5.9-3.8-12-5.6-18.1-3.4-10.3-7.7-20.2-12.9-29.8-5.8-10.2-12.1-20.1-19-29.6-4.1-7-12.4-13.1-10.8-22 .2-.2.4-.5.4-.8 3.7 1 7.2 2.4 10.5 4.2 3.8 2.5 6.8 6.1 9.6 9.7 6 8.1 11.2 16.8 15.5 26 6.7 14.2 12.9 28.6 16.3 44.1zm-12.5 48c.1 4 .5 8.1-.2 12.1-.6 2.7-1.5 5.3-2.7 7.7v-.4c-.5-12.1-1.4-24.5-4.6-36.3-4.5-15-11.1-29.2-19.7-42.3-4.5-6.1-8.8-12.4-13.1-18.6-3.1-4.7-6.5-9.3-9.3-14.2-3-5.4-5.1-11.3-6.3-17.4 5.3-5.2 21.9 14.5 25.3 18.9 9.6 13.2 16.9 27.9 21.5 43.5 2.6 8.1 5.3 16.2 6.6 24.6 1.4 7.6 2.3 15 2.5 22.4zm-19.6-8.5c.3 4 .8 8.1.8 12.1-.1 4.2-1.4 8.4-2.1 12.5-1.7-6.4-1.8-13.2-3.3-19.7-2.1-11-5.4-22-11.2-31.7h0c-4.5-8.8-9.7-17.2-15.5-25.2-3.5-4.6-7-9.4-10.7-13.9-2.7-3.9-6.2-7.9-7.1-12.7a.76.76 0 0 0 .2-.4c4.5 1.4 8.1 4.4 11.6 7.6 3.8 3.4 7.3 7.2 10.5 11.3 4 5.5 8.1 11 11.1 17.2l11.1 25.1c2.1 5.7 3.7 11.7 4.6 17.8zm-16.5 14.7c2 8.4 3.3 17 2.2 25.6-.3 2.6-.1 5.4-1.2 7.8-2.3-2.2-2.7-5.7-3.7-8.8h0c-2-9.7-4.8-19.1-8.3-28.4-4.3-10-9.8-19.5-15.2-29-3.9-7.6-7.7-15.1-12.3-22.3-2.7-5.6-6.8-10.7-8.4-16.8 0-.1.1-.1.1-.2 7.2 1.4 12.8 6.9 17.6 12.2 5.5 5.8 10.3 12.3 14.3 19.4 6.8 12.7 11.5 26.4 14.9 40.5zm-11 48.2c.4 6.2-.3 12.4-2 18.4-2.6-10.1-3.8-20.5-7-30.6a189.85 189.85 0 0 0-14.3-36.4c-4.9-9.6-10.9-18.5-17.2-27.2-4.3-7-10.3-13.9-10.3-22.6.1-.2.2-.4.2-.7.2-.3.4-.7.7-1 .4 0 .8 0 1.2.1 6.8 1.7 12.3 6.7 16.3 12.4 6.7 9.1 11.4 19.5 15.8 29.9s9 20.5 11.4 31.5h0c2 8.7 3.9 17.4 5.2 26.2zm-15 17.1c1 9.9 3.7 20 .7 29.8-1-3-1.1-6.2-1.6-9.3-.7-5-1.6-10-2.7-14.9-3.5-14.5-9.3-28.4-17.1-41.2-6.3-11.1-14.7-20.7-22.2-31-4.6-6-11.6-11-12.6-19.1 4.7-2.9 9.9 3.7 13.3 6.4 5.3 4.3 10.8 8.6 15.2 14 15.2 18.6 24.6 41.4 27 65.3zm-23.3 36.2c0 5.6.4 11.2.4 16.8-.2 5-1.7 10.1-3.3 14.9-1.4-6.7-2.1-13.5-2.8-20.4-1.1-7.6-1.8-15.2-3.1-22.7-1.4-10.2-4.6-19.9-8.2-29.5-5.3-12.9-12.3-24.9-19.2-37-4-7.2-9.4-14.5-9.6-23 19.1.4 30.6 25 35.7 40.8 6.4 19.5 9.8 39.7 10.1 60.1zm-14.7 33.4c.2 12.2-.3 24.4-3.5 36.3-.3-7.1.3-14.3-.8-21.3-1.4-11.3-2-22.8-4-34.1A192.06 192.06 0 0 0 180 362c-4.4-10.7-9.4-21.2-14.7-31.5-3.3-6.9-9.6-14.6-8-22.6 5.1 1.7 8.6 6.1 12 10.1 12 13.7 17.5 31.5 21.9 48.8 4.9 17.6 8.3 36 8.4 54.5zm-23.8-9.7a246.6 246.6 0 0 1-1.8 29.7c-1 5-2.1 10-3.4 14.9-.9-15 .3-30.2-1-45.2-.8-10.2-2.8-20.2-6.1-29.9-2.4-7.1-4.9-14.2-8.4-20.9-4.1-8.1-10.7-15.2-11.7-24.5.5-.5.3-1.3.7-1.9 1.2-2.1 4.1-1.2 6.1-1.2 1 .1 2 .5 2.8 1.1a16.14 16.14 0 0 1 6.6 6.6c2.9 3.9 5.4 8.2 7.3 12.7 2.7 6.7 3.7 13.9 5.4 21 2.9 12.2 3.3 25 3.5 37.6zm-21.1-15.8c.9 15.6-.4 31.2-1.6 46.7-.9 9.1-2.8 17.9-4.2 27-1 6.4-1.5 13.2-3.2 19.5-1.1 4.2-2.6 8.2-4.4 12.1h0c-.5-1.1-.7-2.3-.6-3.5.1-2.3.4-4.7.7-7l3.4-25.3c1.1-6.8 1.8-13.7 2-20.6.5-7.8.6-15.6.3-23.4-.9-13.4-2.1-27-5.5-40.1-1.2-4.4-2.7-8.6-4.5-12.8-2-4.1-3.5-8.6-3.4-13.2.2-.6.5-1.2.7-1.8.4-.5.7-1.2 1.3-1.6 3.9-1.5 7.3 2.6 9.5 5.4 4.1 5.2 5.6 11.8 6.6 18.2 1.1 6.9 2.4 13.6 2.9 20.4zm-23.8-21.6c.8 8.1-2.4 15.7-4.8 23.3-5.4 16.6-14.1 31.8-21.8 47.4C93.6 466 83 487.1 74.6 509.2c-1.7 4.3-3.8 8.5-5.6 12.8-1.5 3.9-2.6 7.9-3.5 11.9-1.2-18.3 2-36.5 5.9-54.4 3.9-21.2 9.7-41.9 17.4-62 3.3-9.1 8.4-17.2 13.9-25.2 3-4.2 5.8-8.5 9.7-12 2.8-2.8 6.1-5.1 9.6-6.9-.8 3.8-1.1 7.1.7 7.8.4.1.9-.1 1.2-.4.6-.9 1.1-1.9 1.4-3 .8-2.2 1.7-4.4 2.6-6.6a8.53 8.53 0 0 0 2.5 1.3c.2.6.4 1.1.5 1.7z"/><path d="M127.8 351.5c-.3 1.5-1 2.9-2 4.1-1.3 2-3.1 3.7-5.2 4.8l-10.8 6.3c-10.5 6.6-20.3 14.4-29.2 23.1-4.6 4.5-8.9 9.4-12.7 14.7-4.6 6.7-8.5 13.9-12.7 20.9a340.95 340.95 0 0 0-16.8 33c-2.4 5.1-4.1 10.8-6.8 15.8-2.5-5.2 2.1-16.6 3.8-22.1 6.8-19.8 17.3-38 29-55.2 13.9-22.3 33.8-49 63.4-45.4zm8.3-21.4l-1.1 2.4c-2 2.1-5 3.2-7.6 4.3-2.4 1-4.8 1.8-7.3 2.5-9.7 3.2-19.5 6.4-28.2 11.7-19.6 11.8-38 25.5-54.1 41.9-7.4 7.5-13 16.5-20.1 24.3 4.9-12.8 14.3-23.3 23.3-33.4 15.6-17.5 34-32.2 54.6-43.5 6.6-3.5 13-7.1 20.2-9.2 4.9-1.3 15.9-4.6 20.3-1zm-4.7-27.3c5.3.1 10.9-.5 16 1.4-4.3 6.9-13.7 7.4-21 8.9-6 1-11.8 2.3-17.7 3.6-13.4 2.6-26.3 7.3-38.8 12.7-14 6.5-26.7 15.4-39.6 23.7-9.7 6.3-19.5 12.6-27.8 20.6.4-.8.8-1.5 1.3-2.2 4.5-8.4 11.2-15.2 17.5-22.2 5.3-4.8 11.2-8.9 17-13 19.1-13.4 40.6-23 63.3-28.4 9.6-2.7 19.5-4.8 29.8-5.1zm29.2-21.7c-4.8 2.9-10.7 3-16.1 4.3-8.8 1.8-17.6 3.3-26.4 4.7-19.6 3.7-39.6 5.5-58.8 10.5-7.2 1.7-14.2 4.1-21.1 6.4-8.7 3.7-17.1 8-25.6 12.1 15.2-13.6 34.2-22.4 52.9-30 21.3-7.9 44-13.6 66.8-12.5 9.6.1 19.1 1.6 28.3 4.5zm-5-25.5c5.9.8 12.3 1 17.6 4.2-5.2 5.1-13.2 4.6-20 5.1-16 1.1-32-1-48-1.2-24.1-1.1-47.6 5.4-71 10.4 3.6-3.6 8.6-5.3 13.2-7.3 7.3-2.7 14.9-4.9 22.5-6.6 18.9-4.7 38.4-6.8 57.9-6.2 9.2.1 18.5 1 27.8 1.6zm13-32c7.5 1.3 14.7 3.7 22 5.9-6 7.2-17.9 6.2-26.4 6.4-7.9.2-15.9.1-23.8.7-19 2-37.6 6.4-56.5 8.9-7.4.7-14.8 2.6-22.3 2.4h-3.1c17.1-7.3 34.5-13.7 52.3-19.1 9.4-2.7 19.1-4 28.8-5.2 9.5-1 19.4-1.4 29 0zm36.3-15.4c-4.3 4.9-20.2 2.5-26.8 2.6-11.1-.3-22.2-1.1-33.3-1.4-13.4.1-26.6 2.5-39.9 3.9-6.1.9-12.1 2.4-18.2 3.3-4.2.7-8.5 1.1-12.7 1.8 2-1.1 4-2.1 6-3.1 14-6.4 29.1-9.8 44.1-12.7 10.2-2.1 20.5-4.1 30.9-4.9 11.5-.9 23.1.2 34.4 2.2 4.2 1.5 13.4 4.3 15.5 8.3zm13.3-23.2a1.36 1.36 0 0 1 .7 1.1c-2.4.8-4.9 1.1-7.4.9-5.5.3-10.9-.8-16.2-1.9-8.7-1.5-17.4-3.2-26.2-4.4-24.7-3.6-50.5-4.3-74.4 3.6 2.3-2.4 5.8-3.2 8.8-4.3 3-1 6.2-1.8 9.3-2.4 5.2-1.7 10.6-2 16-2.9 7.6-1.3 15.3-1.3 23-2 9.6-.5 19.2-.3 28.7.5 9 .6 18 1.9 26.4 5.4 4 1.6 7.8 3.7 11.3 6.4zm15.5-21.9c-.9.8-2 1.4-3.1 1.5-7.1.3-14-2-20.9-3.6-10.8-2.8-21.5-6.2-32.8-6.8-11.2-.4-22.5-.1-33.7-.3-4.5-.2-9.1-.8-13.6-.8-11.4-.1-22.8-3.6-34.2-1.8 4.2-2.8 9.2-3.4 14-4.8 12.6-3 25.5-3.6 38.4-5 8.6-1 17.2-1.1 25.8-.2 10.8.8 21.6 2 32.2 4.8 8.2 1.9 15.9 5.5 22.5 10.6 1.9 2 4.8 3.5 5.4 6.4zm14.1-22.3c-2.6.9-4.4 3.5-7.3 3.6h0c-19.4-.6-37.4-9.4-56.1-14-12.9-4-26.4-4.9-39.7-6.8-5.8-.7-11.6-1.5-17.4-1.8-6.9-.8-13.9-2-20.7-.5 3.3-2.4 7.6-2.8 11.4-3.9 7.9-1.9 16-2.3 24.1-2.9 11-.6 22-.3 33 1 11.5 1.8 22.9 4.4 34.1 7.9 10 3.4 32.4 9.2 38.6 17.4zm16.6-25c-1.8.5-3.7.9-5.6 1.1h.1c-9.4.7-18.5-2.8-27.3-5.8l-25.4-8.5c-18.3-6.1-37-11.1-55.9-15-6.9-1.4-13.9-2.6-20.9-3.7-2.5-.4-5.6.1-8-.7.3-.6 1-1 1.6-1.1 2.3-.5 4.6-.8 7-1.1 6.3-.5 12.7-.2 19-.1 23.8.5 47 6.6 69.8 13 6.8 1.8 13.5 4 20.3 6 9.7 2.6 20 6.9 25.3 15.9zm22.9-26.9c-1.7.9-3.6 1.5-5.5 1.8-9.5-.2-18.3-4.8-27.2-7.9-15.1-5.4-29.8-11.7-45.3-16.1-10.6-3.2-21.7-4.4-32.7-4.9l-24.8-2.1c-6.6-.7-13.3-.3-19.6-2.8 12.2-6.5 32.4-5.4 46.2-4.6 20.8.5 41.3 4.9 61.1 11.2 12.9 4.1 26.2 7.8 37.7 15.1 3.6 2.6 9.4 5.7 10.1 10.3z"/></g><g fill="#110802"><path d="M340.8 101.6c-3.5-3.9-4.9-9.1-8.1-13.2-.7-1.1-3.6-3.6-1.9-4.6.5-.2 1 0 1.2.4.7 1.5 1.8 2.5 2.7 3.8 2.2 3 3.5 6.5 5.5 9.7.6.9 1.3 1.8 2 2.7a.95.95 0 0 1-.2 1.3c-.3.2-.8.2-1.2-.1h0zm15.1 31.5l-2.8-8c-1-2.6-2.7-5.2-3.4-8-.1-.5.2-1 .7-1.2.5-.1 1 .1 1.1.6 1.4 4.2 3.7 7.9 4.9 12.2l1.3 3.8c.2.5-.1 1-.6 1.2s-1-.2-1.2-.6h0zm4.2-57.3l-3-6.3a.88.88 0 0 1 .5-1.2c.5-.2 1 0 1.2.4l2.9 6.3c.1.5-.2 1-.7 1.1-.3.1-.7 0-.9-.3zm-33.4 63.8c-1.9-4.4-4.1-8.6-6-13-2.7-4.2-5-8.9-8.5-12.6-.6-.7-1.9-1.3-1.3-2.3a.95.95 0 0 1 1.3-.2c3.1 2.6 5 6.1 7.2 9.5 2.5 3.5 4.2 7.4 5.9 11.4 1.2 2.1 2.2 4.4 3.1 6.6.1.5-.2 1-.7 1.2a.89.89 0 0 1-1-.6h0zm8.4 26.7c-.2-1.1-1.6-3.9 0-4.3.5-.1 1 .3 1.1.8.1 1 .4 2 .7 3 .1.5-.3 1-.8 1.1a1.1 1.1 0 0 1-1-.6zm5.5 23c-.4-3.1-1-6.2-1.7-9.2l-.6-2c-.2-.5.1-1 .6-1.2 1.3-.3 1.5 1.6 1.8 2.4.8 3.2 1.4 6.4 1.8 9.7.1.5-.3 1-.8 1.1s-1-.3-1.1-.8h0 0zM294.9 151c-2.2-3.6-4.1-7.6-6.9-10.8-.9-.8.4-2.2 1.3-1.4 3 3.3 4.9 7.4 7.2 11.1.3.4.2 1-.3 1.3-.4.4-1 .2-1.3-.2zm24.7 54.9c-1.6-5.7-2.4-11.5-4-17.2-.1-1.2-1.8-4.2-.1-4.6.5-.1 1 .3 1.1.8 1.5 5.3 2.6 10.8 3.8 16.2.4 1.4.7 2.8 1.1 4.2.1.5-.1 1-.6 1.2-.6.1-1.1-.1-1.3-.6z"/><path d="M280 170.5c-.9-1.5-2-2.9-3.1-4.2-.5-.6-1.6-1.1-1-2 1.7-1.8 4.7 4.1 5.7 5.2.3.4.2 1-.3 1.3-.4.3-1 .1-1.3-.3zm23.9 47.6c-1.6-3.9-2.8-8-4.2-11.9a43.45 43.45 0 0 1-2.4-7.2c-.1-.5.3-1 .8-1 .5-.1.9.3 1 .7.5 2.3 1.3 4.5 2.2 6.7 1.5 4 2.7 8.2 4.4 12.2.1.5-.2 1-.7 1.1s-.9-.2-1.1-.6zm-34.6-14.2a30.92 30.92 0 0 0-3.3-3.9c-.3-.4-.3-1 .1-1.3.6-.5 1.2-.1 1.6.4a27.62 27.62 0 0 1 3.1 3.7c.2.5 0 1-.4 1.3-.4.2-.9.1-1.1-.2zm18.6 37.2c-1.7-5.2-3.9-10.3-6.4-15.1a.88.88 0 0 1 .5-1.2c.5-.2 1 0 1.2.4 2.6 4.9 4.8 10.1 6.5 15.3.1.5-.2 1-.7 1.2-.5.1-1-.2-1.1-.6zM271 119.8a.95.95 0 0 1-.2-1.3c2.1-3 4.4-6 6.7-8.7s3.8-5.6 5.9-8.3c1.5-2.3 3.8-4.2 4.6-6.8.1-.5.6-.8 1.1-.7 3.1 1-5.5 9.6-6.3 11.6-2.4 3.8-5.3 7.1-8 10.6-.8 1.1-1.6 2.3-2.5 3.4a1.23 1.23 0 0 1-1.3.2zm-11-41.3c-5.6-3-11.3-6.1-17.3-8.2-.5-.1-.8-.6-.7-1.1s.6-.8 1.1-.7c6.2 2.2 11.9 5.4 17.7 8.4.4.3.6.8.3 1.3-.1.3-.7.5-1.1.3zm-80.3 11.1c-3.1-.8-6-2.1-9.1-2.1-.5 0-1-.4-1-.9 0-1.1 1.2-1 2-1 3 .3 5.9 1.4 8.8 2.2.5.2.8.7.6 1.2-.3.5-.8.8-1.3.6zm60.7 20c-8.5-3.7-17.4-6-26.2-8.7-3.9-1.4-7.9-2.5-11.9-3.7-2-.7-3.9-1.8-5.9-2.2-.5-.1-.8-.6-.7-1.1s.6-.8 1.1-.7c2.5.4 4.7 1.8 7.2 2.6 5.7 1.3 11.1 3.6 16.8 5 6.8 2.2 13.7 4.1 20.3 7 .5.2.7.7.5 1.2s-.8.7-1.2.6zm-46.9 15.9c-4.4-.6-8.7-1.5-12.9-2.7-1.8-.4-3.4-1.4-5.2-1.5-.5 0-1-.4-1-.9 0-1.1 1.3-1 2.1-.9 3.3 1.1 6.7 2 10.2 2.8 2.4.5 4.8.9 7.3 1.3.5.1.8.6.7 1.1a1.3 1.3 0 0 1-1.2.8zm38.1 13.2c-5.7-3.2-11.8-5.6-18.1-7.1-.5 0-1-.4-1-.9s.4-1 .9-1c2.9.3 5.6 1.6 8.4 2.4 3.7 1.2 7.3 2.8 10.7 4.9.4.3.6.8.3 1.3a.78.78 0 0 1-1.2.4zm-82 9.4c0-1 1.1-1 1.8-1l3.4-.7c.5-.1 1 .3 1.1.8.1 1.5-2.1 1.2-3.1 1.6-1 .1-3 .9-3.2-.7zm50.5 4.4c-4.8-1.5-9.7-1.8-14.6-2.8-1.1-.4-4.9-.5-4.5-2.1.1-.5.6-.8 1.1-.7 6 1.8 12.4 1.9 18.4 3.7.5.1.8.6.7 1.1-.1.6-.6.9-1.1.8zm-.9 29.2l-4.9-.8c-.5-.1-.8-.6-.7-1.1.3-1.2 1.8-.5 2.6-.4l3.2.5c.5.1.9.5.8 1.1a1.13 1.13 0 0 1-1 .7zm-48.4 19.7c0-.5.4-1 .9-1l4.8-.2 5.3.1c.5.1.9.5.8 1.1-.1.5-.5.8-1 .8l-6.1-.1-3.8.1c-.5.1-.9-.3-.9-.8zm43.8 6c-5.1-1.7-10.3-3-15.6-4-.6 0-1.4-.2-1.4-.9 0-.5.4-.9.9-1 5.7.9 11.3 2.3 16.7 4.1.5.2.8.7.6 1.2-.1.5-.7.7-1.2.6zm44 32.6c-1.1-2.4-2.4-4.7-3.9-6.8-.4-.9-2.1-1.9-1.1-2.9 1.2-.8 1.9 1 2.6 1.7 1.6 2.2 3 4.6 4.1 7.1.1.5-.3 1-.9 1.1-.3.1-.6 0-.8-.2zm18.2 39.6c-.2-1-1.5-2.7-.1-3.3.5-.1 1 .1 1.2.6.2 1 1.5 2.7.1 3.3-.5.2-1-.1-1.2-.6zm0-52.7c-1.8-3.3-3.9-6.3-5.9-9.5a.95.95 0 0 1 .2-1.3.95.95 0 0 1 1.3.2v.1c.9 1.5 1.9 3 2.9 4.6s2 3.2 2.9 4.9c.3.5.1 1-.3 1.3-.3.2-.9.1-1.1-.3zm-37.9 30.4l-4.2-6.3-.1-.1a41.95 41.95 0 0 0-3.9-4.5c-.9-.8.4-2.2 1.3-1.4 3.4 3.3 6 7.4 8.5 11.3.2.5.1 1-.4 1.3-.4.2-.9.1-1.2-.3zm5.2 10.9l-2.1-4a.88.88 0 0 1 .5-1.2c.5-.2 1 0 1.2.4l2.1 4c.2.5 0 1-.5 1.2-.4.2-.9 0-1.2-.4zm-10.9 32.7c-2.4-4.2-5.3-8.2-8.5-11.8-2.1-2.9-4.7-5.5-7.5-7.7a.95.95 0 0 1-.2-1.3.95.95 0 0 1 1.3-.2c2.8 2.1 5.3 4.7 7.5 7.5 2 2.5 4.2 4.8 5.9 7.5l3.2 5.1c.2.4.1 1-.3 1.3-.5.2-1.1 0-1.4-.4zm-20.9 21.4c-1.2-2.5-2.6-4.9-4.1-7.2-.3-.5-.1-1 .3-1.3.4-.2 1-.1 1.2.3l4.2 7.5c.2.5.1 1-.4 1.3-.4.1-.9-.1-1.2-.6h0zM226 324c-1.5-3.4-3.4-6.8-4.2-10.3 0-.5.5-.9 1-.9.4 0 .8.4.9.8.6 1.8 1.2 3.5 2 5.2.6 1.5 1.3 2.9 2 4.3.2.5 0 1-.5 1.2-.4.3-1 .1-1.2-.3h0zm-49.2 18.3c-1.9-4-3.7-8.1-5.5-12.1-.9-1.8-1.6-3.7-2.2-5.6-.2-.5.1-1 .6-1.2s1 .1 1.2.6c2.1 6 5 11.7 7.6 17.5a.88.88 0 0 1-.5 1.2c-.4.3-.9.1-1.2-.4zm-17 11.8c-.4-1.6-5.3-8.9-3.1-9.5.5-.1 1 .1 1.2.6.5 1.7 1.2 3.2 2 4.8.3 1.1 2.6 3.9 1.2 4.6-.5.1-1.1-.1-1.3-.5zm-12.1 31.1c-.5-5.8-2.3-11.4-3-17.1 0-.5.4-1 .9-1s1 .4 1 .9h0c.8 5.6 2.5 11.1 3 16.8.1.5-.3 1-.8 1.1s-1-.2-1.1-.7h0zM92 438.5c-.4-.3-.6-.8-.4-1.3l5.8-12c2.4-4.8 5.4-9.3 7.5-14.2 2-4.2 3.6-8.7 5.8-12.8 1-1.4 4.9-9.9 6.6-8.5a.95.95 0 0 1 .2 1.3c-7.7 9.7-10.3 22-17 32.3-2.1 3.7-3.8 7.6-5.6 11.4-.6 1.1-1.1 2.2-1.7 3.4-.2.5-.7.6-1.2.4zm-11.8 34.4c-1.6-.5 0-3.4.1-4.5.9-3.7 2.3-7.3 2.7-11.1.1-.5.4-.8.9-.9 2.2.1-.1 5.5-.2 6.8-.8 3-1.7 6-2.4 9-.1.5-.6.8-1.1.7zm16.3-104c-.3-.4-.3-1 .1-1.3 3.4-2.8 6.9-5.3 10.7-7.5 1.2-.5 4-3.4 4.9-1.5.1.5-.1 1-.6 1.2-2.7 1.4-5.2 3.2-7.8 4.8-2.1 1.4-4 2.9-6 4.5-.4.2-1 .2-1.3-.2zm12.7-60.1c-.1-.5.3-1 .8-1.1 3.5-.9 7.1-1.4 10.8-1.5.5 0 1 .4 1 .9s-.4 1-.9 1h0c-2.3.1-4.5.3-6.7.6-1.3.2-2.6.6-4 .8-.6.1-.9-.3-1-.7zm-34.9 10.7c-.2-.5 0-1 .4-1.2l6-2.8c1.3-.5 6.9-4 7.4-2.1.1.5-.1 1-.6 1.2-4.2 1.4-7.9 3.8-12 5.4a.88.88 0 0 1-1.2-.5zM64.1 292c-.1-.5.3-1 .8-1.1 2.7-.5 5.2-1.4 7.9-2 .5-.1 1 .3 1 .8.1.5-.3.9-.7 1l-7.9 2c-.6.1-1-.2-1.1-.7zm25.9-5c-.5 0-.9-.5-.9-1 0-.4.3-.8.7-.9 4.1-1.2 8.3-2 12.5-2.4 9.8-1 19.6-.8 29.3-2 .5-.1 1 .3 1.1.8s-.3 1-.8 1.1c-13.8 1.8-28.3.4-41.9 4.4zm16.6-29.4c-.2-.5.1-1 .6-1.2a23.72 23.72 0 0 1 6.5-.9c.5 0 1 .4 1 .9s-.4 1-.9 1h0c-.6 0-1.1 0-1.6.1-1.5.1-3 .4-4.5.8-.5 0-.9-.2-1.1-.7zm39.1 2.3l-8.7-.6-3.7.1c-.5 0-1-.4-1-.9s.4-1 .9-1c2-.1 4-.1 6 0l6.7.5c.5.1.9.5.8 1s-.5.9-1 .9h0 0zm-56.6-20.7c-.1-1.5 5.2-2.1 6.4-2.5l19-3.7c5.7-.7 11.2-2.1 16.9-2.6.5 0 .9.5.9 1 0 .4-.4.8-.8.9-12.6 1.6-25.2 4.3-37.7 6.7-1.3.3-2.5.7-3.8 1.1-.5 0-.9-.4-.9-.9zm76.2-9.3c-5.4-.5-10.9-.5-16.4-.2-.5.2-1 .1-1.3-.4-.1-.1-.1-.3-.1-.4 0-.7.7-1.1 1.4-1.1 5.5-.3 11.1-.2 16.6.3.5.1.9.5.8 1-.1.4-.5.8-1 .8zm46-20.8c-.4-.3-.6-.8-.4-1.3 1.5-2.7 3.2-5.3 5-7.8.5-1.9 3-.2 1.5 1.2-1.1 1.4-2 2.9-2.9 4.4-.9.9-1.8 4.2-3.2 3.5z"/><path d="M142.9 327.5c0-1.3.9-2.5 1.4-3.6 2.1-4.4 4.5-8.6 6.7-13 2.7-5.6 5.8-11.1 9.1-16.4 3.3-5.8 6.9-11.3 10.2-17.1l9.2-15.1c4.4-5.8 7.5-12.2 10.9-18.6 1.9-2.9 4.2-5.7 5.9-8.8l6.3-10.9 27.4-43.1c4.1-6.6 8.8-12.8 13.2-19.3 5.3-6.9 11-13.5 15.9-20.6 5.1-7.7 10.8-15.1 16-22.7 6-7.2 11.9-14.7 17.6-22.1l20-26.4c3.4-4.1 7.2-7.8 10.8-11.8 4.3-5 8.8-9.8 13.5-14.5 1.9-2 4.1-3.6 5.8-5.7.3-.3.6-.4 1-.2.9-.9 3.9-5.9 4.8-2.9 1.4-.2 1.5 1.5.7 2.2-2.2 2.7-5 4.9-7.4 7.5 0 .2-.2.4-.3.6h0c-4.1 3.8-7.4 8.4-11.4 12.3a10.04 10.04 0 0 1-3.5 3.3c-3.4 3.3-6.6 6.9-9.8 10.3-5.4 7-11.1 13.8-16.9 20.5.9 1.2-1.3 2.7-1.9 3.6-1 1.3-2 2.6-3.1 3.8-.5 1.8-2.3 3.1-3.4 4.6-2.2 2.6-4.3 5.4-6.4 8-3.2 3.5-5.1 7.9-8 11.5-4.7 5-8.3 10.9-12.8 16.1-3.3 4.4-6.8 8.6-10 13.1-2 3-3.6 6.3-6 9.1-3.4 4.1-5.9 8.8-8.6 13.3-7.2 10.6-13.4 21.8-19.7 32.9-3 4.5-6.5 8.6-9.6 13-1 1.6-1.5 3.6-3 4.8-2 3.8-4.8 7.4-7.1 11-3.4 6.1-7.4 11.9-10.9 17.9-4.7 6.5-9.7 12.7-13.6 19.6-3.7 5.7-7.9 11.1-11.1 17.1-3.1 5.5-6.8 10.4-9.3 16.3-3.1 6.4-7.2 12.2-10.2 18.7-.5.8-.6 1.9-1.5 2.4-.4.1-.8-.2-.9-.7zm96.6-157l.8-1.3-.1.1c.1-.2.2-.3.3-.5-.4.6-.7 1.1-1 1.7h0zM337 46.3c-.5.5-1.1 1-1.6 1.6l1.7-1.4.3-.2-.2-.1-.2.1z" fill-opacity=".25"/><path d="M216.7 212.5l-1.2 1.6c-.2-.6.1-1.3.8-1.5.1-.1.3-.1.4-.1zm-14 20.6l-1.7 2.6h0c0-1.8.7-2.5 1.7-2.6zm61.8-118.6c.3.4.4.8.4 1.3 0 2-8.8 1.7-10.5 1.9-4.6-.2-9.1-.8-13.6-1.8-2-.6-4.4-.7-5.9-2.2-.6-.9.2-1.7 1.1-1.8 3.7-.9 14.4-1.4 11.4-7.4-.4-.3-.5-1.1-.9-1.4s-.8-1.2-1.4-1.2c-.5-.1-.8-.7-.7-1.2.1-.3.3-.6.6-.7 1.7-.3 2.9 1.7 3.7 2.9 3.9 1.2 7.7 3 11 5.4 1.9 1.8 3.5 3.9 4.8 6.2zm106.4-35.9c1.9 4.3 3.7 9 3.7 13.7-.2.6-.3 1.2-.3 1.8-.1.5-.6.9-1.1.8-.3 0-.6-.2-.7-.5-2.9-8-7.2-15.4-12.7-21.9-2.2-2.9-4.9-5.7-8.6-6.7-1.8-.5-3.7-1.5-5.6-.9-1.6 1.1.1 4.3-2 4.9-.5.1-1-.2-1.3-.7-.7-1.1-1.2-2.2-1.8-3.4-2.2-1.8-2.7-5-3.9-7.5-2.8-5.4 1.1-7 5.9-7.2.2-1.9 2.9-.6 4-.3 1 .5 3.2.5 3.2 1.9 2.6 1.3 4.5 3.8 7 5.2 7.9 4.2 11.2 13 14.2 20.8zm-11.8 38.9c.4 1.1 1.9 2.4.9 3.5-.4.4-1 .3-1.4-.1-.8-1-1.6-2.2-2.3-3.3-1.3-1.5-2.5-3.1-3.5-4.9-2.2-2.5-4.2-5.1-5.9-8-1.8-4-4.2-7.6-7-10.9a23.17 23.17 0 0 0-3.4-4.8h0 0c-2.5-2.4-5.3-5.2-8.8-5.7-4.3.5-3.9 4.3-3.3 7.5 1 1.1-.7 2.3-1.5 1.2-.4-.9-.7-2-.7-3-.5 0-.9-.3-1-.7-.3-1.1-.9-2.1-1.3-3.2-1.2-3.5-3.9-6.8-3.7-10.6.8-1.8 3.1-2.3 4.8-2.7 2.8-.7 5.7-.1 8 1.5 4.3 2.4 7.8 5.9 10.1 10.2 3.1 4.8 6 9.8 9 14.7 4 5.6 7.1 11.8 10.3 17.7l.7 1.6zm-39.4-.8l-.4-.5c.1.1.2.3.4.5h0zm16.5 35.2c-.4 1-1.5 1.4-2.5 1-.1-.1-.3-.1-.4-.2l-1.3-4.5-.5-2c-1.8-2.7-2.2-6.3-3.5-9.3-3.1-4.8-5.2-10.1-8.7-14.8-2.1-3.2-4.6-6.5-8.1-8.1-1.5-.6-3.5-1.3-5-.4-.4 2.7-.1 5.4.9 7.9.2.4 0 .9-.4 1.2-1.9.8-2.1-2.5-2.3-3.7-.9.1-1.2-.9-1.5-1.6-1.1-1.8-2.2-3.7-3.2-5.6-1.6.2-1.6-2.1-2.1-3.1-.8-2.3-2.4-5.2-1.3-7.6-.5-3.3 1.6-5.1 4.8-4.8 2.5.4 4.4 2.2 6.4 3.6.8.6 2.4 1.6 1.4 2.7 4.1 3.9 8.5 7.7 12 12.2 4.4 6.1 8 12.7 10.7 19.7 1.1 2.7 2.1 5.5 2.9 8.3.6 2 1.2 4 1.7 6 .3.6.1 1.3-.5 1.6.2.5.4 1 .5 1.5zM313.4 164c.8 1.9 7 16.4 3 15.5-1.5-1.2-2.1-3.5-3.1-5.1-4.1-6.7-7.2-14-11.8-20.3-2-2.8-3.8-5.8-6.1-8.5-1.6-2.2-3.3-4.3-6-5.1-1-.2-1.7-.6-1.8.8-.4 2.6.2 5.2.6 7.8.5.2.7.8.5 1.2-.2.5-.8.7-1.2.5h0a1.63 1.63 0 0 1-1.1-1.3c-2.2 1.5-4-7.3-5-8.8-1.1-3.6-2-7.3-2.6-11-.1-1.5-1.6-5.7-.9-7.5.2-.2.3-.4.5-.7.6-.3 1.3-.2 1.9.1 3.8 2.2 7.3 4.8 10.5 7.9 4.3 3.6 8 7.8 11 12.6 2.2 3.4 4.7 6.7 6.5 10.3s3.3 7.8 5.1 11.6zm-12 33.9c.3 1.2 1.9 3.8-.3 3.8-.7-.2-.9-1-1.3-1.5-1.3-1.8-2.5-3.6-3.6-5.6-2.1-3.7-4.2-7.4-6.1-11.2-4-8.1-8.9-15.9-15.7-21.9-1.1-.8-4.5-3.3-5.4-1.3-.3 4.5 1.4 8.8 3.3 12.8.3.7 1.2 1.3.5 2.1a.94.94 0 0 1-1.3.1c-1.4-1.5-2-3.6-2.7-5.4-.5.4-1.2.3-1.5-.2-1.2-1.3-2.4-2.6-3.5-4.1-1.2-1.7-1.7-3.9-2.9-5.6-.2-.3-.3-.7-.2-1-.6-2.4-5.4-11.8-.6-11.5 2.3.1 4.5.9 6.4 2.1 5.5 2.3 10.3 6 14 10.6 5.1 6.8 9.7 14.1 13.6 21.6 2.8 5.4 5.6 10.5 7.3 16.2z" fill-opacity=".25"/><path d="M217.8 183c.9 1 2.6 2 2.3 3.5-.2.4-.7.7-1.1.8l-8.1 1.5c-3.7-.2-7.2-1.3-10.9-1.8-1.6-.3-8.1-.1-6.1-3 3.9-1.8 11.5-.3 8.8-7.3a1.08 1.08 0 0 1-.2-1.4l.3-.3c1.1-.4 1.8.9 2 1.8 4.5 1.8 9.5 2.8 13 6.2zm38.8 74.9c.5 1.4 2.5 6-.4 5.4a2.36 2.36 0 0 1-.8-.9c-2-3.5-4.1-7-6.4-10.3-2.5-4-5.5-7.7-8-11.7a86.34 86.34 0 0 0-7.1-7.7c-1.6-1.2-3.8-2.6-5.9-1.7-.2.7-.2 1.3-.1 2 .3.6-.1 1.4.1 2.1.2.5 0 1-.5 1.2-1.6.5-1.4-1.6-1.5-2.6-1.3-2-2-4.4-3.1-6.4-2.6-4-5.3-7.9-7.1-12.4-.1-.3-.2-.5-.2-.8l1.2-1.6c.7 0 1.5.1 2.1.4 3 1 5.4 3.1 8 4.8 5.8 5.1 11.3 10.4 16.5 16 2.9 3.3 5.4 7 7.3 11 2.2 4.3 4.1 8.7 5.9 13.2zm2.6-39.2c.8 1.4 8.1 9.3 4.4 9.6-.7-.1-1-.8-1.4-1.3-.9-1.3-1.7-2.7-2.7-3.9-2.8-3.6-5.3-7.2-8-10.8-2.4-3.1-5.2-6.4-9.1-7.7-3.2-.8-3.6.2-2.4 3 .2.3.6.5.6.9 0 1-1.3 1.3-1.9.5-.4-.6-.7-1.2-.9-1.9-2.9-2.1-4.1-5.7-5.7-8.8-.5-1.4-3.8-6.6-.5-6.2 2.9 1.5 6.2 2.6 8.6 4.9 1.2.8 2.2 1.7 3.1 2.8.2.3.2.6.1.9 3.6 3.1 6.8 6.6 9.7 10.4 2.2 2.7 4.4 4.9 6.1 7.6zm-55.6-13.2c1.1.8 3.6 2.8 1.7 4-.1.4-.4.7-.7.8-3.6 1.4-7.5 1.9-11.4 1.6-3.6-.2-7.3.7-10.9.3-.5 0-.9-.2-1.3-.5-.9.1-2.1.5-2.8-.2-.3-.5-.2-1.1.3-1.4.2-.1.4-.2.6-.2 2.9.2 5.8-1.8 8.1-3.3 1.6-1.1 2.9-2.4 4-3.9.9-1.1 1-3.7 2.9-2.9 2.3 1.5 5 2.1 7.3 3.5.8.7 1.4 1.5 2.2 2.2zm36.2 79.1c.3 1 1.3 3.3-.5 3.3-.7-.1-.9-.7-1.2-1.2-.9-2-1.7-4.2-2.9-6.1-1.6-3.4-3.9-6.3-5.6-9.5-2.5-4.7-5.2-9.2-8.2-13.6-2.8-3.8-11.4-10-10-.7.3.5.2 1.1-.3 1.4-.1.1-.3.1-.4.2-.8.1-1.1-.6-1.2-1.3-.5 0-.8-.8-1-1.1-1.4-2.8-2.9-5.4-4.2-8.2-1.7-3.8-4-7.7-3.6-12l1.7-2.6a5.29 5.29 0 0 1 3 .9c6.8 3.4 13.2 8.1 17 14.8 5.1 7.8 9.3 16.1 12.8 24.8 1.9 3.4 3.3 7.2 4.6 10.9zm-47.5-55c.6 1.8-2.3 2.6-3.5 3.4-3.8 2-7.9 3.2-12.1 3.7-3.6.1-7.3.3-10.9.5a6.28 6.28 0 0 1-1.9-.3c-.5-.2-.8-.9-.5-1.4.2-.3.5-.6.9-.6 2.1-.8 4.8-1.7 5.8-3.9.5-2.1-.1-4.4-1.6-6-.3 0-.6-.2-.8-.4-.1-.1-.1-.2-.1-.4-.4-.3-.8-.5-1.2-.8-.6 0-1-.4-1.1-.9 0-.4.1-.7.4-.9 1.2-.6 2.4.7 3.3 1.3 4.7.3 9.1 2.2 13.7 3.2 2.9.6 5.6 1.8 8.5 2.7.5.1.9.4 1.1.8zm-20 28.4c1 .2 1.8 1.5.9 2.3l-1.2.9c-2.1 1.2-4.3 2.3-6.6 3.2-1.9.4-3.8.6-5.7.9-5.4 1-10.9 1.7-16.4 2-1.1.1-2-1-1.1-2 .5-.5 1.4-.6 2.1-.8 2.4-.4 12.1-3.8 8.9-7.2-.6 0-1.3-.5-1.2-1.1-.9-.9-3-.4-3.2-1.9 0-.6.5-1 1.1-.9.2 0 .3.1.4.1 1.4.2 2.7.9 3.8 1.9 3.5.6 7 .9 10.5 1 2.5.2 5.1.8 7.7 1.6zm-13 22.2c.9 0 2.2.7 1.6 1.8-.6.9-1.8.9-2.7 1.3-4 .8-7.7 2.8-11.8 2.9-2.8.5-5.6 1.4-8.3 2.1-2 .5-4.1 1.3-6.1.9-2.7-1.5 2-3.5 3.3-4 3-1.3 9.1-3.3 6.3-7.5h0c-.5-.1-.8-.6-.7-1.1.1-.4.4-.7.8-.7.7-.1 1.4.1 1.9.6 2.4 1.5 5.2 1.5 7.8 2 1.5.3 3 .7 4.4 1.4 1.2.1 2.4.3 3.5.3z" fill-opacity=".25"/><path d="M147.2 302.3c3.9 1.6-2.5 5.7-4.2 6.6-2.8 1.7-5.7 3.4-9 3.7-4 1.3-8 2.6-12.2 2.9-.6.1-1.1-.3-1.2-.8-.1-.6.3-1.1.8-1.2 5.7-.7 11.3-4.6 9.7-11v.1c-.3-.5-.1-1.1.4-1.4s1.1-.1 1.4.4c.1.2.1.4.1.7 4.8-.3 9.6-.7 14.2 0zm41.9 52.2c.3.8.4 1.6.4 2.5-.2 1.4-1.8 1.3-2.2.1-1.1-2.6-1.4-5.5-2.4-8.1-1.2-3.1-2.6-6.1-4.2-9-3.5-5-9.8-17.4-16.5-17-.1 1.8-.1 3.6.1 5.4.1.5-.3 1-.8 1.1-1.3.1-1.2-1.4-1.2-2.2-1.5-.4-1.8-2.5-2.5-3.7-1-2.2-1.8-4.5-2.2-6.9v-.1c-.4-1.9-2.4-9.9.5-9.9 1.6.6 2.6 2.5 4 3.4 7 6 13 13.1 17.7 21.1 4.3 7.2 6.9 15.3 9.3 23.3zm-35.4 24.6c1.7 8.4 2.5 17 2.1 25.6 0 3.2-.4 6.5-1 9.6-.3.5-.9.6-1.4.3-.2-.1-.3-.3-.4-.5a112.87 112.87 0 0 0-1.8-21.7c-.4-2.8-1-5.5-1.7-8.2-.8-4.4-2.1-8.7-3.7-12.8-1.1-2.7-2.6-5.9-5.8-6.4-.4 0-.8.2-.9.6a9.6 9.6 0 0 0-.6 3.3c.2.5.4 1.1.1 1.6 1 1-.2 2.5-1.3 1.5-.6-.7-.8-1.5-.8-2.4-.4-1.2-.6-2.5-1.1-3.7-1.3-3.2-2.6-6.6-2.7-10-.2-5.2 3.1-6.2 7.3-3.9 3.7 1.9 6.2 5.6 8.2 9.1 3.4 5.5 4.4 11.8 5.5 18zm-24.6-28.6c1.2 1.2-.5 2.7-1.2 3.7-1.7 2.1-3.8 3.9-6.2 5.3l-7.4 5.8c-1.8 1.3-3.8 2.1-5.2 3.7-.3.5-1 .7-1.6.5-1.5-1.1.7-2.3 1.3-3.2 3.3-3.9 7.3-8.5 5.9-13.9-.3-.5-.5-1.1-.3-1.7.2-.5.7-.7 1.2-.6.2.1.4.3.5.5 2.3 0 4.8-.4 7.1-.6 2 .1 4.2-.4 5.9.5zm7.1-20.9c-.2 2.1-1.3 3.9-3.1 5-4.1 2.7-8.5 5-13.1 6.6-2.1.6-4.1 2.1-6.3 2.3-1.6-.6-.3-2 .6-2.6 1.3-1 2.5-2.1 3.5-3.4 1.7-2 2.1-4.9.9-7.3a.97.97 0 0 1 .1-1.4c.2-.2.5-.3.8-.2.5.3.9.8 1.1 1.3 3.4-1.4 7.1-2.1 10.8-2.1 1.6.2 4.7-.4 4.7 1.8zm84.4-29.7c.3.7 1 1.5.8 2.3-.2.5-.8.8-1.3.6-.1 0-.1-.1-.2-.1-2.9-3.8-5.5-8-9.1-11.2-2.8-3.1-5.6-6.1-9.2-8.2-1.7-1-10.1-5.7-8.7-.7a1.07 1.07 0 0 1 .1 1.4c-.1.2-.3.3-.6.3-1.1 0-1.4-1.2-1.6-2-.3-.1-.7-.3-.9-.6-1.5 1.5-3.9-3.7-4.6-4.8-1.4-2.7-3.9-5-4.4-8.1s1.9-4.3 4.6-3.7c2.7-1 4.8 2 6.7 3.4 1.3 1.1 2.4 2.2 3.5 3.5.3.3.4.7.4 1.1 5.4 3.6 10 8.2 14.5 12.8 3.7 4.4 7 9.1 10 14zm-91.1 71.6c3.4 1.6 2.8 5.7 2.2 8.7-.7 3.9-1.8 7.7-2.8 11.5-.7 3-1.3 6-2.2 8.9-1.3 3.7-3.1 7.2-4.7 10.8-2.2 5.8-5.2 11.1-8 16.6-2.2 4.6-4.5 9.2-7.1 13.7-4.3 7.9-8 16.1-11.9 24.1-.5 1-.9 2.1-1.3 3.2-.1.9-1.1 1.8-1.9 1-.3-.3-.4-.8-.2-1.2.3-.7.5-1.4.7-2.2 1.3-4.1 2.2-8.2 3.7-12.2 1-2.8 2.5-5.7 3.4-8.5 3.6-13.5 8.4-26.4 13.7-39.3 2.2-6.1 4.1-12.3 6-18.4 1-2.7.4-6.5 3.4-7.9 0-.3.1-.6.4-.8.6-.6 1.1-1.3 1.5-2.1 1.1-2 .9-4.9 3-6.1.1-.5.6-.9 1.1-.8.7 0 1.1.5 1 1zm81.2-20.5c.2.8-.3 1.9-1.3 1.6-.5-.2-.7-.7-.9-1.2-.8-2-1.4-4.1-1.8-6.2-1-4-2.4-7.8-3.7-11.7-2.5-5.2-4.1-10.8-7.2-15.7-3.2-6.3-7.1-12.7-13.7-15.8-1.9-1-5.7-1.3-5.5 1.7.3.8 1 1.9.1 2.5 1 1.3-1.1 2.4-1.7.9-.2-.4-.3-.8-.3-1.2.2-2.5-1.7-4.6-2.6-6.8-1.2-3.2-2.9-6.1-4-9.3-.3-.9-.8-1.9-.4-2.9.7-1.1 2.8-.9 3.9-.9 7.3.1 15.5 7.9 20.3 13 4.8 6.6 7.6 14.5 10.5 22.1 2.7 8.2 5.8 16.3 7.4 24.8.4 1.7.7 3.4.9 5.1zm-33.8 38.8c-.1.5-.6.9-1.1.9-.3 0-.6-.2-.8-.6-.9-5.3-2.9-10.3-4.1-15.4a78.62 78.62 0 0 0-5.9-17.1c-1.1-2.3-2.4-4.5-3.6-6.8-1.1-2.3-2.7-4.3-4.8-5.7-1.4-.9-3.9-1.2-4.4.8s-.9 4.5.3 6.4c.1.3.1.7-.1 1 .6 1.1-.9 1.9-1.7 1-.5-.7-.8-1.6-.7-2.5l-1.9-3.1c-1.8-2.7-3.2-5.5-4.3-8.6-2.8-6.7.2-9.4 7-8.6 2.5.2 4.3 2 6.3 3.4 5.1 4.1 8.6 10 11.3 15.9 4 9.2 5.6 19.3 7.2 29.1 0 3.2.5 6.6 1.3 9.9zm111.7-163.7c0 .6-.5 1-1 1-.3 0-.5-.1-.7-.3-2.4-5.1-5.7-9.6-8.5-14.5-2.9-4.9-6.8-9.2-10.4-13.6-2.6-2.4-5.1-5.2-8.3-6.9-1.4-.5-4.5-1.8-5.3 0 .1 1.7.5 3.3 1.3 4.8 2.3 1.2-1.4 4.1-2.6-1.4-.4 0-.7-.2-.9-.6-1-1.6-2-3.3-2.8-5-1.6-3.7-3.6-7.3-4.4-11.3-.8-2.3-1.8-4.5-1.7-6.9 0-.4.2-.8.6-.9.6-2.4 3.2-.7 4.5.1a29.68 29.68 0 0 1 6.2 4.5c5.2 3.3 9.7 7.5 13.4 12.4 3.9 4.6 7.3 9.6 10 14.9 3.6 6.1 6.6 12.5 9.1 19.1.6 1.5 1.2 3 1.5 4.6zm-57-68.1c6.1 5.4 3 7.5-3.8 7.6-4.2-.5-8.4-1.4-12.4-2.6-1.5-.5-3.2-.5-4.6-1.3-1.6.1-3.3 0-4.9-.2-.9-.1-2-.1-2.6-.9-.9-1.1.7-2.4 1.5-1.2 5.1.8 10.7.4 14.9-2.7.2-.2.3-.4.3-.6.3-2.1-1-3.8-2.7-4.8-.5-.3-1.1-.7-1.1-1.3.3-1.3 1.5-1 2.2-.2.8.4 1.6.9 2.1 1.6 3.5 2.7 7.7 4.1 11.1 6.6zm-6.5-29.9s0-.1 0 0c0-.1 0-.1 0 0h0zm16.4 6.3c1.8 1 7 3.5 7 5.8-.6 1.5-2.7 1.9-3.9 2.7-1.6 1-3.4 1.9-5.4 1.8-6.7-.6-13.6-.8-20-3-1.6-.6-3.9-.4-4.9-2.1-.3-1.9 2.1-1 3.2-1.2 3.2-.8 6.7-.8 9.7-2.3 4.2-2 1.7-5.5-1.1-7.3-.4 0-.8-.2-.9-.6v.1c-.2-.5 0-1.1.5-1.3.2-.1.3-.1.5-.1 1.6.4 2.9 1.9 3.9 3.2.6-.1 1 .3 1.4.6 1.2.9 3 1 4.3 1.5 2 .5 3.9 1.2 5.7 2.2h0zm47-45.1c-.2 2.1-4.9 1.8-6.5 1.8-3.5.3-6.8-1.2-10.2-1.8-3-.6-5.9-1.5-8.7-2.6-.8-.3-2.1-.4-2.3-1.5-1.5-.4-3.6.2-4.7-1.1-.3-.4-.1-1 .3-1.3.4-.2.8-.2 1.1.1 5.1.4 11.6 2.3 15.6-1.9 1.1-1.3.1-2.8.2-4.3.3-2.4 3-.4 4.2.2 5 2.4 9.8 6.8 11 12.4z" fill-opacity=".25"/></g></svg>