<svg xmlns="http://www.w3.org/2000/svg" width="1139.31" height="305.02"><g data-name="Layer 2"><g data-name="white clouds" fill="#fefefe"><path d="M588.57 99.69q-35.05-.54-70.09-1.61c-18.19-1.13-36.3-3.36-54.38-5.57-11-1.74-22-3.07-32.88-5.19-15.78-3.77-31.72-7-48-6.68-16.81-.21-33.61.91-50.41.57-19.53-1-38.91-3.84-58.41-5.2-7-.45-14-.88-20.83-2.57-5.64-1.08-11.31-1.62-16.91-2.72-10.35-1.42-20.86-.8-31.28-1-14.55 0-29.1-.13-43.63.7-17.21.21-39 6.06-52.46-7.76-1.6-1.69-4.52-3.94-1.36-6.11 5.65-4 12.73-5.3 19.47-6.19 9.88-1.15 19.52-3.73 29.42-4.7 19.37-1.51 39.09-.75 58.38-2.74a67.09 67.09 0 0 0 12.67-2.29c6.16-2.27 12.22-4.87 18.76-5.84 7.33-1.47 14.9-.59 22.23-2-22.27-4.61-45.07-3.47-67.61-2-9.37.51-18.74-.83-28.1-.5-6.31.11-12.5 1.7-18.77 1-4.56-1.05-1.14-4.12 1.39-5.55 7.93-4.52 15.92-9.15 24.88-11.3 13.05-3.68 26.45-5.47 39.94-6.56 17.28-1.85 34.68-2.07 52-1.9 15.09 0 30.06 2.19 45.16 1.52a188.59 188.59 0 0 0 28.68-2.25A143.53 143.53 0 0 1 367.37 3c21.1-.06 42.2.59 63.3 0 18.14-.43 36.21-2 54.33-2.84 13.64-.21 27.4-.52 40.93 1.43 11.9 2 23.53 5.74 35.5 7.26 10.63 1.65 21.42 2 32 3.79 1.6.27 3.17.67 4.77.85.91 0 1.18 1.54.25 1.81a2.73 2.73 0 0 1 .94 4.23c-2 2.83-6.86 3.65-7 7.69v-.11a.28.28 0 0 0 0-.09v.06a1.61 1.61 0 0 0 .32.87c1.75 1.84 4.55 2.33 6.82 3.15 2.43.74 4.89 1.39 7.36 2 13.91 3.52 28.35 2.57 42.37 5.34 11 2 21.19 7.19 32.06 9.88 10.3 2.16 20.89 1.82 31.36 1.81 7.44 0 15.25-.25 22.16 3 1.93 1 7 3.06 4.46 5.73-2.27 1.83-4.94 3.26-6.17 6-.94 1.61.84 1.73 2 2 5.67.6 11.4.2 17.09.28 6.3-.06 12.71 0 18.89-1.27 12.41-2.34 24.68-6.67 37.45-5.91 6.8.53 19.86.15 22.25 8 1.4 8.04-16.96 12.67-22.62 16.04-10.73 4.74-22.43 7.07-34 8.89-10.45 2.14-21.06 2.59-31.7 2.67-24.59 1.63-49.23.8-73.81-.52-13.59-.25-27.22-.44-40.78.57-7.11.74-14.09 2.48-21.22 3.1-6 .56-12.05.99-18.11.98ZM564 97.3c14.2.17 28.47 1.06 42.62-.55 10.56-1.18 20.94-3.78 31.62-3.66 11.27-.22 22.57-.35 33.83.11 15.8.9 31.52 1.4 47.31 1.28 11.35 0 22.66-1.13 34-1.14a131.82 131.82 0 0 0 20.77-2.44 163 163 0 0 0 21.43-4.55c6.2-1.42 11.91-4.19 17.65-6.85 5.34-2.39 11.56-4.23 15.26-9a3.35 3.35 0 0 0 .31-2.4c-2.35-5.23-9.57-5.11-14.43-5.88a78.06 78.06 0 0 0-17.22.13c-9.89 1.47-19.48 4.44-29.35 6-8.43 1-17 .59-25.43.72a48.23 48.23 0 0 1-8.24-.43 4.61 4.61 0 0 1-2.81-1.42c-.86-1.13-.36-2.62.26-3.74 1.39-2.72 4-4.36 6.39-6.14-7.07-5.79-16.93-5.19-25.56-5.26-9.39 0-18.84.26-28.14-1.21s-17.83-5.6-26.75-8.31a99.21 99.21 0 0 0-20.81-3.84c-10.56-.89-21.2-1.28-31.5-4-4.54-1.33-9.59-2.05-13.48-4.89-2.47-2-1-5.48.87-7.33 1.08-1.45 5.89-3.16 5.38-5.09-1.12-1-2.78-1-4.21-1.21a1 1 0 0 1-.59-1.66c-14.31-2.3-28.91-2.58-43.1-5.71-13.46-3.05-26.9-6.76-40.81-6.7-18.23-.71-36.42.47-54.6 1.77Q430.89 5.32 407 5.2c-16 .26-32-.91-48 .25-9.79 1.08-19.48 3-29.34 3.6s-19.93.56-29.89.26a453.53 453.53 0 0 0-87.88 1.35 160.42 160.42 0 0 0-39 8.31c-5.11 2-9.78 5-14.6 7.51a18.13 18.13 0 0 0-4 2.77c7.52.84 14.91-1.37 22.45-1.06 6.09.09 12.15.67 18.25.67 19.78-.28 39.64-2.95 59.37-.21 5.75.84 11.79 1 17.28 3 2 1.59-.64 2.72-2.12 3-7.51 1.57-15.31.59-22.84 2.13-7.28 1-13.79 4.5-20.8 6.44-9.28 2-18.84 2.4-28.32 2.88-19.71.73-39.65.07-59 4.52-10 2.07-21.08 1.6-29.73 7.64-1 .67.39 1.47.83 2.08 6.28 7.48 16 9.32 25.25 9.47 11.23 0 22.4-1.42 33.62-1.67 21.49-.51 43.06-.77 64.54.18 9.69 1.28 19.23 3 28.83 4.72 17.63 1.46 35.25 3 52.85 4.82 28.84 3.76 58-1.23 86.88 1.79 10.36 1.15 20.48 3.67 30.63 5.93 12.36 2.22 24.81 3.95 37.24 5.72 18.06 1.92 36.08 4.45 54.24 5.07 13.46.22 26.86.69 40.26.93Z"/><path d="M657.45 65.17c-12.87-1.37-25.73-3-38.55-4.82-4.22-.62-8.49-.85-12.73-1.22-3.89-.56-8.24-.53-11.6-2.79-2.2-1.65-.39-4 1.29-5.26 3-2.36 7.06-2.52 10.75-2.57a158.43 158.43 0 0 1 19 .87c5.5.83 11.12 2.19 16.54 3.08 2.87.43 5.74.93 8.64 1.1a.92.92 0 0 1 .82.74c4.23 1.1 8.8 1.68 12.38 4.39 6.88 5.31-1.89 7.12-6.54 6.48Zm4.07-1.93c1-.19 2.46-.26 3.06-1.13-.92-1.64-2.66-2.54-4.27-3.34-4.9-2.05-10.31-2.64-15.33-4-10-1.44-19.84-4.35-30-4.26-6 .27-15.64-1.87-19.47 3.8v-.06a.22.22 0 0 0 0-.06c1 3.06 15.37 3.08 18.73 3.63 10.74 1.37 21.46 2.87 32.21 4.08 4.99.66 10.02 1.68 15.07 1.34Z"/><path d="M588.57 99.69q-35.05-.54-70.09-1.61c-18.19-1.13-36.3-3.36-54.38-5.57-11-1.74-22-3.07-32.88-5.19-15.78-3.77-31.72-7-48-6.68-16.81-.21-33.61.91-50.41.57-19.53-1-38.91-3.84-58.41-5.2-7-.45-14-.88-20.83-2.57-5.64-1.08-11.31-1.62-16.91-2.72-10.35-1.42-20.86-.8-31.28-1-14.55 0-29.1-.13-43.63.7-17.21.21-39 6.06-52.46-7.76-1.6-1.69-4.52-3.94-1.36-6.11 5.65-4 12.73-5.3 19.47-6.19 9.88-1.15 19.52-3.73 29.42-4.7 19.37-1.51 39.09-.75 58.38-2.74a67.09 67.09 0 0 0 12.67-2.29c6.16-2.27 12.22-4.87 18.76-5.84 7.33-1.47 14.9-.59 22.23-2-22.27-4.61-45.07-3.47-67.61-2-9.37.51-18.74-.83-28.1-.5-6.31.11-12.5 1.7-18.77 1-4.56-1.05-1.14-4.12 1.39-5.55 7.93-4.52 15.92-9.15 24.88-11.3 13.05-3.68 26.45-5.47 39.94-6.56 17.28-1.85 34.68-2.07 52-1.9 15.09 0 30.06 2.19 45.16 1.52a188.59 188.59 0 0 0 28.68-2.25A143.53 143.53 0 0 1 367.37 3c21.1-.06 42.2.59 63.3 0 18.14-.43 36.21-2 54.33-2.84 13.64-.21 27.4-.52 40.93 1.43 11.9 2 23.53 5.74 35.5 7.26 10.63 1.65 21.42 2 32 3.79 1.6.27 3.17.67 4.77.85.91 0 1.18 1.54.25 1.81a2.73 2.73 0 0 1 .94 4.23c-2 2.83-6.86 3.65-7 7.69v-.11a.28.28 0 0 0 0-.09v.06a1.61 1.61 0 0 0 .32.87c1.75 1.84 4.55 2.33 6.82 3.15 2.43.74 4.89 1.39 7.36 2 13.91 3.52 28.35 2.57 42.37 5.34 11 2 21.19 7.19 32.06 9.88 10.3 2.16 20.89 1.82 31.36 1.81 7.44 0 15.25-.25 22.16 3 1.93 1 7 3.06 4.46 5.73-2.27 1.83-4.94 3.26-6.17 6-.94 1.61.84 1.73 2 2 5.67.6 11.4.2 17.09.28 6.3-.06 12.71 0 18.89-1.27 12.41-2.34 24.68-6.67 37.45-5.91 6.8.53 19.86.15 22.25 8 1.4 8.04-16.96 12.67-22.62 16.04-10.73 4.74-22.43 7.07-34 8.89-10.45 2.14-21.06 2.59-31.7 2.67-24.59 1.63-49.23.8-73.81-.52-13.59-.25-27.22-.44-40.78.57-7.11.74-14.09 2.48-21.22 3.1-6 .56-12.05.99-18.11.98ZM564 97.3c14.2.17 28.47 1.06 42.62-.55 10.56-1.18 20.94-3.78 31.62-3.66 11.27-.22 22.57-.35 33.83.11 15.8.9 31.52 1.4 47.31 1.28 11.35 0 22.66-1.13 34-1.14a131.82 131.82 0 0 0 20.77-2.44 163 163 0 0 0 21.43-4.55c6.2-1.42 11.91-4.19 17.65-6.85 5.34-2.39 11.56-4.23 15.26-9a3.35 3.35 0 0 0 .31-2.4c-2.35-5.23-9.57-5.11-14.43-5.88a78.06 78.06 0 0 0-17.22.13c-9.89 1.47-19.48 4.44-29.35 6-8.43 1-17 .59-25.43.72a48.23 48.23 0 0 1-8.24-.43 4.61 4.61 0 0 1-2.81-1.42c-.86-1.13-.36-2.62.26-3.74 1.39-2.72 4-4.36 6.39-6.14-7.07-5.79-16.93-5.19-25.56-5.26-9.39 0-18.84.26-28.14-1.21s-17.83-5.6-26.75-8.31a99.21 99.21 0 0 0-20.81-3.84c-10.56-.89-21.2-1.28-31.5-4-4.54-1.33-9.59-2.05-13.48-4.89-2.47-2-1-5.48.87-7.33 1.08-1.45 5.89-3.16 5.38-5.09-1.12-1-2.78-1-4.21-1.21a1 1 0 0 1-.59-1.66c-14.31-2.3-28.91-2.58-43.1-5.71-13.46-3.05-26.9-6.76-40.81-6.7-18.23-.71-36.42.47-54.6 1.77Q430.89 5.32 407 5.2c-16 .26-32-.91-48 .25-9.79 1.08-19.48 3-29.34 3.6s-19.93.56-29.89.26a453.53 453.53 0 0 0-87.88 1.35 160.42 160.42 0 0 0-39 8.31c-5.11 2-9.78 5-14.6 7.51a18.13 18.13 0 0 0-4 2.77c7.52.84 14.91-1.37 22.45-1.06 6.09.09 12.15.67 18.25.67 19.78-.28 39.64-2.95 59.37-.21 5.75.84 11.79 1 17.28 3 2 1.59-.64 2.72-2.12 3-7.51 1.57-15.31.59-22.84 2.13-7.28 1-13.79 4.5-20.8 6.44-9.28 2-18.84 2.4-28.32 2.88-19.71.73-39.65.07-59 4.52-10 2.07-21.08 1.6-29.73 7.64-1 .67.39 1.47.83 2.08 6.28 7.48 16 9.32 25.25 9.47 11.23 0 22.4-1.42 33.62-1.67 21.49-.51 43.06-.77 64.54.18 9.69 1.28 19.23 3 28.83 4.72 17.63 1.46 35.25 3 52.85 4.82 28.84 3.76 58-1.23 86.88 1.79 10.36 1.15 20.48 3.67 30.63 5.93 12.36 2.22 24.81 3.95 37.24 5.72 18.06 1.92 36.08 4.45 54.24 5.07 13.46.22 26.86.69 40.26.93Z"/><path d="M657.45 65.17c-12.87-1.37-25.73-3-38.55-4.82-4.22-.62-8.49-.85-12.73-1.22-3.89-.56-8.24-.53-11.6-2.79-2.2-1.65-.39-4 1.29-5.26 3-2.36 7.06-2.52 10.75-2.57a158.43 158.43 0 0 1 19 .87c5.5.83 11.12 2.19 16.54 3.08 2.87.43 5.74.93 8.64 1.1a.92.92 0 0 1 .82.74c4.23 1.1 8.8 1.68 12.38 4.39 6.88 5.31-1.89 7.12-6.54 6.48Zm4.07-1.93c1-.19 2.46-.26 3.06-1.13-.92-1.64-2.66-2.54-4.27-3.34-4.9-2.05-10.31-2.64-15.33-4-10-1.44-19.84-4.35-30-4.26-6 .27-15.64-1.87-19.47 3.8v-.06a.22.22 0 0 0 0-.06c1 3.06 15.37 3.08 18.73 3.63 10.74 1.37 21.46 2.87 32.21 4.08 4.99.66 10.02 1.68 15.07 1.34Z"/><path d="M657.45 65.17c4.65.65 13.42-1.14 6.53-6.48-3.58-2.69-8.15-3.29-12.38-4.39a.93.93 0 0 0-.83-.74c-2.89-.17-5.76-.67-8.63-1.1-5.42-.89-11-2.25-16.55-3.08a158.16 158.16 0 0 0-19-.87c-3.69.05-7.71.21-10.75 2.58-1.68 1.21-3.49 3.6-1.28 5.25 3.35 2.26 7.7 2.23 11.59 2.79 4.25.37 8.51.6 12.73 1.22 12.84 1.79 25.7 3.45 38.57 4.82Zm171.36 2.9a3.3 3.3 0 0 1-.3 2.4c-3.7 4.8-9.92 6.64-15.27 9-5.73 2.66-11.44 5.42-17.65 6.85a162.84 162.84 0 0 1-21.42 4.55 131.82 131.82 0 0 1-20.77 2.44c-11.35 0-22.66 1.14-34 1.14-15.79.12-31.51-.38-47.31-1.28-11.26-.46-22.56-.33-33.83-.11-10.68-.12-21.06 2.48-31.62 3.66-14.15 1.61-28.42.73-42.62.55-13.41-.24-26.81-.71-40.21-1-18.16-.63-36.19-3.16-54.24-5.08-12.43-1.77-24.88-3.5-37.24-5.72-10.15-2.26-20.27-4.78-30.63-5.93-28.88-3-58 2-86.88-1.79C297.22 76 279.59 74.46 262 73c-9.6-1.71-19.14-3.44-28.83-4.72-21.48-1-43-.69-64.54-.18-11.23.25-22.39 1.72-33.62 1.67-9.29-.15-19-2-25.25-9.47-.44-.61-1.84-1.41-.83-2.07 8.65-6 19.77-5.58 29.73-7.65 19.35-4.44 39.29-3.79 59-4.51 9.47-.49 19-.86 28.32-2.89 7-1.94 13.52-5.43 20.8-6.44 7.53-1.53 15.33-.55 22.84-2.13 1.48-.25 4.11-1.38 2.12-3-5.49-2-11.53-2.16-17.28-3-19.73-2.74-39.59-.07-59.38.21-6.09 0-12.16-.58-18.25-.67-7.52-.31-14.92 1.9-22.44 1.06a18.13 18.13 0 0 1 4-2.77c4.82-2.56 9.49-5.51 14.6-7.51a160 160 0 0 1 39-8.31 453.54 453.54 0 0 1 87.88-1.35c10 .3 19.95.24 29.89-.26s19.55-2.52 29.34-3.6c16-1.16 32 0 48-.25q23.85.12 47.67-1.31c18.17-1.3 36.37-2.48 54.6-1.77 13.91-.06 27.34 3.65 40.81 6.7 14.19 3.13 28.79 3.41 43.1 5.71a1 1 0 0 0 .59 1.66c1.43.2 3.09.16 4.21 1.22.51 1.92-4.3 3.63-5.38 5.08-1.92 1.85-3.34 5.35-.87 7.33 3.89 2.84 8.94 3.56 13.48 4.89 10.3 2.7 20.94 3.1 31.49 4a99.19 99.19 0 0 1 20.82 3.84c8.92 2.71 17.49 6.85 26.75 8.31s18.75 1.22 28.14 1.21c8.63.07 18.49-.53 25.56 5.26-2.34 1.78-5 3.42-6.4 6.14-.61 1.12-1.1 2.61-.25 3.74a4.64 4.64 0 0 0 2.81 1.42 48.16 48.16 0 0 0 8.23.43c8.48-.13 17 .33 25.44-.72 9.87-1.57 19.46-4.54 29.35-6a78 78 0 0 1 17.21-.13c4.79.83 12.01.67 14.35 5.9Z"/><g><path d="M402.68 304.89c-11.61-.58-22.87-3.71-34.39-4.93a163.75 163.75 0 0 0-24.06-.2c-16.33.81-32.69 3.39-49 .79-2.55-.44-5.41-.72-7.42-2.51-2.75-2.39-2.25-5.75.9-7.48a7 7 0 0 1 2.21-1c1-.2 2.32-1.12 3.3-.51 8.4-2 16.3-5.74 24.84-7.2a81.7 81.7 0 0 1 29-.43c8.45 1.61 16.77 3.95 25.34 4.67 8.24.93 16.72.21 24.72 2.75a54.13 54.13 0 0 1 11.38 4.85c2 1.22 4.56 2.12 5.83 4.23 2.82 7.37-8.02 7.34-12.65 6.97Zm3.71-1.82c2.55-.12 8.9-.29 7.15-4.3l.07.11c-2.5-2.74-6.39-4-9.58-5.75a50.06 50.06 0 0 0-9-3.09c-9.27-2-18.81-1.07-28.12-2.79-8.12-1.18-16-3.74-24.16-4.63a85.62 85.62 0 0 0-26.59 1.85c-7.07 1.59-13.7 4.61-20.73 6.3-1.82.55-4 .47-5.61 1.41-1.41.86-2.57 2.11-1.28 3.71 2.86 3.8 16.55 3.37 21.47 3.92 13.61 0 27.14-2 40.74-2.29a133.74 133.74 0 0 1 24.49 1.37c10.32 1.77 20.61 4.11 31.15 4.18Z"/><path d="M402.68 304.89c-11.61-.58-22.87-3.71-34.39-4.93a163.75 163.75 0 0 0-24.06-.2c-16.33.81-32.69 3.39-49 .79-2.55-.44-5.41-.72-7.42-2.51-2.75-2.39-2.25-5.75.9-7.48a7 7 0 0 1 2.21-1c1-.2 2.32-1.12 3.3-.51 8.4-2 16.3-5.74 24.84-7.2a81.7 81.7 0 0 1 29-.43c8.45 1.61 16.77 3.95 25.34 4.67 8.24.93 16.72.21 24.72 2.75a54.13 54.13 0 0 1 11.38 4.85c2 1.22 4.56 2.12 5.83 4.23 2.82 7.37-8.02 7.34-12.65 6.97Zm3.71-1.82c2.55-.12 8.9-.29 7.15-4.3l.07.11c-2.5-2.74-6.39-4-9.58-5.75a50.06 50.06 0 0 0-9-3.09c-9.27-2-18.81-1.07-28.12-2.79-8.12-1.18-16-3.74-24.16-4.63a85.62 85.62 0 0 0-26.59 1.85c-7.07 1.59-13.7 4.61-20.73 6.3-1.82.55-4 .47-5.61 1.41-1.41.86-2.57 2.11-1.28 3.71 2.86 3.8 16.55 3.37 21.47 3.92 13.61 0 27.14-2 40.74-2.29a133.74 133.74 0 0 1 24.49 1.37c10.32 1.77 20.61 4.11 31.15 4.18Z"/><path d="M413.58 298.86c1.62 3.92-4.66 4.09-7.19 4.21-10.54-.12-20.83-2.41-31.2-4.18a133.74 133.74 0 0 0-24.49-1.37c-13.6.28-27.13 2.29-40.74 2.29-4.92-.55-18.61-.12-21.47-3.92-1.29-1.59-.13-2.85 1.28-3.7 1.65-1 3.79-.87 5.61-1.42 7-1.69 13.66-4.71 20.73-6.3a85.62 85.62 0 0 1 26.59-1.85c8.17.89 16 3.45 24.16 4.63 9.31 1.75 18.85.75 28.14 2.75a49.7 49.7 0 0 1 9 3.09c3.21 1.81 7.08 3.04 9.58 5.77Z"/></g><g><path d="M260.28 191.72c-27.8-.73-55.64-1.27-83.35-3.82a285.05 285.05 0 0 1-31.08-4.49c-7.61-1.21-15.27-2-22.92-3s-15.57-1.35-23.38-1.81c-9.62-.56-19.48-.13-28.86-2.69-6.39-1.4-10.58-7.12-16.82-8.75a77.4 77.4 0 0 0-20.5-2.94c-5.58-.13-11.16-.32-16.73-.68-4.7-.5-15.39-.26-16.64-5.91 0-3.58 4.39-5.76 6.88-7.72 7.36-5.17 16.18-7.66 24.91-9.41a148.82 148.82 0 0 1 21.27-2.14c5.58-.21 11.17-.37 16.75-.09 2.67.21 5.53.15 8 1.39a1.08 1.08 0 0 1 .48.37c17-1.32 34.11-1.16 51 1.52 13.6 1.85 27.31 2.31 41 3.49 9.31.76 18.62 1.8 28 1.37 12.41-.27 24.47-3.16 36.89-2.63 12.08.4 24.55.26 36.11 4.17 8.16 3.21 14.87 9.74 23.74 11.24 9.15 2.13 18.63 1.14 27.94 1.83 7.48.42 14.8 1.89 22.16 3.05 6.25 1.1 12.82 2.59 17.76 6.81 1.88 1.59 3.58 4.36 2.11 6.74a6.51 6.51 0 0 1-2.56 2.14 63.3 63.3 0 0 1-10.44 4.12c-18 6.07-37.25 7.54-56.14 7.54-11.86.15-23.72.49-35.58.3Zm11.2-1.91c19.48-.57 39.17.52 58.44-2.79a116.72 116.72 0 0 0 26.62-6.8c4.3-1.77 10.44-3.64 4.26-8.43-6.64-4.93-15.21-5.53-23.07-6.94-10.53-2.06-21.26-2.21-32-2.33-12.39-.27-20.23-3.74-30.4-10.37-12.17-6.88-31.72-6-45.62-6.39-13.12.43-26.06 3.26-39.24 2.74-9.6-.32-19.17-1.45-28.75-2.12-14.66-.82-29.28-2.2-43.82-4.27-10-1.12-20.08-.93-30.11-.69-4.87.2-9.73.77-14.61.77a1 1 0 0 1-.59-1.78c-19.2-.94-43.11-.33-60.45 8.49a50.24 50.24 0 0 0-8.7 6c-2.24 2-2 3.47.78 4.68 4.7 1.83 9.78 1.74 14.73 2.12 13 .84 26.46-.2 38.76 4.78 3.27 1.51 5.85 4.21 9.08 5.78 6.16 3.13 13.29 3.4 20.06 3.85 11.63.41 23.26 1 34.84 2.18 9.11 1.09 18.24 2 27.27 3.66a207.46 207.46 0 0 0 20.56 3.16c21.39 2.39 42.91 3.31 64.41 3.78 12.56.64 25.07.98 37.55.92Z"/><path d="M260.28 191.72c-27.8-.73-55.64-1.27-83.35-3.82a285.05 285.05 0 0 1-31.08-4.49c-7.61-1.21-15.27-2-22.92-3s-15.57-1.35-23.38-1.81c-9.62-.56-19.48-.13-28.86-2.69-6.39-1.4-10.58-7.12-16.82-8.75a77.4 77.4 0 0 0-20.5-2.94c-5.58-.13-11.16-.32-16.73-.68-4.7-.5-15.39-.26-16.64-5.91 0-3.58 4.39-5.76 6.88-7.72 7.36-5.17 16.18-7.66 24.91-9.41a148.82 148.82 0 0 1 21.27-2.14c5.58-.21 11.17-.37 16.75-.09 2.67.21 5.53.15 8 1.39a1.08 1.08 0 0 1 .48.37c17-1.32 34.11-1.16 51 1.52 13.6 1.85 27.31 2.31 41 3.49 9.31.76 18.62 1.8 28 1.37 12.41-.27 24.47-3.16 36.89-2.63 12.08.4 24.55.26 36.11 4.17 8.16 3.21 14.87 9.74 23.74 11.24 9.15 2.13 18.63 1.14 27.94 1.83 7.48.42 14.8 1.89 22.16 3.05 6.25 1.1 12.82 2.59 17.76 6.81 1.88 1.59 3.58 4.36 2.11 6.74a6.51 6.51 0 0 1-2.56 2.14 63.3 63.3 0 0 1-10.44 4.12c-18 6.07-37.25 7.54-56.14 7.54-11.86.15-23.72.49-35.58.3Zm11.2-1.91c19.48-.57 39.17.52 58.44-2.79a116.72 116.72 0 0 0 26.62-6.8c4.3-1.77 10.44-3.64 4.26-8.43-6.64-4.93-15.21-5.53-23.07-6.94-10.53-2.06-21.26-2.21-32-2.33-12.39-.27-20.23-3.74-30.4-10.37-12.17-6.88-31.72-6-45.62-6.39-13.12.43-26.06 3.26-39.24 2.74-9.6-.32-19.17-1.45-28.75-2.12-14.66-.82-29.28-2.2-43.82-4.27-10-1.12-20.08-.93-30.11-.69-4.87.2-9.73.77-14.61.77a1 1 0 0 1-.59-1.78c-19.2-.94-43.11-.33-60.45 8.49a50.24 50.24 0 0 0-8.7 6c-2.24 2-2 3.47.78 4.68 4.7 1.83 9.78 1.74 14.73 2.12 13 .84 26.46-.2 38.76 4.78 3.27 1.51 5.85 4.21 9.08 5.78 6.16 3.13 13.29 3.4 20.06 3.85 11.63.41 23.26 1 34.84 2.18 9.11 1.09 18.24 2 27.27 3.66a207.46 207.46 0 0 0 20.56 3.16c21.39 2.39 42.91 3.31 64.41 3.78 12.56.64 25.07.98 37.55.92Z"/><path d="M360.8 171.79c6.18 4.79 0 6.66-4.26 8.43a117.24 117.24 0 0 1-26.62 6.8c-19.27 3.31-39 2.23-58.43 2.79-12.52.06-25-.29-37.5-.88-21.51-.47-43-1.39-64.41-3.78-6.91-.69-13.76-1.79-20.57-3.15-9-1.63-18.16-2.58-27.27-3.67-11.58-1.17-23.21-1.77-34.84-2.17-6.77-.46-13.9-.73-20.06-3.86-3.23-1.57-5.81-4.27-9.08-5.78-12.3-5-25.78-3.94-38.76-4.77-4.95-.39-10-.3-14.73-2.13-2.76-1.21-3-2.72-.78-4.67a49.16 49.16 0 0 1 8.7-6c17.33-8.83 41.25-9.44 60.45-8.5a1 1 0 0 0 .59 1.78c4.88 0 9.74-.57 14.61-.77 10-.24 20.12-.43 30.11.69 14.54 2.07 29.16 3.45 43.82 4.27 9.58.67 19.15 1.8 28.75 2.12 13.18.52 26.11-2.31 39.24-2.74 13.9.35 33.44-.49 45.62 6.39 10.16 6.63 18 10.1 30.4 10.37 10.69.12 21.42.27 32 2.34 7.81 1.36 16.38 1.96 23.02 6.89Z"/></g><g><path d="M1139.31 260.71c-15.57 1.88-31.22 3.1-46.9 3.45-38.32.55-76.56-2.18-114.73-5.29-31-2.08-62 .95-93 2.15-16 .09-32 0-48-.82-11.11-.53-22.16-2-33.27-2.35-19.57-.51-39.23-.43-58.7 1.73-9.72 1.18-19.32 3.15-28.89 5.16-11.41 2-33.71 8.05-43-.38-5.88-6.15 2.2-15.57 6.46-20.56 14.56-16.52 37.35-15.8 57.48-18.14a97 97 0 0 0 12.11-2.09c1.85-.57 4-1.09 5.22-2.72 1.88-4-5.6-5.13-8.22-5.32-25.87-.61-51.76 1.55-77.59 2.83-25.64 2-50.78 8.3-76.5 9.52-10.69.49-21.27-1.52-31.87-2.6-16.4-.82-32.3 4.47-48.47 6.36-2.78.2-19.63 2.58-14.58-3.88a27.62 27.62 0 0 1 7.86-8.11c7.65-5 16-9 24.1-13.21 20.33-10.2 42.14-17.09 63.9-23.7 12.56-3.75 25.38-6.85 38.51-7.76 26.09-2 52.33-1.46 78.39-3.91a421.73 421.73 0 0 0 54.59-9 536.54 536.54 0 0 1 53.05-8.57c29.11-3.36 58.49-2.94 87.72-1.69 20.88 1.43 41.82 2.82 62.72.95 12.43-1.06 24.89-2.17 37.19-4.31 13.69-2.62 27.18-6.25 41.06-7.83a206.75 206.75 0 0 1 34.83-1.27 289.25 289.25 0 0 1 37.42 3.16c7.09 1.19 14.15 2.85 21.14 4.63v-2c-4.16-1-8.33-1.88-12.44-2.9a210.79 210.79 0 0 0-31.26-4.1c-17.27-1-34.68-1.64-51.86.85-10.35 1.38-20.57 3.51-30.73 5.9a269.13 269.13 0 0 1-31.71 4.73c-23.88 2.83-48.14 2.55-72.11.53-25.7-1.22-51.54-1.92-77.22.08a530.13 530.13 0 0 0-58.46 8c-18 3.79-35.89 7.89-54.18 9.81-32.48 4.35-65.51 2.23-98 6.1-11.55 1.62-22.78 4.85-33.93 8.2-20.58 6.43-41.22 13.08-60.47 22.92-6.18 3.14-12.31 6.37-18.36 9.76a42.18 42.18 0 0 0-9.62 7 27 27 0 0 0-3.9 5.07c-.69 1.15-1.42 2.5-1 3.88 3.64 8.64 45.06-3.54 55.51-3.61 12.46-1.39 24.68 2.54 37.14 2.43 18 .1 35.7-3.55 53.44-6 20.76-3.66 41.83-4.38 62.85-5.39q15.07-.84 30.2-1.11c6.16.21 13.19-1.09 18.84 1.83.09.1.44.33.46.54-1.2 1.61-3.55 1.81-5.42 2.4-3.59.79-7.4 1.33-11.08 1.77-10.3 1.32-20.82 1.51-31 3.72-9.72 2.27-19.28 6.57-26.18 14-4.67 5.25-10.78 12.13-9.84 19.64 1.84 7.65 11.07 9.28 17.82 9.38 13.27.11 26.2-3.48 39.15-5.94a240.12 240.12 0 0 1 24.76-3.76 481.15 481.15 0 0 1 55-1c11.57.55 23.08 2 34.67 2.45 17 .6 34.15.95 51.21.44 18.25-1 36.49-2.43 54.78-2.54 21.8-.66 43.52 1.47 65.22 3.26 40 2.58 80.34 4.43 120.29.05 2.48-.25 4.95-.54 7.43-.85Z"/><path d="M1139.31 147.16v113.57c-15.57 1.87-31.22 3.09-46.89 3.43-38.33.55-76.57-2.18-114.74-5.29-31-2.08-62 .95-93 2.15-16 .09-32 0-48-.82-11.11-.53-22.16-2-33.27-2.35-19.57-.51-39.23-.42-58.7 1.74-9.72 1.17-19.32 3.14-28.89 5.15-11.41 2-33.71 8.05-43-.38-5.88-6.15 2.2-15.57 6.46-20.56 14.56-16.52 37.35-15.8 57.49-18.14a97.47 97.47 0 0 0 12.1-2.09c1.85-.57 4-1.09 5.22-2.72 1.88-4-5.6-5.14-8.21-5.32-25.88-.61-51.77 1.55-77.6 2.83-25.64 2-50.78 8.3-76.5 9.52-10.69.49-21.27-1.52-31.87-2.6-16.4-.82-32.3 4.47-48.46 6.36-2.79.2-19.64 2.57-14.59-3.88a27.62 27.62 0 0 1 7.86-8.11c7.65-5 16-9 24.1-13.21 20.33-10.19 42.14-17.09 63.9-23.7 12.56-3.75 25.39-6.85 38.51-7.76 26.09-2 52.33-1.46 78.39-3.91a422 422 0 0 0 54.59-9 536.82 536.82 0 0 1 53-8.57c29.12-3.36 58.5-2.94 87.73-1.69 20.88 1.43 41.82 2.82 62.72 1 12.43-1.07 24.89-2.18 37.19-4.32 13.68-2.62 27.18-6.25 41.06-7.83a206.75 206.75 0 0 1 34.83-1.27 287.49 287.49 0 0 1 37.42 3.16c7.1 1.18 14.16 2.84 21.15 4.61Z"/></g></g></g></svg>